<?xml version="1.0" encoding="UTF-8" standalone="no"?><!DOCTYPE svg PUBLIC "-//W3C//DTD SVG 1.1//EN" "http://www.w3.org/Graphics/SVG/1.1/DTD/svg11.dtd"><svg width="2080" height="40" viewBox="0 0 2080 40" xmlns="http://www.w3.org/2000/svg" xmlns:xlink="http://www.w3.org/1999/xlink"><svg width="40" height="40" viewBox="0 0 40 40" id="1default"/><svg enable-background="new 0 0 32 32" height="40" viewBox="0 0 40 40" width="40" id="comment" x="40"><g transform="matrix(1.155 0 0 1.126 1.724 2.324)"><path d="M30 2v22H10.416l-6.002 6H2V2m7.583 20H28V4H4v23.583L9.583 22z" fill="#6f8388"/><path fill="#6f8388" d="M8 8h18v2H8z"/><path fill="#6f8388" d="M8 12h18v2H8z"/><path fill="#6f8388" d="M8 16h12v2H8z"/><path d="M16.328 29.885c1.794 2.288 4.356 3.634 7.43 3.634 5.252 0 9.607-4.576 9.607-10.094 0-5.517-4.355-9.958-9.607-9.958-5.252 0-9.607 4.575-9.607 10.093 0 2.288.77 4.442 1.922 6.19" fill="#fff"/><path d="M17.8 29.028c1.514 1.887 3.678 2.998 6.276 2.998 4.437 0 8.117-3.775 8.117-8.327 0-4.553-3.68-8.217-8.117-8.217-4.438 0-8.117 3.775-8.117 8.327 0 1.887.648 3.664 1.622 5.107" fill="#3aad73"/><path d="M27.647 22.922h-2.38V20.48c0-.667-.434-1.222-1.19-1.222-.76 0-1.192.444-1.192 1.22v2.444h-2.38c-.65 0-1.19.444-1.19 1.22 0 .778.432 1.222 1.19 1.222h2.38v2.443c0 .666.433 1.22 1.19 1.22.758 0 1.19-.443 1.19-1.22v-2.443h2.382c.65 0 1.19-.444 1.19-1.22 0-.778-.324-1.222-1.19-1.222z" fill="#fff"/></g><g transform="translate(0 8)"><path fill="none" d="M0 0h32v32H0z"/></g></svg><svg enable-background="new 0 0 32 32" height="40" viewBox="0 0 40 40" width="40" id="comment-delete" x="80"><g transform="matrix(1.155 0 0 1.126 1.724 2.324)"><path d="M30 2v22H10.416l-6.002 6H2V2m7.583 20H28V4H4v23.583L9.583 22z" fill="#6f8388"/><path fill="#6f8388" d="M8 8h18v2H8z"/><path fill="#6f8388" d="M8 12h18v2H8z"/><path fill="#6f8388" d="M8 16h12v2H8z"/><path d="M16.33 29.886c1.792 2.288 4.354 3.633 7.428 3.633 5.252 0 9.608-4.576 9.608-10.093 0-5.518-4.356-9.958-9.608-9.958-5.252 0-9.607 4.574-9.607 10.09 0 2.29.77 4.442 1.923 6.19" fill="#fff"/><path d="M17.8 29.028c1.514 1.887 3.678 2.998 6.276 2.998 4.437 0 8.117-3.775 8.117-8.327 0-4.553-3.68-8.217-8.117-8.217-4.438 0-8.117 3.775-8.117 8.327 0 1.887.648 3.664 1.622 5.107" fill="#ed4d4d"/><g transform="matrix(1.082 0 0 1.11 873.386 -629.881)" fill="#fff"><path d="M-781.1 585.3c.5.5.5 1.3 0 1.8l-5.4 5.4c-.5.5-1.3.5-1.8 0s-.5-1.3 0-1.8l5.4-5.4c.4-.5 1.3-.5 1.8 0z"/><path d="M-788.3 585.3c.5-.5 1.3-.5 1.8 0l5.4 5.4c.5.5.5 1.3 0 1.8s-1.3.5-1.8 0l-5.4-5.4c-.6-.5-.6-1.3 0-1.8z"/></g></g><g transform="translate(0 8)"><path fill="none" d="M0 0h32v32H0z"/></g></svg><svg enable-background="new 0 0 32 32" height="40" viewBox="0 0 40 40" width="40" id="comment-reply" x="120"><g transform="matrix(1.155 0 0 1.126 1.724 2.324)"><path d="M30 2v22H10.416l-6.002 6H2V2m7.583 20H28V4H4v23.583L9.583 22z" fill="#6f8388"/><path fill="#6f8388" d="M8 8h18v2H8z"/><path fill="#6f8388" d="M8 12h18v2H8z"/><path fill="#6f8388" d="M8 16h12v2H8z"/><path d="M16.33 29.886c1.792 2.288 4.354 3.633 7.428 3.633 5.252 0 9.608-4.576 9.608-10.093 0-5.518-4.356-9.958-9.608-9.958-5.252 0-9.607 4.574-9.607 10.09 0 2.29.77 4.442 1.923 6.19" fill="#fff"/><path d="M17.8 29.028c1.514 1.887 3.678 2.998 6.276 2.998 4.437 0 8.117-3.775 8.117-8.327 0-4.553-3.68-8.217-8.117-8.217-4.438 0-8.117 3.775-8.117 8.327 0 1.887.648 3.664 1.622 5.107" fill="#3aad73"/><text style="line-height:125%" x="19.611" y="27.777" transform="scale(.919 1.088)" font-size="16.023" letter-spacing="0" word-spacing="0" fill="#fff" font-family="Sans"><tspan x="19.611" y="27.777">↩</tspan></text></g><g transform="translate(0 8)"><path fill="none" d="M0 0h32v32H0z"/></g></svg><svg width="40" height="40" viewBox="-780.1 536.5 32 32" enable-background="new -780.1 536.5 32 32" id="discussion-add" x="160"><g><path fill="#6F8388" d="M-770.9 564.3c.5.3 1 .5 1.4.7l.2-.5c-.5-.2-1-.4-1.4-.7l-.2.5zM-772 562.9l-1.5-4-.9 1.5c-.3-.3-.5-.6-.7-1l-.4.3c.3.4.5.7.8 1.1l-1.8 1.1 4.9 1.9-.4-.9zM-767.9 565.6c.5.2 1.1.3 1.6.4l.1-.5c-.5-.1-1-.2-1.5-.4l-.2.5zM-775.9 558.1c-.2-.5-.4-1-.6-1.4l-.5.2.6 1.5.5-.3zM-766.8 539.2h-.1c-1.4-1.7-3.4-2.7-5.8-2.7-4.1 0-7.5 3.4-7.5 7.5s3.4 7.5 7.5 7.5 7.5-3.4 7.5-7.5c0-1.8-.6-3.4-1.6-4.6v-.2zm-5.8 10.7c-2.1 0-3.9-1.1-5-2.8.7-1 2.5-.9 3.7-1.4.1-.2.1-.5.1-.9-.3-.3-.5-.7-.6-1.2-.2-.3-.3-.6-.3-1-.1-.1.1-.2.3-.2v-1s-.1-.8.5-1.2c.6-.4 1.1-.6 1.4-.6s.9.2 1.2.5c.3.4.6.9.6 1v1.2c.2 0 .3.1.3.2-.1.4-.2.8-.4 1.1-.1.4-.3.9-.6 1.1 0 .3.1.6.1.9 1.3.5 2.9.4 3.5 1.3-.9 1.9-2.7 3-4.8 3zM-777.1 553.6l-.5.1c.1.5.1 1.1.2 1.6l.5-.1c-.1-.6-.1-1.1-.2-1.6zM-777 550.4l-.5-.1c-.1.5-.2 1.1-.2 1.7h.5c.1-.5.2-1 .2-1.6zM-751.1 551.5l.3.1.3-.1c-.1-.5-.1-1.1-.2-1.6l-.5.1c0 .4.1 1 .1 1.5zM-763.5 539.5v-.5h-.5c-.4 0-.7 0-1.1.1l.1.5c.4-.1.7-.1 1.1-.1h.4zM-756.2 542.1l1.6 4 .9-1.5c.3.3.5.6.7 1l.4-.3c-.3-.4-.5-.7-.8-1.1l1.8-1.1-4.9-1.9.3.9zM-751.2 554.7l.5.1c.1-.5.2-1.1.2-1.7h-.5c-.1.5-.1 1.1-.2 1.6zM-752.3 547c.2.5.4 1 .6 1.4l.5-.2-.6-1.5-.5.3zM-760.3 539.5c-.5-.2-1.1-.3-1.6-.4l-.1.5c.5.1 1 .2 1.5.4l.2-.5zM-764.7 565.6v.5h.6c.4 0 .7 0 1.1-.1l-.1-.5c-.5.1-1 .1-1.6.1zM-757.3 540.8c-.5-.3-1-.5-1.5-.7l-.2.5c.5.2 1 .4 1.4.7l.3-.5z"/><path fill="#3AAD73" d="M-755.6 553.6c-4.1 0-7.5 3.4-7.5 7.5 0 1.7.6 3.3 1.5 4.6l.1.2c.1 0 .1 0 .1-.1 1.4 1.7 3.4 2.7 5.8 2.7 4.1 0 7.5-3.4 7.5-7.5s-3.4-7.4-7.5-7.4z"/></g><path fill="#fff" d="M-752.1 560.3h-2.2v-2.2c0-.6-.4-1.1-1.1-1.1s-1.1.4-1.1 1.1v2.2h-2.2c-.6 0-1.1.4-1.1 1.1s.4 1.1 1.1 1.1h2.2v2.2c0 .6.4 1.1 1.1 1.1s1.1-.4 1.1-1.1v-2.2h2.2c.6 0 1.1-.4 1.1-1.1s-.4-1.1-1.1-1.1z"/></svg><svg width="40" height="40" viewBox="-779.8 535.8 32 32" enable-background="new -779.8 535.8 32 32" id="discussion-bin" x="200"><g><path fill="#6F8388" d="M-770.6 563.6c.5.3 1 .5 1.4.7l.2-.5c-.5-.2-1-.4-1.4-.7l-.2.5zM-771.7 562.2l-1.5-4-.9 1.5c-.3-.3-.5-.6-.7-1l-.4.3c.3.4.5.7.8 1.1l-1.8 1.1 4.9 1.9-.4-.9zM-767.6 564.9c.5.2 1.1.3 1.6.4l.1-.5c-.5-.1-1-.2-1.5-.4l-.2.5zM-775.6 557.4c-.2-.5-.4-1-.6-1.4l-.5.2.6 1.5.5-.3zM-766.5 538.5h-.1c-1.4-1.7-3.4-2.7-5.8-2.7-4.1 0-7.5 3.4-7.5 7.5s3.4 7.5 7.5 7.5 7.5-3.4 7.5-7.5c0-1.8-.6-3.4-1.6-4.6v-.2zm-5.8 10.7c-2.1 0-3.9-1.1-5-2.8.7-1 2.5-.9 3.7-1.4.1-.2.1-.5.1-.9-.3-.3-.5-.7-.6-1.2-.2-.3-.3-.6-.3-1-.1-.1.1-.2.3-.2v-1s-.1-.8.5-1.2c.6-.4 1.1-.6 1.4-.6s.9.2 1.2.5c.3.4.6.9.6 1v1.2c.2 0 .3.1.3.2-.1.4-.2.8-.4 1.1-.1.4-.3.9-.6 1.1 0 .3.1.6.1.9 1.3.5 2.9.4 3.5 1.3-.9 1.9-2.7 3-4.8 3zM-776.8 552.9l-.5.1c.1.5.1 1.1.2 1.6l.5-.1c-.1-.6-.1-1.1-.2-1.6zM-776.7 549.7l-.5-.1c-.1.5-.2 1.1-.2 1.7h.5c.1-.5.2-1 .2-1.6zM-750.8 550.8l.3.1.3-.1c-.1-.5-.1-1.1-.2-1.6l-.5.1c0 .4.1 1 .1 1.5zM-763.2 538.8v-.5h-.5c-.4 0-.7 0-1.1.1l.1.5c.4-.1.7-.1 1.1-.1h.4zM-755.9 541.4l1.6 4 .9-1.5c.3.3.5.6.7 1l.4-.3c-.3-.4-.5-.7-.8-1.1l1.8-1.1-4.9-1.9.3.9zM-750.9 554l.5.1c.1-.5.2-1.1.2-1.7h-.5c-.1.5-.1 1.1-.2 1.6zM-752 546.3c.2.5.4 1 .6 1.4l.5-.2-.6-1.5-.5.3zM-760 538.8c-.5-.2-1.1-.3-1.6-.4l-.1.5c.5.1 1 .2 1.5.4l.2-.5zM-764.4 564.9v.5h.6c.4 0 .7 0 1.1-.1l-.1-.5c-.5.1-1 .1-1.6.1zM-757 540.1c-.5-.3-1-.5-1.5-.7l-.2.5c.5.2 1 .4 1.4.7l.3-.5z"/><path fill="#EF4D4D" d="M-761 565.1c1.4 1.7 3.4 2.7 5.8 2.7 4.1 0 7.5-3.4 7.5-7.5s-3.4-7.5-7.5-7.5-7.5 3.4-7.5 7.5c0 1.7.6 3.3 1.5 4.6"/></g><path fill="#fff" d="M-751.7 557.1h-1.3v-.4c0-.2-.2-.4-.5-.4h-3.4c-.2 0-.5.2-.5.4v.4h-1.3c-.2 0-.5.2-.5.4s.2.4.5.4v6.3c0 .5.3.9.9.9h5.2c.5 0 .9-.4.9-.9v-6.3c.2 0 .5-.2.5-.4s-.3-.4-.5-.4z"/><path fill="#EF4D4D" d="M-755.1 564.4c.3 0 .7-.3.7-.5V559c0-.3-.3-.5-.7-.5-.3 0-.7.3-.7.5v4.9c0 .1.3.5.7.5zM-753.4 564.4c.3 0 .7-.3.7-.5V559c0-.3-.3-.5-.7-.5-.3 0-.7.3-.7.5v4.9c0 .1.3.5.7.5zM-756.8 564.4c.3 0 .7-.3.7-.5V559c0-.3-.3-.5-.7-.5-.3 0-.7.3-.7.5v4.9c0 .2.3.5.7.5z"/></svg><svg width="40" height="40" viewBox="-780.1 536.1 32 32" enable-background="new -780.1 536.1 32 32" id="discussion-delete" x="240"><g><path fill="#6F8388" d="M-770.9 563.9c.5.3 1 .5 1.4.7l.2-.5c-.5-.2-1-.4-1.4-.7l-.2.5zM-772 562.5l-1.5-4-.9 1.5c-.3-.3-.5-.6-.7-1l-.4.3c.3.4.5.7.8 1.1l-1.8 1.1 4.9 1.9-.4-.9zM-767.9 565.2c.5.2 1.1.3 1.6.4l.1-.5c-.5-.1-1-.2-1.5-.4l-.2.5zM-775.9 557.7c-.2-.5-.4-1-.6-1.4l-.5.2.6 1.5.5-.3zM-766.8 538.8h-.1c-1.4-1.7-3.4-2.7-5.8-2.7-4.1 0-7.5 3.4-7.5 7.5s3.4 7.5 7.5 7.5 7.5-3.4 7.5-7.5c0-1.8-.6-3.4-1.6-4.6v-.2zm-5.8 10.7c-2.1 0-3.9-1.1-5-2.8.7-1 2.5-.9 3.7-1.4.1-.2.1-.5.1-.9-.3-.3-.5-.7-.6-1.2-.2-.3-.3-.6-.3-1-.1-.1.1-.2.3-.2v-1s-.1-.8.5-1.2c.6-.4 1.1-.6 1.4-.6s.9.2 1.2.5c.3.4.6.9.6 1v1.2c.2 0 .3.1.3.2-.1.4-.2.8-.4 1.1-.1.4-.3.9-.6 1.1 0 .3.1.6.1.9 1.3.5 2.9.4 3.5 1.3-.9 1.9-2.7 3-4.8 3zM-777.1 553.2l-.5.1c.1.5.1 1.1.2 1.6l.5-.1c-.1-.6-.1-1.1-.2-1.6zM-777 550l-.5-.1c-.1.5-.2 1.1-.2 1.7h.5c.1-.5.2-1 .2-1.6zM-751.1 551.1l.3.1.3-.1c-.1-.5-.1-1.1-.2-1.6l-.5.1c0 .4.1 1 .1 1.5zM-763.5 539.1v-.5h-.5c-.4 0-.7 0-1.1.1l.1.5c.4-.1.7-.1 1.1-.1h.4zM-756.2 541.7l1.6 4 .9-1.5c.3.3.5.6.7 1l.4-.3c-.3-.4-.5-.7-.8-1.1l1.8-1.1-4.9-1.9.3.9zM-751.2 554.3l.5.1c.1-.5.2-1.1.2-1.7h-.5c-.1.5-.1 1.1-.2 1.6zM-752.3 546.6c.2.5.4 1 .6 1.4l.5-.2-.6-1.5-.5.3zM-760.3 539.1c-.5-.2-1.1-.3-1.6-.4l-.1.5c.5.1 1 .2 1.5.4l.2-.5zM-764.7 565.2v.5h.6c.4 0 .7 0 1.1-.1l-.1-.5c-.5.1-1 .1-1.6.1zM-757.3 540.4c-.5-.3-1-.5-1.5-.7l-.2.5c.5.2 1 .4 1.4.7l.3-.5z"/><path fill="#EF4D4D" d="M-761.3 565.4c1.4 1.7 3.4 2.7 5.8 2.7 4.1 0 7.5-3.4 7.5-7.5s-3.4-7.5-7.5-7.5-7.5 3.4-7.5 7.5c0 1.7.6 3.3 1.5 4.6"/></g><path fill="#EF4D4D" d="M-755.3 564.7c.3 0 .7-.3.7-.5v-4.9c0-.3-.3-.5-.7-.5-.3 0-.7.3-.7.5v4.9c0 .2.3.5.7.5zM-753.6 564.7c.3 0 .7-.3.7-.5v-4.9c0-.3-.3-.5-.7-.5-.3 0-.7.3-.7.5v4.9c0 .2.3.5.7.5zM-757 564.8c.3 0 .7-.3.7-.5v-4.9c0-.3-.3-.5-.7-.5-.3 0-.7.3-.7.5v4.9c0 .2.3.5.7.5z"/><g fill="#fff"><path d="M-751.7 557c.5.5.5 1.4 0 2l-6 6c-.5.5-1.4.5-2 0-.5-.5-.5-1.4 0-2l6-6c.6-.5 1.5-.5 2 0zM-759.4 557c.5-.5 1.4-.5 2 0l6 6c.5.5.5 1.4 0 2-.5.5-1.4.5-2 0l-6-6c-.7-.6-.7-1.5 0-2z"/></g></svg><svg width="40" height="40" viewBox="-780.1 536.1 32 32" enable-background="new -780.1 536.1 32 32" id="discussion-edit" x="280"><g><path fill="#6F8388" d="M-770.9 563.9c.5.3 1 .5 1.4.7l.2-.5c-.5-.2-1-.4-1.4-.7l-.2.5zM-772 562.5l-1.5-4-.9 1.5c-.3-.3-.5-.6-.7-1l-.4.3c.3.4.5.7.8 1.1l-1.8 1.1 4.9 1.9-.4-.9zM-767.9 565.2c.5.2 1.1.3 1.6.4l.1-.5c-.5-.1-1-.2-1.5-.4l-.2.5zM-775.9 557.7c-.2-.5-.4-1-.6-1.4l-.5.2.6 1.5.5-.3zM-766.8 538.8h-.1c-1.4-1.7-3.4-2.7-5.8-2.7-4.1 0-7.5 3.4-7.5 7.5s3.4 7.5 7.5 7.5 7.5-3.4 7.5-7.5c0-1.8-.6-3.4-1.6-4.6v-.2zm-5.8 10.7c-2.1 0-3.9-1.1-5-2.8.7-1 2.5-.9 3.7-1.4.1-.2.1-.5.1-.9-.3-.3-.5-.7-.6-1.2-.2-.3-.3-.6-.3-1-.1-.1.1-.2.3-.2v-1s-.1-.8.5-1.2c.6-.4 1.1-.6 1.4-.6s.9.2 1.2.5c.3.4.6.9.6 1v1.2c.2 0 .3.1.3.2-.1.4-.2.8-.4 1.1-.1.4-.3.9-.6 1.1 0 .3.1.6.1.9 1.3.5 2.9.4 3.5 1.3-.9 1.9-2.7 3-4.8 3zM-777.1 553.2l-.5.1c.1.5.1 1.1.2 1.6l.5-.1c-.1-.6-.1-1.1-.2-1.6zM-777 550l-.5-.1c-.1.5-.2 1.1-.2 1.7h.5c.1-.5.2-1 .2-1.6zM-751.1 551.1l.3.1.3-.1c-.1-.5-.1-1.1-.2-1.6l-.5.1c0 .4.1 1 .1 1.5zM-763.5 539.1v-.5h-.5c-.4 0-.7 0-1.1.1l.1.5c.4-.1.7-.1 1.1-.1h.4zM-756.2 541.7l1.6 4 .9-1.5c.3.3.5.6.7 1l.4-.3c-.3-.4-.5-.7-.8-1.1l1.8-1.1-4.9-1.9.3.9zM-751.2 554.3l.5.1c.1-.5.2-1.1.2-1.7h-.5c-.1.5-.1 1.1-.2 1.6zM-752.3 546.6c.2.5.4 1 .6 1.4l.5-.2-.6-1.5-.5.3zM-760.3 539.1c-.5-.2-1.1-.3-1.6-.4l-.1.5c.5.1 1 .2 1.5.4l.2-.5zM-764.7 565.2v.5h.6c.4 0 .7 0 1.1-.1l-.1-.5c-.5.1-1 .1-1.6.1zM-757.3 540.4c-.5-.3-1-.5-1.5-.7l-.2.5c.5.2 1 .4 1.4.7l.3-.5z"/><path fill="#469FCC" d="M-761.3 565.4c1.4 1.7 3.4 2.7 5.8 2.7 4.1 0 7.5-3.4 7.5-7.5s-3.4-7.5-7.5-7.5-7.5 3.4-7.5 7.5c0 1.7.6 3.3 1.5 4.6"/></g><g fill="#fff"><path d="M-751.2 558.2l-1.8-1.7c-.5-.5-1.3-.5-1.7 0l-4.8 4.8 3.4 3.4 4.8-4.8c.5-.3.5-1.2.1-1.7zM-759.8 565.2h3.5l-3.5-3.4z"/></g></svg><svg width="40" height="40" viewBox="-780.1 536.5 32 32" enable-background="new -780.1 536.5 32 32" id="discussion-reply" x="320"><g><g><path fill="#6F8388" d="M-770.9 564.3c.5.3 1 .5 1.4.7l.2-.5c-.5-.2-1-.4-1.4-.7l-.2.5z"/><path fill="#6F8388" d="M-772 562.9l-1.5-4-.9 1.5c-.3-.3-.5-.6-.7-1l-.4.3c.3.4.5.7.8 1.1l-1.8 1.1 4.9 1.9-.4-.9z"/><path fill="#6F8388" d="M-767.9 565.6c.5.2 1.1.3 1.6.4l.1-.5c-.5-.1-1-.2-1.5-.4l-.2.5z"/><path fill="#6F8388" d="M-775.9 558.1c-.2-.5-.4-1-.6-1.4l-.5.2.6 1.5.5-.3z"/><path fill="#6F8388" d="M-766.8 539.2h-.1c-1.4-1.7-3.4-2.7-5.8-2.7-4.1 0-7.5 3.4-7.5 7.5s3.4 7.5 7.5 7.5 7.5-3.4 7.5-7.5c0-1.8-.6-3.4-1.6-4.6v-.2zm-5.8 10.7c-2.1 0-3.9-1.1-5-2.8.7-1 2.5-.9 3.7-1.4.1-.2.1-.5.1-.9-.3-.3-.5-.7-.6-1.2-.2-.3-.3-.6-.3-1-.1-.1.1-.2.3-.2v-1s-.1-.8.5-1.2c.6-.4 1.1-.6 1.4-.6s.9.2 1.2.5c.3.4.6.9.6 1v1.2c.2 0 .3.1.3.2-.1.4-.2.8-.4 1.1-.1.4-.3.9-.6 1.1 0 .3.1.6.1.9 1.3.5 2.9.4 3.5 1.3-.9 1.9-2.7 3-4.8 3z"/><path fill="#6F8388" d="M-777.1 553.6l-.5.1c.1.5.1 1.1.2 1.6l.5-.1c-.1-.6-.1-1.1-.2-1.6z"/><path fill="#6F8388" d="M-777 550.4l-.5-.1c-.1.5-.2 1.1-.2 1.7h.5c.1-.5.2-1 .2-1.6z"/><path fill="#6F8388" d="M-751.1 551.5l.3.1.3-.1c-.1-.5-.1-1.1-.2-1.6l-.5.1c0 .4.1 1 .1 1.5z"/><path fill="#6F8388" d="M-763.5 539.5v-.5h-.5c-.4 0-.7 0-1.1.1l.1.5c.4-.1.7-.1 1.1-.1h.4z"/><path fill="#6F8388" d="M-756.2 542.1l1.6 4 .9-1.5c.3.3.5.6.7 1l.4-.3c-.3-.4-.5-.7-.8-1.1l1.8-1.1-4.9-1.9.3.9z"/><path fill="#6F8388" d="M-751.2 554.7l.5.1c.1-.5.2-1.1.2-1.7h-.5c-.1.5-.1 1.1-.2 1.6z"/><path fill="#6F8388" d="M-752.3 547c.2.5.4 1 .6 1.4l.5-.2-.6-1.5-.5.3z"/><path fill="#6F8388" d="M-760.3 539.5c-.5-.2-1.1-.3-1.6-.4l-.1.5c.5.1 1 .2 1.5.4l.2-.5z"/><path fill="#6F8388" d="M-764.7 565.6v.5h.6c.4 0 .7 0 1.1-.1l-.1-.5c-.5.1-1 .1-1.6.1z"/><path fill="#6F8388" d="M-757.3 540.8c-.5-.3-1-.5-1.5-.7l-.2.5c.5.2 1 .4 1.4.7l.3-.5z"/><path fill="#3AAD73" d="M-755.6 553.6c-4.1 0-7.5 3.4-7.5 7.5 0 1.7.6 3.3 1.5 4.6l.1.2c.1 0 .1 0 .1-.1 1.4 1.7 3.4 2.7 5.8 2.7 4.1 0 7.5-3.4 7.5-7.5s-3.4-7.4-7.5-7.4z"/></g></g><text style="line-height:125%" x="-817.211" y="527.767" transform="scale(.931 1.074)" font-size="14.618" letter-spacing="0" word-spacing="0" fill="#fff" font-family="Sans"><tspan x="-817.211" y="527.767">↩</tspan></text></svg><svg width="40" height="40" viewBox="-780.1 536.5 32 32" enable-background="new -780.1 536.5 32 32" id="discussion-restore" x="360"><g><g><path fill="#6F8388" d="M-770.9 564.3c.5.3 1 .5 1.4.7l.2-.5c-.5-.2-1-.4-1.4-.7l-.2.5z"/><path fill="#6F8388" d="M-772 562.9l-1.5-4-.9 1.5c-.3-.3-.5-.6-.7-1l-.4.3c.3.4.5.7.8 1.1l-1.8 1.1 4.9 1.9-.4-.9z"/><path fill="#6F8388" d="M-767.9 565.6c.5.2 1.1.3 1.6.4l.1-.5c-.5-.1-1-.2-1.5-.4l-.2.5z"/><path fill="#6F8388" d="M-775.9 558.1c-.2-.5-.4-1-.6-1.4l-.5.2.6 1.5.5-.3z"/><path fill="#6F8388" d="M-766.8 539.2h-.1c-1.4-1.7-3.4-2.7-5.8-2.7-4.1 0-7.5 3.4-7.5 7.5s3.4 7.5 7.5 7.5 7.5-3.4 7.5-7.5c0-1.8-.6-3.4-1.6-4.6v-.2zm-5.8 10.7c-2.1 0-3.9-1.1-5-2.8.7-1 2.5-.9 3.7-1.4.1-.2.1-.5.1-.9-.3-.3-.5-.7-.6-1.2-.2-.3-.3-.6-.3-1-.1-.1.1-.2.3-.2v-1s-.1-.8.5-1.2c.6-.4 1.1-.6 1.4-.6s.9.2 1.2.5c.3.4.6.9.6 1v1.2c.2 0 .3.1.3.2-.1.4-.2.8-.4 1.1-.1.4-.3.9-.6 1.1 0 .3.1.6.1.9 1.3.5 2.9.4 3.5 1.3-.9 1.9-2.7 3-4.8 3z"/><path fill="#6F8388" d="M-777.1 553.6l-.5.1c.1.5.1 1.1.2 1.6l.5-.1c-.1-.6-.1-1.1-.2-1.6z"/><path fill="#6F8388" d="M-777 550.4l-.5-.1c-.1.5-.2 1.1-.2 1.7h.5c.1-.5.2-1 .2-1.6z"/><path fill="#6F8388" d="M-751.1 551.5l.3.1.3-.1c-.1-.5-.1-1.1-.2-1.6l-.5.1c0 .4.1 1 .1 1.5z"/><path fill="#6F8388" d="M-763.5 539.5v-.5h-.5c-.4 0-.7 0-1.1.1l.1.5c.4-.1.7-.1 1.1-.1h.4z"/><path fill="#6F8388" d="M-756.2 542.1l1.6 4 .9-1.5c.3.3.5.6.7 1l.4-.3c-.3-.4-.5-.7-.8-1.1l1.8-1.1-4.9-1.9.3.9z"/><path fill="#6F8388" d="M-751.2 554.7l.5.1c.1-.5.2-1.1.2-1.7h-.5c-.1.5-.1 1.1-.2 1.6z"/><path fill="#6F8388" d="M-752.3 547c.2.5.4 1 .6 1.4l.5-.2-.6-1.5-.5.3z"/><path fill="#6F8388" d="M-760.3 539.5c-.5-.2-1.1-.3-1.6-.4l-.1.5c.5.1 1 .2 1.5.4l.2-.5z"/><path fill="#6F8388" d="M-764.7 565.6v.5h.6c.4 0 .7 0 1.1-.1l-.1-.5c-.5.1-1 .1-1.6.1z"/><path fill="#6F8388" d="M-757.3 540.8c-.5-.3-1-.5-1.5-.7l-.2.5c.5.2 1 .4 1.4.7l.3-.5z"/><path fill="#3AAD73" d="M-755.6 553.6c-4.1 0-7.5 3.4-7.5 7.5 0 1.7.6 3.3 1.5 4.6l.1.2c.1 0 .1 0 .1-.1 1.4 1.7 3.4 2.7 5.8 2.7 4.1 0 7.5-3.4 7.5-7.5s-3.4-7.4-7.5-7.4z"/></g></g><path d="M-755.176 564.096l.985-1.773v.59h2.066c.394-.098.69-.196.887-.49-.788 1.574-.985 2.657-2.462 2.657h-.49v.788l-.986-1.772zm-2.363 1.083c-1.082-.297-1.574-1.675-2.067-2.66.197.197.59.492.887.492H-755.767v2.167h-1.772zm-2.165-3.25l.69-1.478-.69-.393h2.068l.984 1.77-.59-.393c-.197.492-.394.886-.59 1.38h-.79c-.49-.1-.885-.494-1.082-.888zm6.794.886l-.887-1.674 1.772-1.083.886 1.77c0 .395-.59.986-1.082.986h-.69zm-5.318-3.94l.886-1.476c.886-.295 1.378.394 1.772.886l-.886 1.674c0 .1-1.772-1.083-1.772-1.083zm3.544.79c-.196-.395-.393-.986-.787-1.478-.297-.394-.592-.788-.887-.886h2.363c.394.098.59.295.886.59l.295.59.493-.294-.985 1.772h-2.068l.69-.295z" fill="#fff"/></svg><svg width="40" height="40" viewBox="-390.1 268.7 32 32" enable-background="new -390.1 268.7 32 32" id="events-add" x="400"><g fill="#6f8388"><g><path d="M-381 285.8h14.4c.3 0 .5-.2.5-.5s-.2-.5-.5-.5H-381c-.3 0-.5.2-.5.5s.2.5.5.5z"/><path d="M-381 288.4h11.2c.3 0 .5-.2.5-.5s-.2-.5-.5-.5H-381c-.3 0-.5.2-.5.5s.2.5.5.5z"/><path d="M-381 291.1h14.4c.3 0 .5-.2.5-.5s-.2-.5-.5-.5H-381c-.3 0-.5.2-.5.5s.2.5.5.5z"/><path d="M-381 293.8h11.2c.3 0 .5-.2.5-.5s-.2-.5-.5-.5H-381c-.3 0-.5.2-.5.5s.2.5.5.5z"/></g><path d="M-359.7 271.4h-5.9v-1.1c0-.6-.5-1.1-1.1-1.1-.6 0-1.1.5-1.1 1.1v1.1h-12.8v-1.1c0-.6-.5-1.1-1.1-1.1-.6 0-1.1.5-1.1 1.1v1.1h-5.9c-.9 0-1.6.7-1.6 1.6v25.6c0 .9.7 1.6 1.6 1.6h22.9c.9 0 7.5-6.5 7.5-7.5l-.1-19.7c.3-.9-.4-1.6-1.3-1.6zm-8 1.8v2.4c0 .6.5 1.1 1.1 1.1.6 0 1.1-.5 1.1-1.1v-2.4c1 .4 1.6 1.3 1.6 2.4 0 1.5-1.2 2.7-2.7 2.7-1.5 0-2.7-1.2-2.7-2.7 0-1 .7-2 1.6-2.4zm-14.9 0v2.4c0 .6.5 1.1 1.1 1.1.6 0 1.1-.5 1.1-1.1v-2.4c1 .4 1.6 1.3 1.6 2.4 0 1.5-1.2 2.7-2.7 2.7-1.5 0-2.7-1.2-2.7-2.7 0-1 .6-2 1.6-2.4zm22.4 24.8h-27.7v-18.1h27.7V298z"/></g><path d="M-372.694 298.457c1.657 2.06 4.025 3.273 6.865 3.273 4.854 0 8.878-4.12 8.878-9.09s-4.024-8.97-8.877-8.97c-4.85 0-8.876 4.12-8.876 9.09 0 2.06.71 4 1.776 5.576" fill="#fff"/><g><path d="M-371.3 297.5c1.4 1.7 3.4 2.7 5.8 2.7 4.1 0 7.5-3.4 7.5-7.5s-3.4-7.4-7.5-7.4-7.5 3.4-7.5 7.5c0 1.7.6 3.3 1.5 4.6" fill="#3aad73"/><path d="M-362.1 292h-2.2v-2.2c0-.6-.4-1.1-1.1-1.1-.7 0-1.1.4-1.1 1.1v2.2h-2.2c-.6 0-1.1.4-1.1 1.1 0 .7.4 1.1 1.1 1.1h2.2v2.2c0 .6.4 1.1 1.1 1.1.7 0 1.1-.4 1.1-1.1v-2.2h2.2c.6 0 1.1-.4 1.1-1.1 0-.7-.4-1.1-1.1-1.1z" fill="#fff"/></g></svg><svg width="40" height="40" viewBox="-376 282.3 32 32" enable-background="new -376 282.3 32 32" id="events-bin" x="440"><g fill="#6f8388"><g><path d="M-366.9 299.3h14.4c.3 0 .5-.2.5-.5s-.2-.5-.5-.5h-14.4c-.3 0-.5.2-.5.5-.1.3.1.5.5.5z"/><path d="M-366.9 302h11.2c.3 0 .5-.2.5-.5s-.2-.5-.5-.5h-11.2c-.3 0-.5.2-.5.5-.1.3.1.5.5.5z"/><path d="M-366.9 304.7h14.4c.3 0 .5-.2.5-.5s-.2-.5-.5-.5h-14.4c-.3 0-.5.2-.5.5s.1.5.5.5z"/><path d="M-366.9 307.3h11.2c.3 0 .5-.2.5-.5s-.2-.5-.5-.5h-11.2c-.3 0-.5.2-.5.5s.1.5.5.5z"/></g><path d="M-345.7 285h-5.9v-1.1c0-.6-.5-1.1-1.1-1.1-.6 0-1.1.5-1.1 1.1v1.1h-12.8v-1.1c0-.6-.5-1.1-1.1-1.1-.6 0-1.1.5-1.1 1.1v1.1h-5.9c-.9 0-1.6.7-1.6 1.6v25.6c0 .9.7 1.6 1.6 1.6h22.9c.9 0 7.5-6.5 7.5-7.5l-.1-19.7c.3-.9-.3-1.6-1.3-1.6zm-7.9 1.8v2.4c0 .6.5 1.1 1.1 1.1.6 0 1.1-.5 1.1-1.1v-2.4c1 .4 1.6 1.3 1.6 2.4 0 1.5-1.2 2.7-2.7 2.7-1.5 0-2.7-1.2-2.7-2.7 0-1.1.6-2 1.6-2.4zm-14.9 0v2.4c0 .6.5 1.1 1.1 1.1.6 0 1.1-.5 1.1-1.1v-2.4c1 .4 1.6 1.3 1.6 2.4 0 1.5-1.2 2.7-2.7 2.7-1.5 0-2.7-1.2-2.7-2.7 0-1.1.6-2 1.6-2.4zm22.3 24.8h-27.7v-18.1h27.7v18.1z"/></g><path d="M-358.594 311.922c1.657 2.06 4.025 3.272 6.865 3.272 4.854 0 8.878-4.12 8.878-9.09s-4.024-8.97-8.877-8.97c-4.85 0-8.876 4.12-8.876 9.09 0 2.062.71 4 1.776 5.577" fill="#fff"/><g><path d="M-357.3 311.1c1.4 1.7 3.4 2.7 5.8 2.7 4.1 0 7.5-3.4 7.5-7.5s-3.4-7.4-7.5-7.4-7.5 3.4-7.5 7.5c0 1.7.6 3.3 1.5 4.6" fill="#ef4d4d"/><path d="M-348 302.7h-1.3v-.4c0-.2-.2-.4-.5-.4h-3.4c-.2 0-.5.2-.5.4v.4h-1.3c-.2 0-.5.2-.5.4s.2.4.5.4v6.3c0 .5.3.9.9.9h5.2c.5 0 .9-.4.9-.9v-6.3c.2 0 .5-.2.5-.4s-.3-.4-.5-.4z" fill="#fff"/><path d="M-351.5 310c.3 0 .7-.3.7-.5v-4.9c0-.3-.3-.5-.7-.5-.3 0-.7.3-.7.5v4.9c0 .2.3.5.7.5z" fill="#ef4d4d"/><path d="M-349.8 310c.3 0 .7-.3.7-.5v-4.9c0-.3-.3-.5-.7-.5-.3 0-.7.3-.7.5v4.9c0 .2.3.5.7.5z" fill="#ef4d4d"/><path d="M-353.2 310c.3 0 .7-.3.7-.5v-4.9c0-.3-.3-.5-.7-.5-.3 0-.7.3-.7.5v4.9c0 .2.4.5.7.5z" fill="#ef4d4d"/></g></svg><svg width="40" height="40" viewBox="-375.1 283.4 32 32" enable-background="new -375.1 283.4 32 32" id="events-delete" x="480"><g fill="#6f8388"><g><path d="M-366.1 300.4h14.4c.3 0 .5-.2.5-.5s-.2-.5-.5-.5h-14.4c-.3 0-.5.2-.5.5s.1.5.5.5z"/><path d="M-366.1 303.1h11.2c.3 0 .5-.2.5-.5s-.2-.5-.5-.5h-11.2c-.3 0-.5.2-.5.5s.1.5.5.5z"/><path d="M-366.1 305.8h14.4c.3 0 .5-.2.5-.5s-.2-.5-.5-.5h-14.4c-.3 0-.5.2-.5.5s.1.5.5.5z"/><path d="M-366.1 308.4h11.2c.3 0 .5-.2.5-.5s-.2-.5-.5-.5h-11.2c-.3 0-.5.2-.5.5s.1.5.5.5z"/></g><path d="M-344.8 286.1h-5.9V285c0-.6-.5-1.1-1.1-1.1-.6 0-1.1.5-1.1 1.1v1.1h-12.8V285c0-.6-.5-1.1-1.1-1.1-.6 0-1.1.5-1.1 1.1v1.1h-5.9c-.9 0-1.6.7-1.6 1.6v25.6c0 .9.7 1.6 1.6 1.6h22.9c.9 0 7.5-6.5 7.5-7.5l-.1-19.7c.3-.9-.4-1.6-1.3-1.6zm-8 1.8v2.4c0 .6.5 1.1 1.1 1.1.6 0 1.1-.5 1.1-1.1v-2.4c1 .4 1.6 1.3 1.6 2.4 0 1.5-1.2 2.7-2.7 2.7-1.5 0-2.7-1.2-2.7-2.7 0-1.1.7-2 1.6-2.4zm-14.9 0v2.4c0 .6.5 1.1 1.1 1.1.6 0 1.1-.5 1.1-1.1v-2.4c1 .4 1.6 1.3 1.6 2.4 0 1.5-1.2 2.7-2.7 2.7-1.5 0-2.7-1.2-2.7-2.7 0-1.1.6-2 1.6-2.4zm22.4 24.8H-373v-18.1h27.7v18.1z"/></g><path d="M-357.694 313.022c1.657 2.06 4.025 3.272 6.865 3.272 4.854 0 8.878-4.12 8.878-9.09s-4.024-8.97-8.877-8.97c-4.85 0-8.876 4.12-8.876 9.09 0 2.062.71 4 1.776 5.577" fill="#fff"/><g><path d="M-356.4 312.2c1.4 1.7 3.4 2.7 5.8 2.7 4.1 0 7.5-3.4 7.5-7.5s-3.4-7.4-7.5-7.4-7.5 3.4-7.5 7.5c0 1.7.6 3.3 1.5 4.6" fill="#ef4d4d"/><g fill="#fff"><path d="M-346.8 303.7c.5.5.5 1.4 0 2l-6 6c-.5.5-1.4.5-2 0-.5-.5-.5-1.4 0-2l6-6c.6-.5 1.5-.5 2 0z"/><path d="M-354.5 303.7c.5-.5 1.4-.5 2 0l6 6c.5.5.5 1.4 0 2-.5.5-1.4.5-2 0l-6-6c-.7-.6-.7-1.5 0-2z"/></g></g></svg><svg width="40" height="40" viewBox="-375.5 282.3 31 32" enable-background="new -375.5 282.3 31 32" id="events-edit" x="520"><g fill="#6f8388"><g><path d="M-366.7 299.3h13.9c.3 0 .5-.2.5-.5s-.2-.5-.5-.5h-13.9c-.3 0-.5.2-.5.5s.2.5.5.5z"/><path d="M-366.7 301.9h10.8c.3 0 .5-.2.5-.5s-.2-.5-.5-.5h-10.8c-.3 0-.5.2-.5.5s.2.5.5.5z"/><path d="M-366.7 304.5h13.9c.3 0 .5-.2.5-.5s-.2-.5-.5-.5h-13.9c-.3 0-.5.2-.5.5s.2.5.5.5z"/><path d="M-366.7 307h10.8c.3 0 .5-.2.5-.5s-.2-.5-.5-.5h-10.8c-.3 0-.5.2-.5.5s.2.5.5.5z"/></g><path d="M-346.1 285.4h-5.7v-1c0-.6-.5-1-1-1-.6 0-1 .5-1 1v1h-12.4v-1c0-.6-.5-1-1-1-.6 0-1 .5-1 1v1h-5.7c-.9 0-1.5.7-1.5 1.5v24.8c0 .9.7 1.5 1.5 1.5h22.2c.9 0 7.2-6.3 7.2-7.2l-.1-19.1c0-.8-.6-1.5-1.5-1.5zm-7.7 1.7v2.4c0 .6.5 1 1 1 .6 0 1-.5 1-1v-2.4c.9.4 1.5 1.3 1.5 2.4 0 1.4-1.1 2.6-2.6 2.6-1.4 0-2.6-1.1-2.6-2.6.1-1.1.7-1.9 1.7-2.4zm-14.5 0v2.4c0 .6.5 1 1 1 .6 0 1-.5 1-1v-2.4c.9.4 1.5 1.3 1.5 2.4 0 1.4-1.1 2.6-2.6 2.6-1.4 0-2.6-1.1-2.6-2.6.2-1.1.8-1.9 1.7-2.4zm21.7 24.1h-26.8v-17.5h26.8v17.5z"/></g><path d="M-358.594 311.922c1.657 2.06 4.025 3.272 6.865 3.272 4.854 0 8.878-4.12 8.878-9.09s-4.024-8.97-8.877-8.97c-4.85 0-8.876 4.12-8.876 9.09 0 2.062.71 4 1.776 5.577" fill="#fff"/><g><path d="M-357.3 310.7c1.3 1.6 3.3 2.6 5.6 2.6 4 0 7.2-3.2 7.2-7.2s-3.2-7.2-7.2-7.2-7.2 3.2-7.2 7.2c0 1.7.6 3.2 1.5 4.4" fill="#469fcc"/><g fill="#fff"><path d="M-348.1 303.7l-1.7-1.6c-.5-.5-1.2-.5-1.6 0l-4.7 4.7 3.3 3.3 4.7-4.7c.5-.4.5-1.2 0-1.7z"/><path d="M-356.3 307.2v3.3h3.3z"/></g></g></svg><svg width="40" height="40" viewBox="-390.1 268.7 32 32" enable-background="new -390.1 268.7 32 32" id="events-restore" x="560"><g fill="#6f8388"><g><path d="M-381 285.8h14.4c.3 0 .5-.2.5-.5s-.2-.5-.5-.5H-381c-.3 0-.5.2-.5.5s.2.5.5.5z"/><path d="M-381 288.4h11.2c.3 0 .5-.2.5-.5s-.2-.5-.5-.5H-381c-.3 0-.5.2-.5.5s.2.5.5.5z"/><path d="M-381 291.1h14.4c.3 0 .5-.2.5-.5s-.2-.5-.5-.5H-381c-.3 0-.5.2-.5.5s.2.5.5.5z"/><path d="M-381 293.8h11.2c.3 0 .5-.2.5-.5s-.2-.5-.5-.5H-381c-.3 0-.5.2-.5.5s.2.5.5.5z"/></g><path d="M-359.7 271.4h-5.9v-1.1c0-.6-.5-1.1-1.1-1.1-.6 0-1.1.5-1.1 1.1v1.1h-12.8v-1.1c0-.6-.5-1.1-1.1-1.1-.6 0-1.1.5-1.1 1.1v1.1h-5.9c-.9 0-1.6.7-1.6 1.6v25.6c0 .9.7 1.6 1.6 1.6h22.9c.9 0 7.5-6.5 7.5-7.5l-.1-19.7c.3-.9-.4-1.6-1.3-1.6zm-8 1.8v2.4c0 .6.5 1.1 1.1 1.1.6 0 1.1-.5 1.1-1.1v-2.4c1 .4 1.6 1.3 1.6 2.4 0 1.5-1.2 2.7-2.7 2.7-1.5 0-2.7-1.2-2.7-2.7 0-1 .7-2 1.6-2.4zm-14.9 0v2.4c0 .6.5 1.1 1.1 1.1.6 0 1.1-.5 1.1-1.1v-2.4c1 .4 1.6 1.3 1.6 2.4 0 1.5-1.2 2.7-2.7 2.7-1.5 0-2.7-1.2-2.7-2.7 0-1 .6-2 1.6-2.4zm22.4 24.8h-27.7v-18.1h27.7V298z"/></g><path d="M-372.694 298.322c1.657 2.06 4.025 3.272 6.865 3.272 4.854 0 8.878-4.12 8.878-9.09s-4.024-8.97-8.877-8.97c-4.85 0-8.876 4.12-8.876 9.09 0 2.062.71 4 1.776 5.577" fill="#fff"/><g><g><path d="M-371.3 297.5c1.4 1.7 3.4 2.7 5.8 2.7 4.1 0 7.5-3.4 7.5-7.5s-3.4-7.4-7.5-7.4-7.5 3.4-7.5 7.5c0 1.7.6 3.3 1.5 4.6" fill="#3aad73"/></g><path d="M-365.04 295.618l.984-1.773v.59h2.068c.394-.097.69-.196.886-.49-.788 1.574-.984 2.657-2.46 2.657h-.494v.788l-.984-1.772zm-2.363 1.083c-1.083-.295-1.576-1.673-2.068-2.658.196.197.59.492.885.492h2.954v2.167h-1.773zm-2.167-3.25l.69-1.476-.69-.393h2.068l.985 1.773-.59-.394c-.198.49-.395.885-.592 1.378h-.786c-.493-.1-.887-.493-1.084-.887zm6.794.888l-.886-1.674 1.772-1.083.887 1.773c0 .394-.59.985-1.083.985h-.69zm-5.317-3.94l.887-1.476c.886-.295 1.378.394 1.772.886l-.886 1.674c0 .1-1.773-1.083-1.773-1.083zm3.545.79c-.197-.395-.394-.986-.788-1.478-.295-.394-.59-.788-.886-.886h2.363c.395.098.592.295.887.59l.296.59.492-.294-.985 1.772h-2.067l.69-.295z" fill="#fff"/></g></svg><svg width="40" height="40" viewBox="-404 281.8 32.5 32.5" enable-background="new -404 281.8 32.5 32.5" id="file-add" x="600"><path fill="#fff" stroke="#6F8388" stroke-width=".5" stroke-miterlimit="10" d="M-387.8 307c0-5 4-9 9-9 1.1 0 2.1.2 3 .5V292l-10-10h-16c-1.1 0-2 .9-2 2v28c0 1.1.9 2 2 2h17.3c-2-1.7-3.3-4.2-3.3-7z"/><path fill="#6F8388" d="M-385.8 282v8c0 1.1.9 2 2 2h8l-10-10z"/><circle fill="#3AAD73" cx="-378.8" cy="307" r="7"/><path fill="#fff" d="M-375.8 306h-2v-2c0-.6-.4-1-1-1s-1 .4-1 1v2h-2c-.6 0-1 .4-1 1s.4 1 1 1h2v2c0 .6.4 1 1 1s1-.4 1-1v-2h2c.6 0 1-.4 1-1s-.3-1-1-1z"/></svg><svg width="40" height="40" viewBox="-404 281.8 32.5 32.5" enable-background="new -404 281.8 32.5 32.5" id="file-approve" x="640"><path fill="#fff" stroke="#6F8388" stroke-width=".5" stroke-miterlimit="10" d="M-387.8 307c0-5 4-9 9-9 1.1 0 2.1.2 3 .5V292l-10-10h-16c-1.1 0-2 .9-2 2v28c0 1.1.9 2 2 2h17.3c-2-1.7-3.3-4.2-3.3-7z"/><path fill="#6F8388" d="M-385.8 282v8c0 1.1.9 2 2 2h8l-10-10z"/><circle fill="#3AAD73" cx="-378.8" cy="307" r="7"/><g transform="matrix(.346 0 0 .358 -376.976 301.548)" fill-opacity="0"><path d="M14 26L4 16l4-4 6 6L26 6l4 4z"/></g><g transform="matrix(.357 0 0 .386 -384.73 301.107)" fill="#fff"><path d="M8 12l6 6L26 6l4 4-16 16L4 16z"/></g></svg><svg width="40" height="40" viewBox="-404.3 282 32.5 32.5" enable-background="new -404.3 282 32.5 32.5" id="file-bin" x="680"><path fill="#fff" stroke="#6F8388" stroke-width=".5" stroke-miterlimit="10" d="M-388 307.3c0-5 4-9 9-9 1.1 0 2.1.2 3 .5v-6.5l-10-10h-16c-1.1 0-2 .9-2 2v28c0 1.1.9 2 2 2h17.3c-2-1.7-3.3-4.2-3.3-7z"/><path fill="#6F8388" d="M-386 282.3v8c0 1.1.9 2 2 2h8l-10-10z"/><path fill="#EF4D4D" d="M-379 300.3c-3.9 0-7 3.1-7 7s3.1 7 7 7 7-3.1 7-7-3.1-7-7-7z"/><path fill="#fff" d="M-376 303.9h-1.1v-.4c0-.2-.2-.4-.4-.4h-3c-.2 0-.4.2-.4.4v.4h-1.1c-.2 0-.4.2-.4.4s.2.4.4.4v5.9c0 .5.3.8.8.8h4.5c.4 0 .8-.4.8-.8v-5.9c.2 0 .4-.2.4-.4s-.3-.4-.5-.4z"/><path fill="#EF4D4D" d="M-378.8 310.8c.3 0 .6-.3.6-.5v-4.6c0-.3-.3-.5-.6-.5s-.6.3-.6.5v4.6c0 .2.3.5.6.5zM-380.4 310.8c.3 0 .6-.3.6-.5v-4.6c0-.3-.3-.5-.6-.5s-.6.3-.6.5v4.6c.1.2.4.5.6.5zM-377.3 310.8c.3 0 .6-.3.6-.5v-4.6c0-.3-.3-.5-.6-.5s-.6.3-.6.5v4.6c.2.2.3.5.6.5z"/></svg><svg width="40" height="40" viewBox="-404.3 282 32.5 32.5" enable-background="new -404.3 282 32.5 32.5" id="file-delete" x="720"><path fill="#fff" stroke="#6F8388" stroke-width=".5" stroke-miterlimit="10" d="M-388 307.3c0-5 4-9 9-9 1.1 0 2.1.2 3 .5v-6.5l-10-10h-16c-1.1 0-2 .9-2 2v28c0 1.1.9 2 2 2h17.3c-2-1.7-3.3-4.2-3.3-7z"/><path fill="#6F8388" d="M-386 282.3v8c0 1.1.9 2 2 2h8l-10-10z"/><path fill="#EF4D4D" d="M-379 300.3c-3.9 0-7 3.1-7 7s3.1 7 7 7 7-3.1 7-7-3.1-7-7-7z"/><g fill="#fff"><path d="M-375.4 303.9c.5.5.5 1.3 0 1.8l-5.5 5.5c-.5.5-1.3.5-1.8 0s-.5-1.3 0-1.8l5.5-5.5c.5-.5 1.3-.5 1.8 0zM-382.6 303.9c.5-.5 1.3-.5 1.8 0l5.5 5.5c.5.5.5 1.3 0 1.8s-1.3.5-1.8 0l-5.5-5.5c-.6-.5-.6-1.3 0-1.8z"/></g></svg><svg width="40" height="40" viewBox="-398.3 282 32.5 32.5" enable-background="new -398.3 282 32.5 32.5" id="file-edit" x="760"><path fill="#fff" stroke="#6F8388" stroke-width=".5" stroke-miterlimit="10" d="M-382 307.3c0-5 4-9 9-9 1.1 0 2.1.2 3 .5v-6.5l-10-10h-16c-1.1 0-2 .9-2 2v28c0 1.1.9 2 2 2h17.3c-2-1.7-3.3-4.2-3.3-7z"/><path fill="#6F8388" d="M-380 282.3v8c0 1.1.9 2 2 2h8l-10-10z"/><path fill="#469FCC" d="M-373 300.3c-3.9 0-7 3.1-7 7s3.1 7 7 7 7-3.1 7-7-3.1-7-7-7z"/><g fill="#fff"><path d="M-369.8 305.2l-1.5-1.4c-.4-.4-1.1-.4-1.4 0l-4.1 4.1 2.9 2.9 4.1-4.1c.4-.4.4-1.1 0-1.5zM-377 311.1h2.9l-2.9-2.9z"/></g></svg><svg width="40" height="40" viewBox="-404 281.8 32.5 32.5" enable-background="new -404 281.8 32.5 32.5" id="file-reject" x="800"><path fill="#fff" stroke="#6F8388" stroke-width=".5" stroke-miterlimit="10" d="M-387.8 307c0-5 4-9 9-9 1.1 0 2.1.2 3 .5V292l-10-10h-16c-1.1 0-2 .9-2 2v28c0 1.1.9 2 2 2h17.3c-2-1.7-3.3-4.2-3.3-7z"/><path fill="#6F8388" d="M-385.8 282v8c0 1.1.9 2 2 2h8l-10-10z"/><circle fill="#ef4d4d" cx="-378.8" cy="307" r="7"/><g transform="matrix(.346 0 0 .358 -376.976 301.548)" fill-opacity="0"><path d="M14 26L4 16l4-4 6 6L26 6l4 4z"/></g><text style="line-height:125%" x="-384.452" y="315.987" font-size="32.5" letter-spacing="0" word-spacing="0" fill="#fff" font-family="Sans"><tspan x="-384.452" y="315.987">-</tspan></text></svg><svg width="40" height="40" viewBox="-404 281.8 32.5 32.5" enable-background="new -404 281.8 32.5 32.5" id="file-restore" x="840"><path fill="#fff" stroke="#6F8388" stroke-width=".5" stroke-miterlimit="10" d="M-387.8 307c0-5 4-9 9-9 1.1 0 2.1.2 3 .5V292l-10-10h-16c-1.1 0-2 .9-2 2v28c0 1.1.9 2 2 2h17.3c-2-1.7-3.3-4.2-3.3-7z"/><path fill="#6F8388" d="M-385.8 282v8c0 1.1.9 2 2 2h8l-10-10z"/><circle fill="#3AAD73" cx="-378.8" cy="307" r="7"/><path fill="#fff" d="M-378.5 310.2l1-1.8v.6h2.1c.4-.1.7-.2.9-.5-.8 1.6-1 2.7-2.5 2.7h-.5v.8l-1-1.8zm-2.4 1.1c-1.1-.3-1.6-1.7-2.1-2.7.2.2.6.5.9.5h3v2.2h-1.8zm-2.2-3.3l.7-1.5-.7-.4h2.1l1 1.8-.6-.4c-.2.5-.4.9-.6 1.4h-.8c-.5-.1-.9-.5-1.1-.9zm6.9.9l-.9-1.7 1.8-1.1.9 1.8c0 .4-.6 1-1.1 1h-.7zm-5.4-4l.9-1.5c.9-.3 1.4.4 1.8.9l-.9 1.7c0 .1-1.8-1.1-1.8-1.1zm3.6.8c-.2-.4-.4-1-.8-1.5-.3-.4-.6-.8-.9-.9h2.4c.4.1.6.3.9.6l.3.6.5-.3-1 1.8h-2.1l.7-.3z"/></svg><svg width="40" height="40" viewBox="-404 282.3 32 32" enable-background="new -404 282.3 32 32" id="folder-add" x="880"><path fill="#6F8388" d="M-374 286.3h-14v-2c0-1.1-.9-2-2-2h-12c-1.1 0-2 .9-2 2v8c0-1.1.9-2 2-2h28c1.1 0 2 .9 2 2v-4c0-1.1-.9-2-2-2z"/><path fill="#70C8E1" d="M-388 307.3c0-5 4-9 9-9 2.8 0 5.4 1.3 7 3.3v-9.3c0-1.1-.9-2-2-2h-28c-1.1 0-2 .9-2 2v20c0 1.1.9 2 2 2h17.3c-2-1.7-3.3-4.2-3.3-7z"/><path opacity=".3" enable-background="new" d="M-374 289.3h-28c-1.1 0-2 .9-2 2v1c0-1.1.9-2 2-2h28c1.1 0 2 .9 2 2v-1c0-1.1-.9-2-2-2z"/><path fill="#EAEAEA" d="M-400 288.3h24v2h-24z"/><circle fill="#3AAD73" cx="-379" cy="307.3" r="7"/><path fill="#fff" d="M-376 306.3h-2v-2c0-.6-.4-1-1-1s-1 .4-1 1v2h-2c-.6 0-1 .4-1 1s.4 1 1 1h2v2c0 .6.4 1 1 1s1-.4 1-1v-2h2c.6 0 1-.4 1-1s-.4-1-1-1z"/></svg><svg width="40" height="40" viewBox="-404 282.3 32 32" enable-background="new -404 282.3 32 32" id="folder-bin" x="920"><g><path fill="#6F8388" d="M-374 286.3h-14v-2c0-1.1-.9-2-2-2h-12c-1.1 0-2 .9-2 2v8c0-1.1.9-2 2-2h28c1.1 0 2 .9 2 2v-4c0-1.1-.9-2-2-2z"/><g><path fill="#70C8E1" d="M-388 307.3c0-5 4-9 9-9 2.8 0 5.4 1.3 7 3.3v-9.3c0-1.1-.9-2-2-2h-28c-1.1 0-2 .9-2 2v20c0 1.1.9 2 2 2h17.3c-2-1.7-3.3-4.2-3.3-7z"/></g><path opacity=".3" enable-background="new" d="M-374 289.3h-28c-1.1 0-2 .9-2 2v1c0-1.1.9-2 2-2h28c1.1 0 2 .9 2 2v-1c0-1.1-.9-2-2-2z"/><path fill="#EAEAEA" d="M-400 288.3h24v2h-24z"/><path fill="#EF4D4D" d="M-379 300.3c-3.9 0-7 3.1-7 7s3.1 7 7 7 7-3.1 7-7-3.1-7-7-7z"/><g><path d="M-375.875 304.086h-1.083v-.394c0-.196-.197-.393-.394-.393h-2.954c-.197 0-.394.196-.394.392v.394h-1.083c-.197 0-.394.197-.394.394s.197.394.394.394v5.81c0 .492.296.787.788.787h4.43c.395 0 .788-.393.788-.787v-5.81c.197 0 .394-.196.394-.393s-.295-.394-.492-.394z" fill="#fff"/><path d="M-378.632 310.88c.295 0 .59-.295.59-.492v-4.53c0-.295-.295-.492-.59-.492s-.59.296-.59.493v4.528c0 .197.295.492.59.492z" fill="#ef4d4d"/><path d="M-380.207 310.88c.295 0 .59-.295.59-.492v-4.53c0-.295-.295-.492-.59-.492-.296 0-.59.296-.59.493v4.528c.097.197.393.492.59.492z" fill="#ef4d4d"/><path d="M-377.155 310.88c.295 0 .59-.295.59-.492v-4.53c0-.295-.295-.492-.59-.492s-.59.296-.59.493v4.528c.196.197.295.492.59.492z" fill="#ef4d4d"/></g></g></svg><svg width="40" height="40" viewBox="-404 282.3 32 32" enable-background="new -404 282.3 32 32" id="folder-delete" x="960"><path fill="#6F8388" d="M-374 286.3h-14v-2c0-1.1-.9-2-2-2h-12c-1.1 0-2 .9-2 2v8c0-1.1.9-2 2-2h28c1.1 0 2 .9 2 2v-4c0-1.1-.9-2-2-2z"/><path fill="#70C8E1" d="M-388 307.3c0-5 4-9 9-9 2.8 0 5.4 1.3 7 3.3v-9.3c0-1.1-.9-2-2-2h-28c-1.1 0-2 .9-2 2v20c0 1.1.9 2 2 2h17.3c-2-1.7-3.3-4.2-3.3-7z"/><path opacity=".3" enable-background="new" d="M-374 289.3h-28c-1.1 0-2 .9-2 2v1c0-1.1.9-2 2-2h28c1.1 0 2 .9 2 2v-1c0-1.1-.9-2-2-2z"/><path fill="#EAEAEA" d="M-400 288.3h24v2h-24z"/><path fill="#EF4D4D" d="M-379 300.3c-3.9 0-7 3.1-7 7s3.1 7 7 7 7-3.1 7-7-3.1-7-7-7z"/><g fill="#fff"><path d="M-375.3 303.6c.5.5.5 1.3 0 1.8l-5.5 5.5c-.5.5-1.3.5-1.8 0s-.5-1.3 0-1.8l5.5-5.5c.4-.5 1.3-.5 1.8 0zM-382.6 303.6c.5-.5 1.3-.5 1.8 0l5.5 5.5c.5.5.5 1.3 0 1.8s-1.3.5-1.8 0l-5.5-5.5c-.6-.5-.6-1.3 0-1.8z"/></g></svg><svg width="40" height="40" viewBox="-404 282.3 32 32" enable-background="new -404 282.3 32 32" id="folder-edit" x="1000"><path fill="#6F8388" d="M-374 286.3h-14v-2c0-1.1-.9-2-2-2h-12c-1.1 0-2 .9-2 2v8c0-1.1.9-2 2-2h28c1.1 0 2 .9 2 2v-4c0-1.1-.9-2-2-2z"/><path fill="#70C8E1" d="M-388 307.3c0-5 4-9 9-9 2.8 0 5.4 1.3 7 3.3v-9.3c0-1.1-.9-2-2-2h-28c-1.1 0-2 .9-2 2v20c0 1.1.9 2 2 2h17.3c-2-1.7-3.3-4.2-3.3-7z"/><path opacity=".3" enable-background="new" d="M-374 289.3h-28c-1.1 0-2 .9-2 2v1c0-1.1.9-2 2-2h28c1.1 0 2 .9 2 2v-1c0-1.1-.9-2-2-2z"/><path fill="#EAEAEA" d="M-400 288.3h24v2h-24z"/><path fill="#469FCC" d="M-379 300.3c-3.9 0-7 3.1-7 7s3.1 7 7 7 7-3.1 7-7-3.1-7-7-7z"/><g fill="#fff"><path d="M-376.2 305.5l-1-1c-.3-.3-.8-.3-1 0l-2.8 2.8 2 2 2.8-2.8c.3-.3.3-.8 0-1zM-382 310.3h2l-2-2z"/></g></svg><svg width="40" height="40" viewBox="-404 282.3 32 32" enable-background="new -404 282.3 32 32" id="folder-restore" x="1040"><path fill="#6F8388" d="M-374 286.3h-14v-2c0-1.1-.9-2-2-2h-12c-1.1 0-2 .9-2 2v8c0-1.1.9-2 2-2h28c1.1 0 2 .9 2 2v-4c0-1.1-.9-2-2-2z"/><path fill="#70C8E1" d="M-388 307.3c0-5 4-9 9-9 2.8 0 5.4 1.3 7 3.3v-9.3c0-1.1-.9-2-2-2h-28c-1.1 0-2 .9-2 2v20c0 1.1.9 2 2 2h17.3c-2-1.7-3.3-4.2-3.3-7z"/><path opacity=".3" enable-background="new" d="M-374 289.3h-28c-1.1 0-2 .9-2 2v1c0-1.1.9-2 2-2h28c1.1 0 2 .9 2 2v-1c0-1.1-.9-2-2-2z"/><path fill="#EAEAEA" d="M-400 288.3h24v2h-24z"/><circle fill="#3AAD73" cx="-379" cy="307.3" r="7"/><path fill="#fff" d="M-378.8 309.8l1-1.8v.6h2.1c.4-.1.7-.2.9-.5-.8 1.6-1 2.7-2.5 2.7h-.5v.8l-1-1.8zm-2.3 1.1c-1.1-.3-1.6-1.7-2.1-2.7.2.2.6.5.9.5h3v2.2h-1.8zm-2.2-3.3l.7-1.5-.7-.4h2.1l1 1.8-.6-.4c-.2.5-.4.9-.6 1.4h-.8c-.6-.1-.9-.5-1.1-.9zm6.8.9l-.9-1.7 1.8-1.1.9 1.8c0 .4-.6 1-1.1 1h-.7zm-5.3-4l.9-1.5c.9-.3 1.4.4 1.8.9l-.9 1.7c0 .1-1.8-1.1-1.8-1.1zm3.5.8c-.2-.4-.4-1-.8-1.5-.3-.4-.6-.8-.9-.9h2.4c.4.1.6.3.9.6l.3.6.5-.3-1 1.8h-2.1l.7-.3z"/></svg><svg enable-background="new 0 0 32 32" height="40" viewBox="0 0 40 40" width="40" id="group-add" x="1080"><g transform="matrix(1.108 0 0 1.141 2.231 2.073)" fill="#6f8388"><g><path d="M8 20V10s.005-.45.24-1H4s-2 0-2 2v7c0 2 2 2 2 2v10h6v-8s-2 0-2-2zM8 8c.52 0 1-.144 1.427-.376.06-.036.125-.068.188-.103C10.445 6.99 11 6.06 11 5c0-1.657-1.343-3-3-3S5 3.343 5 5s1.343 3 3 3zm20 1h-4.238c.233.55.238 1 .238 1v10c0 2-2 2-2 2v8h6V20s2 0 2-2v-7s0-2-2-2zm-5.62-1.48c.065.034.134.067.194.104C23 7.856 23.48 8 24 8c1.657 0 3-1.343 3-3s-1.343-3-3-3-3 1.343-3 3c0 1.06.552 1.985 1.38 2.52zM16 8c1.657 0 3-1.343 3-3s-1.343-3-3-3-3 1.343-3 3 1.343 3 3 3zm6 3s0-2-2-2h-8s-2 0-2 2v7c0 2 2 2 2 2v10h8V20s2 0 2-2v-7z"/></g></g><path d="M20.69 36.07c2.057 2.414 4.996 3.834 8.523 3.834 6.025 0 11.022-4.83 11.022-10.654s-4.997-10.51-11.022-10.51-11.02 4.828-11.02 10.652c0 2.415.88 4.688 2.203 6.535" fill="#fff"/><g transform="translate(0 8)"><path fill="none" d="M0 0h32v32H0z"/></g><path d="M21.986 35.494c1.75 2.125 4.25 3.375 7.25 3.375 5.125 0 9.375-4.25 9.375-9.376 0-5.125-4.25-9.25-9.374-9.25-5.125 0-9.375 4.25-9.375 9.375 0 2.124.75 4.124 1.876 5.75" fill="#3aad73"/><path d="M33.36 28.62h-2.75v-2.75c0-.75-.5-1.376-1.374-1.376-.875 0-1.375.5-1.375 1.375v2.75h-2.75c-.75 0-1.374.5-1.374 1.374 0 .875.5 1.375 1.375 1.375h2.75v2.75c0 .75.5 1.374 1.376 1.374.875 0 1.375-.5 1.375-1.375v-2.75h2.75c.75 0 1.376-.5 1.376-1.376 0-.875-.375-1.375-1.375-1.375z" fill="#fff"/></svg><svg enable-background="new 0 0 32 32" height="40" viewBox="0 0 40 40" width="40" id="group-bin" x="1120"><g transform="matrix(1.108 0 0 1.141 2.231 2.073)" fill="#6f8388"><g><path d="M8 20V10s.005-.45.24-1H4s-2 0-2 2v7c0 2 2 2 2 2v10h6v-8s-2 0-2-2zM8 8c.52 0 1-.144 1.427-.376.06-.036.125-.068.188-.103C10.445 6.99 11 6.06 11 5c0-1.657-1.343-3-3-3S5 3.343 5 5s1.343 3 3 3zm20 1h-4.238c.233.55.238 1 .238 1v10c0 2-2 2-2 2v8h6V20s2 0 2-2v-7s0-2-2-2zm-5.62-1.48c.065.034.134.067.194.104C23 7.856 23.48 8 24 8c1.657 0 3-1.343 3-3s-1.343-3-3-3-3 1.343-3 3c0 1.06.552 1.985 1.38 2.52zM16 8c1.657 0 3-1.343 3-3s-1.343-3-3-3-3 1.343-3 3 1.343 3 3 3zm6 3s0-2-2-2h-8s-2 0-2 2v7c0 2 2 2 2 2v10h8V20s2 0 2-2v-7z"/></g></g><path d="M20.69 36.07c2.057 2.414 4.996 3.834 8.523 3.834 6.025 0 11.022-4.83 11.022-10.654s-4.997-10.51-11.022-10.51-11.02 4.828-11.02 10.652c0 2.415.88 4.688 2.203 6.535" fill="#fff"/><g transform="translate(0 8)"><path fill="none" d="M0 0h32v32H0z"/></g><path d="M21.986 23.62c1.75-2.126 4.25-3.376 7.25-3.376 5.125 0 9.375 4.25 9.375 9.375 0 5.124-4.25 9.25-9.374 9.25-5.125 0-9.375-4.25-9.375-9.376 0-2.125.75-4.125 1.876-5.75" fill="#ef4d4d"/><path d="M33.502 25.055h-1.625v-.5c0-.25-.25-.5-.625-.5h-4.25c-.25 0-.625.25-.625.5v.5h-1.625c-.25 0-.625.25-.625.5s.25.5.625.5v7.875c0 .625.375 1.125 1.125 1.125h6.5c.625 0 1.125-.5 1.125-1.125v-7.875c.25 0 .625-.25.625-.5.125-.25-.25-.5-.625-.5z" fill="#fff"/><path d="M29.252 34.18c.375 0 .875-.375.875-.625V27.43c0-.375-.375-.625-.875-.625-.375 0-.875.375-.875.625v6.125c0 .25.375.625.875.625z" fill="#ef4d4d"/><path d="M31.377 34.18c.375 0 .875-.375.875-.625V27.43c0-.375-.375-.625-.875-.625-.375 0-.875.375-.875.625v6.125c0 .25.5.625.875.625z" fill="#ef4d4d"/><path d="M27.127 34.305c.375 0 .875-.375.875-.625v-6.125c0-.375-.375-.625-.875-.625-.375 0-.875.375-.875.625v6.125c0 .25.5.625.875.625z" fill="#ef4d4d"/></svg><svg enable-background="new 0 0 32 32" height="40" viewBox="0 0 40 40" width="40" id="group-delete" x="1160"><g transform="matrix(1.108 0 0 1.141 2.231 2.073)" fill="#6f8388"><g><path d="M8 20V10s.005-.45.24-1H4s-2 0-2 2v7c0 2 2 2 2 2v10h6v-8s-2 0-2-2zM8 8c.52 0 1-.144 1.427-.376.06-.036.125-.068.188-.103C10.445 6.99 11 6.06 11 5c0-1.657-1.343-3-3-3S5 3.343 5 5s1.343 3 3 3zm20 1h-4.238c.233.55.238 1 .238 1v10c0 2-2 2-2 2v8h6V20s2 0 2-2v-7s0-2-2-2zm-5.62-1.48c.065.034.134.067.194.104C23 7.856 23.48 8 24 8c1.657 0 3-1.343 3-3s-1.343-3-3-3-3 1.343-3 3c0 1.06.552 1.985 1.38 2.52zM16 8c1.657 0 3-1.343 3-3s-1.343-3-3-3-3 1.343-3 3 1.343 3 3 3zm6 3s0-2-2-2h-8s-2 0-2 2v7c0 2 2 2 2 2v10h8V20s2 0 2-2v-7z"/></g></g><path d="M20.69 36.07c2.057 2.414 4.996 3.834 8.523 3.834 6.025 0 11.022-4.83 11.022-10.654s-4.997-10.51-11.022-10.51-11.02 4.828-11.02 10.652c0 2.415.88 4.688 2.203 6.535" fill="#fff"/><g transform="translate(0 8)"><path fill="none" d="M0 0h32v32H0z"/></g><path d="M21.986 35.494c1.75 2.125 4.25 3.375 7.25 3.375 5.125 0 9.375-4.25 9.375-9.376 0-5.125-4.25-9.25-9.374-9.25-5.125 0-9.375 4.25-9.375 9.375 0 2.124.75 4.124 1.876 5.75" fill="#ef4d4d"/><g transform="matrix(1.25 0 0 1.25 968.848 -670.792)" fill="#fff"><path d="M-747.8 556.3c.5.5.5 1.4 0 2l-6 6c-.5.5-1.4.5-2 0-.5-.5-.5-1.4 0-2l6-6c.7-.5 1.5-.5 2 0z"/><path d="M-755.5 556.3c.5-.5 1.4-.5 2 0l6 6c.5.5.5 1.4 0 2-.5.5-1.4.5-2 0l-6-6c-.8-.6-.8-1.4 0-2z"/></g></svg><svg enable-background="new 0 0 32 32" height="40" viewBox="0 0 40 40" width="40" id="group-edit" x="1200"><g transform="matrix(1.108 0 0 1.141 2.231 2.073)" fill="#6f8388"><g><path d="M8 20V10s.005-.45.24-1H4s-2 0-2 2v7c0 2 2 2 2 2v10h6v-8s-2 0-2-2zM8 8c.52 0 1-.144 1.427-.376.06-.036.125-.068.188-.103C10.445 6.99 11 6.06 11 5c0-1.657-1.343-3-3-3S5 3.343 5 5s1.343 3 3 3zm20 1h-4.238c.233.55.238 1 .238 1v10c0 2-2 2-2 2v8h6V20s2 0 2-2v-7s0-2-2-2zm-5.62-1.48c.065.034.134.067.194.104C23 7.856 23.48 8 24 8c1.657 0 3-1.343 3-3s-1.343-3-3-3-3 1.343-3 3c0 1.06.552 1.985 1.38 2.52zM16 8c1.657 0 3-1.343 3-3s-1.343-3-3-3-3 1.343-3 3 1.343 3 3 3zm6 3s0-2-2-2h-8s-2 0-2 2v7c0 2 2 2 2 2v10h8V20s2 0 2-2v-7z"/></g></g><path d="M20.69 36.07c2.057 2.414 4.996 3.834 8.523 3.834 6.025 0 11.022-4.83 11.022-10.654s-4.997-10.51-11.022-10.51-11.02 4.828-11.02 10.652c0 2.415.88 4.688 2.203 6.535" fill="#fff"/><g transform="translate(0 8)"><path fill="none" d="M0 0h32v32H0z"/></g><path d="M21.986 35.494c1.75 2.125 4.25 3.375 7.25 3.375 5.125 0 9.375-4.25 9.375-9.376 0-5.125-4.25-9.25-9.374-9.25-5.125 0-9.375 4.25-9.375 9.375 0 2.124.75 4.124 1.876 5.75" fill="#469fcc"/><g transform="matrix(1.25 0 0 1.25 503.277 -354.271)" fill="#fff"><path d="M-376.2 305.5l-1-1c-.3-.3-.8-.3-1 0l-2.8 2.8 2 2 2.8-2.8c.3-.3.3-.8 0-1z"/><path d="M-382 310.3h2l-2-2z"/></g></svg><svg enable-background="new 0 0 32 32" height="40" viewBox="0 0 40 40" width="40" id="group-restore" x="1240"><g transform="matrix(1.108 0 0 1.141 2.231 2.073)" fill="#6f8388"><g><path d="M8 20V10s.005-.45.24-1H4s-2 0-2 2v7c0 2 2 2 2 2v10h6v-8s-2 0-2-2zM8 8c.52 0 1-.144 1.427-.376.06-.036.125-.068.188-.103C10.445 6.99 11 6.06 11 5c0-1.657-1.343-3-3-3S5 3.343 5 5s1.343 3 3 3zm20 1h-4.238c.233.55.238 1 .238 1v10c0 2-2 2-2 2v8h6V20s2 0 2-2v-7s0-2-2-2zm-5.62-1.48c.065.034.134.067.194.104C23 7.856 23.48 8 24 8c1.657 0 3-1.343 3-3s-1.343-3-3-3-3 1.343-3 3c0 1.06.552 1.985 1.38 2.52zM16 8c1.657 0 3-1.343 3-3s-1.343-3-3-3-3 1.343-3 3 1.343 3 3 3zm6 3s0-2-2-2h-8s-2 0-2 2v7c0 2 2 2 2 2v10h8V20s2 0 2-2v-7z"/></g></g><path d="M20.69 36.07c2.057 2.414 4.996 3.834 8.523 3.834 6.025 0 11.022-4.83 11.022-10.654s-4.997-10.51-11.022-10.51-11.02 4.828-11.02 10.652c0 2.415.88 4.688 2.203 6.535" fill="#fff"/><g transform="translate(0 8)"><path fill="none" d="M0 0h32v32H0z"/></g><path d="M21.986 23.62c1.75-2.126 4.25-3.376 7.25-3.376 5.125 0 9.375 4.25 9.375 9.375 0 5.124-4.25 9.25-9.374 9.25-5.125 0-9.375-4.25-9.375-9.376 0-2.125.75-4.125 1.876-5.75" fill="#3aad73"/><path d="M29.514 32.76l1.23-2.215v.738h2.585c.49-.123.86-.246 1.107-.615-.985 1.97-1.23 3.323-3.077 3.323h-.616v.985l-1.23-2.215zm-2.954 1.354c-1.354-.37-1.97-2.092-2.585-3.323.246.247.74.616 1.108.616h3.691v2.708H26.56zm-2.708-4.062l.862-1.846-.862-.492h2.585l1.23 2.215-.738-.493c-.247.615-.493 1.108-.74 1.723h-.984c-.616-.123-1.108-.615-1.354-1.108zm8.492 1.108l-1.107-2.092 2.215-1.354 1.108 2.215c0 .492-.74 1.23-1.354 1.23h-.862zm-6.646-4.923l1.108-1.846c1.108-.368 1.723.493 2.215 1.11l-1.106 2.09c0 .124-2.216-1.353-2.216-1.353zm4.43.985c-.245-.493-.49-1.23-.984-1.847-.37-.492-.738-.984-1.107-1.107h2.953c.493.123.74.37 1.108.738l.37.74.615-.37-1.23 2.215h-2.586l.862-.368z" fill="#fff"/></svg><svg width="40" height="40" viewBox="-793.5 548.4 32 32" enable-background="new -793.5 548.4 32 32" id="member-add" x="1280"><path fill="#6F8388" d="M-777.5 548.4c-8 0-14.6 6.5-14.6 14.6s6.5 14.6 14.6 14.6S-763 571-763 563s-6.5-14.6-14.5-14.6zm0 26.6c-4.2 0-8-2.1-10.1-5.5 1.1-2.7 5-2.2 7.7-3.5.1-.4.2-1.1.2-1.6-.5-.6-.9-1.4-1.2-2.3-.3-.5-.5-1.3-.6-2-.1-.3.1-.4.4-.3V558s-.1-1.6 1.1-2.4c1.2-.8 2.1-1.2 2.9-1.2s1.7.3 2.4 1 1.2 1.6 1.2 2.1v2.4c.4 0 .6.1.5.4-.2.8-.4 1.5-.8 2.1-.3.9-.6 1.6-1.1 2.2 0 .5.1 1.2.2 1.6 2.7 1.2 6.3.8 7.3 3.3-2.1 3.3-5.8 5.5-10.1 5.5z"/><circle fill="#3AAD73" cx="-769.8" cy="574.1" r="6.3"/><path fill="#fff" d="M-767.1 573.2h-1.8v-1.8c0-.5-.4-.9-.9-.9s-.9.4-.9.9v1.8h-1.8c-.5 0-.9.4-.9.9s.4.9.9.9h1.8v1.8c0 .5.4.9.9.9s.9-.4.9-.9V575h1.8c.5 0 .9-.4.9-.9s-.3-.9-.9-.9z"/></svg><svg width="40" height="40" viewBox="-803.7 560.7 32 32" enable-background="new -803.7 560.7 32 32" id="member-edit" x="1320"><path fill="#6F8388" d="M-787.7 560.7c-8 0-14.6 6.5-14.6 14.6s6.5 14.6 14.6 14.6 14.6-6.5 14.6-14.6-6.6-14.6-14.6-14.6zm0 26.6c-4.2 0-8-2.1-10.1-5.5 1.1-2.7 5-2.2 7.7-3.5.1-.4.2-1.1.2-1.6-.5-.6-.9-1.4-1.2-2.3-.3-.5-.5-1.3-.6-2-.1-.3.1-.4.4-.3v-2s-.1-1.6 1.1-2.4c1.2-.8 2.1-1.2 2.9-1.2s1.7.3 2.4 1 1.2 1.6 1.2 2.1v2.4c.4 0 .6.1.5.4-.2.8-.4 1.5-.8 2.1-.3.9-.6 1.6-1.1 2.2 0 .5.1 1.2.2 1.6 2.7 1.2 6.3.8 7.3 3.3-2.1 3.5-5.8 5.7-10.1 5.7z"/><path fill="#469FCC" d="M-780 580.2c-3.5 0-6.3 2.8-6.3 6.3s2.8 6.3 6.3 6.3 6.3-2.8 6.3-6.3-2.8-6.3-6.3-6.3z"/><g fill="#fff"><path d="M-777 584.5l-1.3-1.3c-.4-.4-1-.4-1.3 0l-3.7 3.7 2.6 2.6 3.7-3.7c.4-.3.4-.9 0-1.3zM-783.5 589.8h2.6l-2.6-2.6z"/></g></svg><svg width="40" height="40" viewBox="-802.3 560.7 29.1 32" enable-background="new -802.3 560.7 29.1 32" id="member-remove" x="1360"><path fill="#6F8388" d="M-787.7 560.7c-8 0-14.6 6.5-14.6 14.6s6.5 14.6 14.6 14.6 14.6-6.5 14.6-14.6-6.6-14.6-14.6-14.6zm0 26.6c-4.2 0-8-2.1-10.1-5.5 1.1-2.7 5-2.2 7.7-3.5.1-.4.2-1.1.2-1.6-.5-.6-.9-1.4-1.2-2.3-.3-.5-.5-1.3-.6-2-.1-.3.1-.4.4-.3v-2s-.1-1.6 1.1-2.4c1.2-.8 2.1-1.2 2.9-1.2.7 0 1.7.3 2.4 1s1.2 1.6 1.2 2.1v2.4c.4 0 .6.1.5.4-.2.8-.4 1.5-.8 2.1-.3.9-.6 1.6-1.1 2.2 0 .5.1 1.2.2 1.6 2.7 1.2 6.3.8 7.3 3.3-2.1 3.5-5.8 5.7-10.1 5.7z"/><path fill="#EF4D4D" d="M-780 580.2c-3.5 0-6.3 2.8-6.3 6.3s2.8 6.3 6.3 6.3 6.3-2.8 6.3-6.3-2.8-6.3-6.3-6.3z"/><g fill="#fff"><path d="M-776.6 583.4c.4.4.4 1.2 0 1.6l-4.9 4.9c-.4.4-1.2.4-1.6 0-.4-.4-.4-1.2 0-1.6l4.9-4.9c.3-.5 1.1-.5 1.6 0zM-783.2 583.4c.4-.4 1.2-.4 1.6 0l4.9 4.9c.4.4.4 1.2 0 1.6-.4.4-1.2.4-1.6 0l-4.9-4.9c-.5-.5-.5-1.2 0-1.6z"/></g></svg><svg width="40" height="40" viewBox="-803.7 560.7 32 32" enable-background="new -803.7 560.7 32 32" id="member-restore" x="1400"><path fill="#6F8388" d="M-787.7 560.7c-8 0-14.6 6.5-14.6 14.6s6.5 14.6 14.6 14.6 14.6-6.5 14.6-14.6-6.6-14.6-14.6-14.6zm0 26.6c-4.2 0-8-2.1-10.1-5.5 1.1-2.7 5-2.2 7.7-3.5.1-.4.2-1.1.2-1.6-.5-.6-.9-1.4-1.2-2.3-.3-.5-.5-1.3-.6-2-.1-.3.1-.4.4-.3v-2s-.1-1.6 1.1-2.4c1.2-.8 2.1-1.2 2.9-1.2s1.7.3 2.4 1 1.2 1.6 1.2 2.1v2.4c.4 0 .6.1.5.4-.2.8-.4 1.5-.8 2.1-.3.9-.6 1.6-1.1 2.2 0 .5.1 1.2.2 1.6 2.7 1.2 6.3.8 7.3 3.3-2.1 3.5-5.8 5.7-10.1 5.7z"/><circle fill="#3AAD73" cx="-780" cy="586.4" r="6.3"/><path fill="#fff" d="M-779.7 589.1l.9-1.6v.5h1.9c.4-.1.6-.2.8-.4-.7 1.4-.9 2.4-2.2 2.4h-.4v.7l-1-1.6zm-2.2 1c-1-.3-1.4-1.5-1.9-2.4.2.2.5.4.8.4h2.6v2h-1.5zm-2-3l.6-1.3-.6-.4h1.9l.9 1.6-.5-.4c-.2.4-.4.8-.5 1.3h-.7c-.5 0-.9-.4-1.1-.8zm6.2.8l-.8-1.5 1.6-1 .8 1.6c0 .4-.5.9-1 .9h-.6zm-4.8-3.5l.8-1.3c.8-.3 1.3.4 1.6.8l-.8 1.5c.1 0-1.6-1-1.6-1zm3.3.7c-.2-.4-.4-.9-.7-1.3-.3-.4-.5-.7-.8-.8h2.1c.4.1.5.3.8.5l.3.5.4-.3-.9 1.6h-1.9l.7-.2z"/></svg><svg width="40" height="40" viewBox="-376.3 282 32.5 32.5" enable-background="new -376.3 282 32.5 32.5" id="note-add" x="1440"><path fill="#fff" stroke="#6F8388" stroke-width=".5" stroke-miterlimit="10" d="M-360 307.3c0-5 4-9 9-9 1.1 0 2.1.2 3 .5v-6.5l-10-10h-16c-1.1 0-2 .9-2 2v28c0 1.1.9 2 2 2h17.3c-2-1.7-3.3-4.2-3.3-7z"/><path fill="#fff" stroke="#6F8388" stroke-width=".5" stroke-linecap="square" stroke-linejoin="round" stroke-miterlimit="10" d="M-358 282.3v8c0 1.1.9 2 2 2h8l-10-10z"/><circle fill="#3AAD73" cx="-351" cy="307.3" r="7"/><path fill="#fff" d="M-348 306.3h-2v-2c0-.6-.4-1-1-1s-1 .4-1 1v2h-2c-.6 0-1 .4-1 1s.4 1 1 1h2v2c0 .6.4 1 1 1s1-.4 1-1v-2h2c.6 0 1-.4 1-1s-.4-1-1-1z"/><g fill="#6F8388"><path d="M-374.6 295c0 .3.2.5.5.5h12.4c.3 0 .5-.2.5-.5s-.2-.5-.5-.5h-12.4c-.3.1-.5.3-.5.5zM-374.2 297.8h9.6c.3 0 .5-.2.5-.5s-.2-.5-.5-.5h-9.6c-.3 0-.5.2-.5.5.1.3.3.5.5.5zM-374.6 292.7c0 .3.2.5.5.5h9.6c.3 0 .5-.2.5-.5s-.2-.5-.5-.5h-9.6c-.3.1-.5.3-.5.5zM-361.8 299.2h-12.4c-.3 0-.5.2-.5.5s.2.5.5.5h12.4c.3 0 .5-.2.5-.5s-.2-.5-.5-.5zM-361.8 303.8h-12.4c-.3 0-.5.2-.5.5s.2.5.5.5h12.4c.3 0 .5-.2.5-.5s-.2-.5-.5-.5zM-374.2 302.4h9.6c.3 0 .5-.2.5-.5s-.2-.5-.5-.5h-9.6c-.3 0-.5.2-.5.5.1.3.3.5.5.5z"/></g></svg><svg width="40" height="40" viewBox="-809.8 563.8 32 32" enable-background="new -809.8 563.8 32 32" id="note-bin" x="1480"><path fill="#fff" stroke="#6F8388" stroke-width=".5" stroke-miterlimit="10" d="M-793.6 588.6c0-4.9 3.9-8.9 8.9-8.9 1.1 0 2.1.2 3 .5v-6.4l-9.8-9.8h-15.8c-1.1 0-2 .9-2 2v27.6c0 1.1.9 2 2 2h17c-2-1.7-3.3-4.2-3.3-7z"/><path fill="#6F8388" d="M-791.7 564v7.9c0 1.1.9 2 2 2h7.9l-9.9-9.9z"/><path fill="#EF4D4D" d="M-784.8 581.7c-3.8 0-6.9 3.1-6.9 6.9s3.1 6.9 6.9 6.9 6.9-3.1 6.9-6.9-3-6.9-6.9-6.9z"/><g fill="#6F8388"><path d="M-807.5 577.8c0 .3.2.5.5.5h12.2c.3 0 .5-.2.5-.5s-.2-.5-.5-.5H-807c-.2.1-.5.3-.5.5z"/><path d="M-807.1 580.6h9.5c.3 0 .5-.2.5-.5s-.2-.5-.5-.5h-9.5c-.3 0-.5.2-.5.5.1.3.4.5.5.5z"/><path d="M-807.5 575.5c0 .3.2.5.5.5h9.5c.3 0 .5-.2.5-.5s-.2-.5-.5-.5h-9.5c-.2.2-.5.4-.5.5z"/><path d="M-794.8 581.9H-807c-.3 0-.5.2-.5.5s.2.5.5.5h12.2c.3 0 .5-.2.5-.5s-.3-.5-.5-.5z"/><path d="M-794.8 586.5H-807c-.3 0-.5.2-.5.5s.2.5.5.5h12.2c.3 0 .5-.2.5-.5s-.3-.5-.5-.5z"/><path d="M-807.1 585.1h9.5c.3 0 .5-.2.5-.5s-.2-.5-.5-.5h-9.5c-.3 0-.5.2-.5.5.1.3.4.5.5.5z"/></g><path d="M-781.36 584.742h-1.3v-.4c0-.2-.2-.4-.5-.4h-3.4c-.2 0-.5.2-.5.4v.4h-1.3c-.2 0-.5.2-.5.4s.2.4.5.4v6.3c0 .5.3.9.9.9h5.2c.5 0 .9-.4.9-.9v-6.3c.2 0 .5-.2.5-.4.1-.2-.2-.4-.5-.4z" fill="#fff"/><path d="M-784.76 592.042c.3 0 .7-.3.7-.5v-4.9c0-.3-.3-.5-.7-.5-.3 0-.7.3-.7.5v4.9c0 .2.3.5.7.5z" fill="#ef4d4d"/><path d="M-783.06 592.042c.3 0 .7-.3.7-.5v-4.9c0-.3-.3-.5-.7-.5-.3 0-.7.3-.7.5v4.9c0 .2.4.5.7.5z" fill="#ef4d4d"/><path d="M-786.46 592.142c.3 0 .7-.3.7-.5v-4.9c0-.3-.3-.5-.7-.5-.3 0-.7.3-.7.5v4.9c0 .2.4.5.7.5z" fill="#ef4d4d"/></svg><svg width="40" height="40" viewBox="-404 281.8 32.5 32.5" enable-background="new -404 281.8 32.5 32.5" id="note-edit" x="1520"><path fill="#fff" stroke="#6F8388" stroke-width=".5" stroke-miterlimit="10" d="M-387.8 307c0-5 4-9 9-9 1.1 0 2.1.2 3 .5V292l-10-10h-16c-1.1 0-2 .9-2 2v28c0 1.1.9 2 2 2h17.3c-2-1.7-3.3-4.2-3.3-7z"/><path fill="#fff" stroke="#6F8388" stroke-width=".5" stroke-linejoin="round" stroke-miterlimit="10" d="M-385.8 282v8c0 1.1.9 2 2 2h8l-10-10z"/><path fill="#469FCC" d="M-378.8 300c-3.9 0-7 3.1-7 7s3.1 7 7 7 7-3.1 7-7-3.1-7-7-7z"/><g fill="#fff"><path d="M-375.5 304.9l-1.5-1.4c-.4-.4-1.1-.4-1.4 0l-4.1 4.1 2.9 2.9 4.1-4.1c.4-.4.4-1.1 0-1.5zM-382.8 310.8h2.9l-2.9-2.9z"/></g><g fill="#6F8388"><path d="M-401.9 296.1c0 .3.2.5.5.5h12.4c.3 0 .5-.2.5-.5s-.2-.5-.5-.5h-12.4c-.2.1-.5.3-.5.5zM-401.5 298.9h9.6c.3 0 .5-.2.5-.5s-.2-.5-.5-.5h-9.6c-.3 0-.5.2-.5.5.1.3.4.5.5.5zM-401.9 293.8c0 .3.2.5.5.5h9.6c.3 0 .5-.2.5-.5s-.2-.5-.5-.5h-9.6c-.2.1-.5.3-.5.5zM-389 300.3h-12.4c-.3 0-.5.2-.5.5s.2.5.5.5h12.4c.3 0 .5-.2.5-.5s-.3-.5-.5-.5zM-389 304.9h-12.4c-.3 0-.5.2-.5.5s.2.5.5.5h12.4c.3 0 .5-.2.5-.5s-.3-.5-.5-.5zM-401.5 303.5h9.6c.3 0 .5-.2.5-.5s-.2-.5-.5-.5h-9.6c-.3 0-.5.2-.5.5.1.3.4.5.5.5z"/></g></svg><svg width="40" height="40" viewBox="-809.8 563.8 32 32" enable-background="new -809.8 563.8 32 32" id="note-remove" x="1560"><path fill="#fff" stroke="#6F8388" stroke-width=".5" stroke-miterlimit="10" d="M-793.6 588.6c0-4.9 3.9-8.9 8.9-8.9 1.1 0 2.1.2 3 .5v-6.4l-9.8-9.8h-15.8c-1.1 0-2 .9-2 2v27.6c0 1.1.9 2 2 2h17c-2-1.7-3.3-4.2-3.3-7z"/><path fill="#6F8388" d="M-791.7 564v7.9c0 1.1.9 2 2 2h7.9l-9.9-9.9z"/><path fill="#EF4D4D" d="M-784.8 581.7c-3.8 0-6.9 3.1-6.9 6.9s3.1 6.9 6.9 6.9 6.9-3.1 6.9-6.9-3-6.9-6.9-6.9z"/><g fill="#fff"><path d="M-781.1 585.3c.5.5.5 1.3 0 1.8l-5.4 5.4c-.5.5-1.3.5-1.8 0s-.5-1.3 0-1.8l5.4-5.4c.4-.5 1.3-.5 1.8 0zM-788.3 585.3c.5-.5 1.3-.5 1.8 0l5.4 5.4c.5.5.5 1.3 0 1.8s-1.3.5-1.8 0l-5.4-5.4c-.6-.5-.6-1.3 0-1.8z"/></g><g fill="#6F8388"><path d="M-807.5 577.8c0 .3.2.5.5.5h12.2c.3 0 .5-.2.5-.5s-.2-.5-.5-.5H-807c-.2.1-.5.3-.5.5zM-807.1 580.6h9.5c.3 0 .5-.2.5-.5s-.2-.5-.5-.5h-9.5c-.3 0-.5.2-.5.5.1.3.4.5.5.5zM-807.5 575.5c0 .3.2.5.5.5h9.5c.3 0 .5-.2.5-.5s-.2-.5-.5-.5h-9.5c-.2.2-.5.4-.5.5zM-794.8 581.9H-807c-.3 0-.5.2-.5.5s.2.5.5.5h12.2c.3 0 .5-.2.5-.5s-.3-.5-.5-.5zM-794.8 586.5H-807c-.3 0-.5.2-.5.5s.2.5.5.5h12.2c.3 0 .5-.2.5-.5s-.3-.5-.5-.5zM-807.1 585.1h9.5c.3 0 .5-.2.5-.5s-.2-.5-.5-.5h-9.5c-.3 0-.5.2-.5.5.1.3.4.5.5.5z"/></g></svg><svg width="40" height="40" viewBox="-404 281.8 32.5 32.5" enable-background="new -404 281.8 32.5 32.5" id="note-restore" x="1600"><path fill="#fff" stroke="#6F8388" stroke-width=".5" stroke-miterlimit="10" d="M-387.8 307c0-5 4-9 9-9 1.1 0 2.1.2 3 .5V292l-10-10h-16c-1.1 0-2 .9-2 2v28c0 1.1.9 2 2 2h17.3c-2-1.7-3.3-4.2-3.3-7z"/><path fill="#fff" stroke="#6F8388" stroke-width=".5" stroke-linecap="square" stroke-linejoin="round" stroke-miterlimit="10" d="M-385.8 282v8c0 1.1.9 2 2 2h8l-10-10z"/><circle fill="#3AAD73" cx="-378.8" cy="307" r="7"/><g fill="#6F8388"><path d="M-402.4 294.7c0 .3.2.5.5.5h12.4c.3 0 .5-.2.5-.5s-.2-.5-.5-.5h-12.4c-.2.1-.5.3-.5.5zM-402 297.5h9.6c.3 0 .5-.2.5-.5s-.2-.5-.5-.5h-9.6c-.3 0-.5.2-.5.5.1.3.4.5.5.5zM-402.4 292.4c0 .3.2.5.5.5h9.6c.3 0 .5-.2.5-.5s-.2-.5-.5-.5h-9.6c-.2.1-.5.3-.5.5zM-389.5 298.9h-12.4c-.3 0-.5.2-.5.5s.2.5.5.5h12.4c.3 0 .5-.2.5-.5s-.3-.5-.5-.5zM-389.5 303.5h-12.4c-.3 0-.5.2-.5.5s.2.5.5.5h12.4c.3 0 .5-.2.5-.5s-.3-.5-.5-.5zM-402 302.1h9.6c.3 0 .5-.2.5-.5s-.2-.5-.5-.5h-9.6c-.3 0-.5.2-.5.5.1.3.4.5.5.5z"/></g><path fill="#fff" d="M-378.5 309.8l1-1.8v.6h2.1c.4-.1.7-.2.9-.5-.8 1.6-1 2.7-2.5 2.7h-.5v.8l-1-1.8zm-2.4 1.1c-1.1-.3-1.6-1.7-2.1-2.7.2.2.6.5.9.5h3v2.2h-1.8zm-2.2-3.3l.7-1.5-.7-.4h2.1l1 1.8-.6-.4c-.2.5-.4.9-.6 1.4h-.8c-.5-.1-.9-.5-1.1-.9zm6.9.9l-.9-1.7 1.8-1.1.9 1.8c0 .4-.6 1-1.1 1h-.7zm-5.4-4l.9-1.5c.9-.3 1.4.4 1.8.9l-.9 1.7c0 .1-1.8-1.1-1.8-1.1zm3.6.8c-.2-.4-.4-1-.8-1.5-.3-.4-.6-.8-.9-.9h2.4c.4.1.6.3.9.6l.3.6.5-.3-1 1.8h-2.1l.7-.3z"/></svg><svg viewBox="0 0 40 40" enable-background="new 0 0 60 60" width="40" height="40" id="organisation-add" x="1640"><g transform="matrix(.789 0 0 .587 -6.538 2.175)" fill="#6f8388"><path d="M27 14v4h-5v-4h5m1-1h-7v6h7v-6z"/><path d="M38 14v4h-5v-4h5m1-1h-7v6h7v-6z"/><path d="M27 23v4h-5v-4h5m1-1h-7v6h7v-6z"/><path d="M38 23v4h-5v-4h5m1-1h-7v6h7v-6z"/><path d="M27 32v4h-5v-4h5m1-1h-7v6h7v-6z"/><path d="M38 32v4h-5v-4h5m1-1h-7v6h7v-6z"/><g><path d="M47 5V3H13v2h2v53h-2v2h34v-2h-2V5h2zM33 58h-6V48h6v10zm10 0h-9V48h2c.276 0 .5-.224.5-.5s-.224-.5-.5-.5h-4.793l3.39-3.39c.194-.194.194-.51 0-.706-.196-.195-.513-.195-.708 0l-3.39 3.39V41.5c0-.276-.224-.5-.5-.5s-.5.224-.5.5v4.793l-3.39-3.39c-.194-.194-.51-.194-.706 0-.195.196-.195.513 0 .708l3.39 3.39H24c-.276 0-.5.224-.5.5s.224.5.5.5h2v10h-9V5h26v53z"/><path d="M15 0h30v2H15z"/></g></g><path d="M21.8 37.467c2.072 2.576 5.03 4.09 8.58 4.09 6.067 0 11.097-5.15 11.097-11.362s-5.03-11.212-11.096-11.212c-6.065 0-11.095 5.15-11.095 11.363 0 2.576.888 5 2.22 6.97" fill="#fff"/><path d="M23.267 36.765c1.75 2.125 4.25 3.375 7.25 3.375 5.125 0 9.375-4.25 9.375-9.375s-4.25-9.25-9.375-9.25-9.375 4.25-9.375 9.375c0 2.125.75 4.125 1.875 5.75" fill="#3aad73"/><path d="M34.296 29.913h-2.5v-2.5c0-.75-.5-1.25-1.25-1.25s-1.25.5-1.25 1.25v2.5h-2.5c-.75 0-1.25.5-1.25 1.25s.5 1.25 1.25 1.25h2.5v2.5c0 .75.5 1.25 1.25 1.25s1.25-.5 1.25-1.25v-2.5h2.5c.75 0 1.25-.5 1.25-1.25s-.5-1.25-1.25-1.25z" fill="#fff"/></svg><svg viewBox="0 0 40 40" enable-background="new 0 0 60 60" width="40" height="40" id="organisation-bin" x="1680"><g transform="matrix(.789 0 0 .587 -6.538 2.175)" fill="#6f8388"><path d="M27 14v4h-5v-4h5m1-1h-7v6h7v-6z"/><path d="M38 14v4h-5v-4h5m1-1h-7v6h7v-6z"/><path d="M27 23v4h-5v-4h5m1-1h-7v6h7v-6z"/><path d="M38 23v4h-5v-4h5m1-1h-7v6h7v-6z"/><path d="M27 32v4h-5v-4h5m1-1h-7v6h7v-6z"/><path d="M38 32v4h-5v-4h5m1-1h-7v6h7v-6z"/><g><path d="M47 5V3H13v2h2v53h-2v2h34v-2h-2V5h2zM33 58h-6V48h6v10zm10 0h-9V48h2c.276 0 .5-.224.5-.5s-.224-.5-.5-.5h-4.793l3.39-3.39c.194-.194.194-.51 0-.706-.196-.195-.513-.195-.708 0l-3.39 3.39V41.5c0-.276-.224-.5-.5-.5s-.5.224-.5.5v4.793l-3.39-3.39c-.194-.194-.51-.194-.706 0-.195.196-.195.513 0 .708l3.39 3.39H24c-.276 0-.5.224-.5.5s.224.5.5.5h2v10h-9V5h26v53z"/><path d="M15 0h30v2H15z"/></g></g><path d="M21.8 37.467c2.072 2.576 5.03 4.09 8.58 4.09 6.067 0 11.097-5.15 11.097-11.362s-5.03-11.212-11.096-11.212c-6.065 0-11.095 5.15-11.095 11.363 0 2.576.888 5 2.22 6.97" fill="#fff"/><path d="M23.267 36.765c1.75 2.125 4.25 3.375 7.25 3.375 5.125 0 9.375-4.25 9.375-9.375s-4.25-9.25-9.375-9.25-9.375 4.25-9.375 9.375c0 2.125.75 4.125 1.875 5.75" fill="#ef4d4d"/><g transform="matrix(1.25 0 0 1.25 970.589 -669.846)"><path d="M-748.5 556.9h-1.3v-.4c0-.2-.2-.4-.5-.4h-3.4c-.2 0-.5.2-.5.4v.4h-1.3c-.2 0-.5.2-.5.4s.2.4.5.4v6.3c0 .5.3.9.9.9h5.2c.5 0 .9-.4.9-.9v-6.3c.2 0 .5-.2.5-.4.1-.2-.2-.4-.5-.4z" fill="#fff"/><path d="M-751.9 564.2c.3 0 .7-.3.7-.5v-4.9c0-.3-.3-.5-.7-.5-.3 0-.7.3-.7.5v4.9c0 .2.3.5.7.5z" fill="#ef4d4d"/><path d="M-750.2 564.2c.3 0 .7-.3.7-.5v-4.9c0-.3-.3-.5-.7-.5-.3 0-.7.3-.7.5v4.9c0 .2.4.5.7.5z" fill="#ef4d4d"/><path d="M-753.6 564.3c.3 0 .7-.3.7-.5v-4.9c0-.3-.3-.5-.7-.5-.3 0-.7.3-.7.5v4.9c0 .2.4.5.7.5z" fill="#ef4d4d"/></g></svg><svg viewBox="0 0 40 40" enable-background="new 0 0 60 60" width="40" height="40" id="organisation-delete" x="1720"><g transform="matrix(.789 0 0 .587 -6.538 2.175)" fill="#6f8388"><path d="M27 14v4h-5v-4h5m1-1h-7v6h7v-6z"/><path d="M38 14v4h-5v-4h5m1-1h-7v6h7v-6z"/><path d="M27 23v4h-5v-4h5m1-1h-7v6h7v-6z"/><path d="M38 23v4h-5v-4h5m1-1h-7v6h7v-6z"/><path d="M27 32v4h-5v-4h5m1-1h-7v6h7v-6z"/><path d="M38 32v4h-5v-4h5m1-1h-7v6h7v-6z"/><g><path d="M47 5V3H13v2h2v53h-2v2h34v-2h-2V5h2zM33 58h-6V48h6v10zm10 0h-9V48h2c.276 0 .5-.224.5-.5s-.224-.5-.5-.5h-4.793l3.39-3.39c.194-.194.194-.51 0-.706-.196-.195-.513-.195-.708 0l-3.39 3.39V41.5c0-.276-.224-.5-.5-.5s-.5.224-.5.5v4.793l-3.39-3.39c-.194-.194-.51-.194-.706 0-.195.196-.195.513 0 .708l3.39 3.39H24c-.276 0-.5.224-.5.5s.224.5.5.5h2v10h-9V5h26v53z"/><path d="M15 0h30v2H15z"/></g></g><path d="M21.8 37.467c2.072 2.576 5.03 4.09 8.58 4.09 6.067 0 11.097-5.15 11.097-11.362s-5.03-11.212-11.096-11.212c-6.065 0-11.095 5.15-11.095 11.363 0 2.576.888 5 2.22 6.97" fill="#fff"/><path d="M23.267 36.765c1.75 2.125 4.25 3.375 7.25 3.375 5.125 0 9.375-4.25 9.375-9.375s-4.25-9.25-9.375-9.25-9.375 4.25-9.375 9.375c0 2.125.75 4.125 1.875 5.75" fill="#ef4d4d"/><g transform="matrix(1.25 0 0 1.25 504.281 -353.008)" fill="#fff"><path d="M-375.3 303.6c.5.5.5 1.3 0 1.8l-5.5 5.5c-.5.5-1.3.5-1.8 0s-.5-1.3 0-1.8l5.5-5.5c.4-.5 1.3-.5 1.8 0z"/><path d="M-382.6 303.6c.5-.5 1.3-.5 1.8 0l5.5 5.5c.5.5.5 1.3 0 1.8s-1.3.5-1.8 0l-5.5-5.5c-.6-.5-.6-1.3 0-1.8z"/></g></svg><svg viewBox="0 0 40 40" enable-background="new 0 0 60 60" width="40" height="40" id="organisation-edit" x="1760"><g transform="matrix(.789 0 0 .587 -6.538 2.175)" fill="#6f8388"><path d="M27 14v4h-5v-4h5m1-1h-7v6h7v-6z"/><path d="M38 14v4h-5v-4h5m1-1h-7v6h7v-6z"/><path d="M27 23v4h-5v-4h5m1-1h-7v6h7v-6z"/><path d="M38 23v4h-5v-4h5m1-1h-7v6h7v-6z"/><path d="M27 32v4h-5v-4h5m1-1h-7v6h7v-6z"/><path d="M38 32v4h-5v-4h5m1-1h-7v6h7v-6z"/><g><path d="M47 5V3H13v2h2v53h-2v2h34v-2h-2V5h2zM33 58h-6V48h6v10zm10 0h-9V48h2c.276 0 .5-.224.5-.5s-.224-.5-.5-.5h-4.793l3.39-3.39c.194-.194.194-.51 0-.706-.196-.195-.513-.195-.708 0l-3.39 3.39V41.5c0-.276-.224-.5-.5-.5s-.5.224-.5.5v4.793l-3.39-3.39c-.194-.194-.51-.194-.706 0-.195.196-.195.513 0 .708l3.39 3.39H24c-.276 0-.5.224-.5.5s.224.5.5.5h2v10h-9V5h26v53z"/><path d="M15 0h30v2H15z"/></g></g><path d="M21.8 37.467c2.072 2.576 5.03 4.09 8.58 4.09 6.067 0 11.097-5.15 11.097-11.362s-5.03-11.212-11.096-11.212c-6.065 0-11.095 5.15-11.095 11.363 0 2.576.888 5 2.22 6.97" fill="#fff"/><path d="M23.267 36.765c1.75 2.125 4.25 3.375 7.25 3.375 5.125 0 9.375-4.25 9.375-9.375s-4.25-9.25-9.375-9.25-9.375 4.25-9.375 9.375c0 2.125.75 4.125 1.875 5.75" fill="#469fcc"/><g transform="matrix(1.25 0 0 1.25 504.628 -352.996)" fill="#fff"><path d="M-376.2 305.5l-1-1c-.3-.3-.8-.3-1 0l-2.8 2.8 2 2 2.8-2.8c.3-.3.3-.8 0-1z"/><path d="M-382 310.3h2l-2-2z"/></g></svg><svg viewBox="0 0 40 40" enable-background="new 0 0 60 60" width="40" height="40" id="organisation-restore" x="1800"><g transform="matrix(.789 0 0 .587 -6.538 2.175)" fill="#6f8388"><path d="M27 14v4h-5v-4h5m1-1h-7v6h7v-6z"/><path d="M38 14v4h-5v-4h5m1-1h-7v6h7v-6z"/><path d="M27 23v4h-5v-4h5m1-1h-7v6h7v-6z"/><path d="M38 23v4h-5v-4h5m1-1h-7v6h7v-6z"/><path d="M27 32v4h-5v-4h5m1-1h-7v6h7v-6z"/><path d="M38 32v4h-5v-4h5m1-1h-7v6h7v-6z"/><g><path d="M47 5V3H13v2h2v53h-2v2h34v-2h-2V5h2zM33 58h-6V48h6v10zm10 0h-9V48h2c.276 0 .5-.224.5-.5s-.224-.5-.5-.5h-4.793l3.39-3.39c.194-.194.194-.51 0-.706-.196-.195-.513-.195-.708 0l-3.39 3.39V41.5c0-.276-.224-.5-.5-.5s-.5.224-.5.5v4.793l-3.39-3.39c-.194-.194-.51-.194-.706 0-.195.196-.195.513 0 .708l3.39 3.39H24c-.276 0-.5.224-.5.5s.224.5.5.5h2v10h-9V5h26v53z"/><path d="M15 0h30v2H15z"/></g></g><path d="M21.8 37.467c2.072 2.576 5.03 4.09 8.58 4.09 6.067 0 11.097-5.15 11.097-11.362s-5.03-11.212-11.096-11.212c-6.065 0-11.095 5.15-11.095 11.363 0 2.576.888 5 2.22 6.97" fill="#fff"/><path d="M23.267 36.765c1.75 2.125 4.25 3.375 7.25 3.375 5.125 0 9.375-4.25 9.375-9.375s-4.25-9.25-9.375-9.25-9.375 4.25-9.375 9.375c0 2.125.75 4.125 1.875 5.75" fill="#3aad73"/><path d="M30.854 34.193l1.23-2.216v.74h2.585c.492-.124.86-.247 1.107-.617-.985 1.97-1.23 3.324-3.077 3.324h-.615v.984l-1.23-2.215zM27.9 35.547c-1.354-.37-1.97-2.093-2.585-3.323.247.246.74.615 1.108.615h3.691v2.707H27.9zm-2.708-4.062l.862-1.846-.862-.493h2.585l1.23 2.215-.738-.492c-.247.615-.493 1.107-.74 1.723h-.984c-.615-.123-1.108-.616-1.354-1.108zm8.493 1.108L32.577 30.5l2.215-1.353 1.108 2.215c0 .492-.738 1.23-1.354 1.23h-.86zm-6.647-4.923l1.108-1.846c1.108-.37 1.723.492 2.216 1.107l-1.108 2.094c0 .123-2.216-1.354-2.216-1.354zm4.43.984c-.245-.492-.49-1.23-.983-1.846-.37-.492-.74-.984-1.108-1.108h2.954c.493.124.74.37 1.108.74l.37.737.615-.37-1.23 2.217h-2.585l.86-.37z" fill="#fff"/></svg><svg width="40" height="40" viewBox="-776.9 535.5 32 32" enable-background="new -776.9 535.5 32 32" id="tasks-add" x="1840"><g fill="#6F8388"><path d="M-750.6 538.1h-5c0-.6-.5-1.1-1.1-1.1h-2.7c0-.9-.7-1.6-1.6-1.6-.9 0-1.6.7-1.6 1.6h-2.7c-.6 0-1.1.5-1.1 1.1h-5c-.8 0-1.5.6-1.5 1.5V566c0 .8.6 1.5 1.5 1.5h19c.8 0 3-.6 3-1.5v-26.4c.3-.8-.3-1.5-1.2-1.5zm-10.2-2.1c.6 0 1.1.5 1.1 1.1h-2.1c0-.6.4-1.1 1-1.1zm10.1 29.8h-20.2v-26.1h4.8v.5c0 .6.5 1.1 1.1 1.1h8.5c.6 0 1.1-.5 1.1-1.1v-.5h4.8v26.1z"/><path d="M-761.8 546.1h-6.4c-.2 0-.3-.1-.3-.3s.1-.3.3-.3h6.4c.2 0 .3.1.3.3s-.2.3-.3.3z"/><path d="M-753.3 546.1h-6.4c-.2 0-.3-.1-.3-.3s.1-.3.3-.3h6.4c.2 0 .3.1.3.3s-.2.3-.3.3z"/><path d="M-761.8 548.3h-6.4c-.2 0-.3-.1-.3-.3s.1-.3.3-.3h6.4c.2 0 .3.1.3.3s-.2.3-.3.3z"/><path d="M-753.3 548.3h-6.4c-.2 0-.3-.1-.3-.3s.1-.3.3-.3h6.4c.2 0 .3.1.3.3s-.2.3-.3.3z"/><path d="M-761.8 550.4h-6.4c-.2 0-.3-.1-.3-.3s.1-.3.3-.3h6.4c.2 0 .3.1.3.3s-.2.3-.3.3z"/><path d="M-753.3 550.4h-6.4c-.2 0-.3-.1-.3-.3s.1-.3.3-.3h6.4c.2 0 .3.1.3.3s-.2.3-.3.3z"/><path d="M-761.8 553.6v6.9h-6.9v-6.9h6.9m.5-.5h-8v8h8v-8z"/><path d="M-766.7 559.3l-1.2-1.9c-.1-.1-.1-.3.1-.4s.3-.1.4.1l.9 1.3 3.5-3.5c.1-.1.3-.1.4 0 .1.1.1.3 0 .4l-4.1 4z"/></g><path d="M-759.174 565.362c1.657 2.06 4.025 3.272 6.865 3.272 4.854 0 8.878-4.12 8.878-9.09s-4.024-8.97-8.877-8.97c-4.85 0-8.876 4.12-8.876 9.09 0 2.062.71 4 1.776 5.577" fill="#fff"/><g><path d="M-758 564.8c1.4 1.7 3.4 2.7 5.8 2.7 4.1 0 7.5-3.4 7.5-7.5s-3.4-7.4-7.5-7.4-7.5 3.4-7.5 7.5c0 1.7.6 3.3 1.5 4.6" fill="#3AAD73"/><path d="M-748.9 559.3h-2.2v-2.2c0-.6-.4-1.1-1.1-1.1s-1.1.4-1.1 1.1v2.2h-2.2c-.6 0-1.1.4-1.1 1.1s.4 1.1 1.1 1.1h2.2v2.2c0 .6.4 1.1 1.1 1.1s1.1-.4 1.1-1.1v-2.2h2.2c.6 0 1.1-.4 1.1-1.1s-.3-1.1-1.1-1.1z" fill="#fff"/></g></svg><svg width="40" height="40" viewBox="-776.5 535.6 32 32" enable-background="new -776.5 535.6 32 32" id="tasks-bin" x="1880"><g fill="#6F8388"><path d="M-750.2 538.2h-5c0-.6-.5-1.1-1.1-1.1h-2.7c0-.9-.7-1.6-1.6-1.6-.9 0-1.6.7-1.6 1.6h-2.7c-.6 0-1.1.5-1.1 1.1h-5c-.8 0-1.5.6-1.5 1.5v26.4c0 .8.6 1.5 1.5 1.5h18.6c.8 0 3.4-.6 3.4-1.5v-26.4c.3-.8-.3-1.5-1.2-1.5zm-10.2-2.1c.6 0 1.1.5 1.1 1.1h-2.1c0-.6.4-1.1 1-1.1zm10.1 29.8h-20.2v-26.1h4.8v.5c0 .6.5 1.1 1.1 1.1h8.5c.6 0 1.1-.5 1.1-1.1v-.5h4.8v26.1z"/><path d="M-761.4 546.2h-6.4c-.2 0-.3-.1-.3-.3s.1-.3.3-.3h6.4c.2 0 .3.1.3.3s-.2.3-.3.3z"/><path d="M-752.9 546.2h-6.4c-.2 0-.3-.1-.3-.3s.1-.3.3-.3h6.4c.2 0 .3.1.3.3s-.2.3-.3.3z"/><path d="M-761.4 548.4h-6.4c-.2 0-.3-.1-.3-.3s.1-.3.3-.3h6.4c.2 0 .3.1.3.3s-.2.3-.3.3z"/><path d="M-752.9 548.4h-6.4c-.2 0-.3-.1-.3-.3s.1-.3.3-.3h6.4c.2 0 .3.1.3.3s-.2.3-.3.3z"/><path d="M-761.4 550.5h-6.4c-.2 0-.3-.1-.3-.3s.1-.3.3-.3h6.4c.2 0 .3.1.3.3s-.2.3-.3.3z"/><path d="M-752.9 550.5h-6.4c-.2 0-.3-.1-.3-.3s.1-.3.3-.3h6.4c.2 0 .3.1.3.3s-.2.3-.3.3z"/><path d="M-761.4 553.7v6.9h-6.9v-6.9h6.9m.5-.5h-8v8h8v-8z"/><path d="M-766.3 559.4l-1.2-1.9c-.1-.1-.1-.3.1-.4s.3-.1.4.1l.9 1.3 3.5-3.5c.1-.1.3-.1.4 0 .1.1.1.3 0 .4l-4.1 4z"/></g><path d="M-758.774 565.462c1.657 2.06 4.025 3.272 6.865 3.272 4.854 0 8.878-4.12 8.878-9.09s-4.024-8.97-8.877-8.97c-4.85 0-8.876 4.12-8.876 9.09 0 2.062.71 4 1.776 5.577" fill="#fff"/><path fill="#EF4D4D" d="M-757.6 564.9c1.4 1.7 3.4 2.7 5.8 2.7 4.1 0 7.5-3.4 7.5-7.5s-3.4-7.4-7.5-7.4-7.5 3.4-7.5 7.5c0 1.7.6 3.3 1.5 4.6"/><path fill="#fff" d="M-748.5 556.9h-1.3v-.4c0-.2-.2-.4-.5-.4h-3.4c-.2 0-.5.2-.5.4v.4h-1.3c-.2 0-.5.2-.5.4s.2.4.5.4v6.3c0 .5.3.9.9.9h5.2c.5 0 .9-.4.9-.9v-6.3c.2 0 .5-.2.5-.4.1-.2-.2-.4-.5-.4z"/><path fill="#EF4D4D" d="M-751.9 564.2c.3 0 .7-.3.7-.5v-4.9c0-.3-.3-.5-.7-.5-.3 0-.7.3-.7.5v4.9c0 .2.3.5.7.5z"/><path fill="#EF4D4D" d="M-750.2 564.2c.3 0 .7-.3.7-.5v-4.9c0-.3-.3-.5-.7-.5-.3 0-.7.3-.7.5v4.9c0 .2.4.5.7.5z"/><path fill="#EF4D4D" d="M-753.6 564.3c.3 0 .7-.3.7-.5v-4.9c0-.3-.3-.5-.7-.5-.3 0-.7.3-.7.5v4.9c0 .2.4.5.7.5z"/></svg><svg width="40" height="40" viewBox="-776.9 535.5 32 32" enable-background="new -776.9 535.5 32 32" id="tasks-complete" x="1920"><g fill="#6F8388"><path d="M-750.6 538.1h-5c0-.6-.5-1.1-1.1-1.1h-2.7c0-.9-.7-1.6-1.6-1.6-.9 0-1.6.7-1.6 1.6h-2.7c-.6 0-1.1.5-1.1 1.1h-5c-.8 0-1.5.6-1.5 1.5V566c0 .8.6 1.5 1.5 1.5h19c.8 0 3-.6 3-1.5v-26.4c.3-.8-.3-1.5-1.2-1.5zm-10.2-2.1c.6 0 1.1.5 1.1 1.1h-2.1c0-.6.4-1.1 1-1.1zm10.1 29.8h-20.2v-26.1h4.8v.5c0 .6.5 1.1 1.1 1.1h8.5c.6 0 1.1-.5 1.1-1.1v-.5h4.8v26.1z"/><path d="M-761.8 546.1h-6.4c-.2 0-.3-.1-.3-.3s.1-.3.3-.3h6.4c.2 0 .3.1.3.3s-.2.3-.3.3z"/><path d="M-753.3 546.1h-6.4c-.2 0-.3-.1-.3-.3s.1-.3.3-.3h6.4c.2 0 .3.1.3.3s-.2.3-.3.3z"/><path d="M-761.8 548.3h-6.4c-.2 0-.3-.1-.3-.3s.1-.3.3-.3h6.4c.2 0 .3.1.3.3s-.2.3-.3.3z"/><path d="M-753.3 548.3h-6.4c-.2 0-.3-.1-.3-.3s.1-.3.3-.3h6.4c.2 0 .3.1.3.3s-.2.3-.3.3z"/><path d="M-761.8 550.4h-6.4c-.2 0-.3-.1-.3-.3s.1-.3.3-.3h6.4c.2 0 .3.1.3.3s-.2.3-.3.3z"/><path d="M-753.3 550.4h-6.4c-.2 0-.3-.1-.3-.3s.1-.3.3-.3h6.4c.2 0 .3.1.3.3s-.2.3-.3.3z"/><path d="M-761.8 553.6v6.9h-6.9v-6.9h6.9m.5-.5h-8v8h8v-8z"/><path d="M-766.7 559.3l-1.2-1.9c-.1-.1-.1-.3.1-.4s.3-.1.4.1l.9 1.3 3.5-3.5c.1-.1.3-.1.4 0 .1.1.1.3 0 .4l-4.1 4z"/></g><path d="M-759.174 565.362c1.657 2.06 4.025 3.272 6.865 3.272 4.854 0 8.878-4.12 8.878-9.09s-4.024-8.97-8.877-8.97c-4.85 0-8.876 4.12-8.876 9.09 0 2.062.71 4 1.776 5.577" fill="#fff"/><path d="M-758 564.8c1.4 1.7 3.4 2.7 5.8 2.7 4.1 0 7.5-3.4 7.5-7.5s-3.4-7.4-7.5-7.4-7.5 3.4-7.5 7.5c0 1.7.6 3.3 1.5 4.6" fill="#3aad73"/><g transform="matrix(.351 0 0 .38 -757.791 554.375)" fill="#fff"><path d="M14 18L26 6l4 4-16 16L4 16l4-4z"/></g></svg><svg width="40" height="40" viewBox="-776.5 535.6 32 32" enable-background="new -776.5 535.6 32 32" id="tasks-delete" x="1960"><g fill="#6F8388"><path d="M-750.2 538.2h-5c0-.6-.5-1.1-1.1-1.1h-2.7c0-.9-.7-1.6-1.6-1.6-.9 0-1.6.7-1.6 1.6h-2.7c-.6 0-1.1.5-1.1 1.1h-5c-.8 0-1.5.6-1.5 1.5v26.4c0 .8.6 1.5 1.5 1.5h18.6c.8 0 3.4-.6 3.4-1.5v-26.4c.3-.8-.3-1.5-1.2-1.5zm-10.2-2.1c.6 0 1.1.5 1.1 1.1h-2.1c0-.6.4-1.1 1-1.1zm10.1 29.8h-20.2v-26.1h4.8v.5c0 .6.5 1.1 1.1 1.1h8.5c.6 0 1.1-.5 1.1-1.1v-.5h4.8v26.1z"/><path d="M-761.4 546.2h-6.4c-.2 0-.3-.1-.3-.3s.1-.3.3-.3h6.4c.2 0 .3.1.3.3s-.2.3-.3.3z"/><path d="M-752.9 546.2h-6.4c-.2 0-.3-.1-.3-.3s.1-.3.3-.3h6.4c.2 0 .3.1.3.3s-.2.3-.3.3z"/><path d="M-761.4 548.4h-6.4c-.2 0-.3-.1-.3-.3s.1-.3.3-.3h6.4c.2 0 .3.1.3.3s-.2.3-.3.3z"/><path d="M-752.9 548.4h-6.4c-.2 0-.3-.1-.3-.3s.1-.3.3-.3h6.4c.2 0 .3.1.3.3s-.2.3-.3.3z"/><path d="M-761.4 550.5h-6.4c-.2 0-.3-.1-.3-.3s.1-.3.3-.3h6.4c.2 0 .3.1.3.3s-.2.3-.3.3z"/><path d="M-752.9 550.5h-6.4c-.2 0-.3-.1-.3-.3s.1-.3.3-.3h6.4c.2 0 .3.1.3.3s-.2.3-.3.3z"/><path d="M-761.4 553.7v6.9h-6.9v-6.9h6.9m.5-.5h-8v8h8v-8z"/><path d="M-766.3 559.4l-1.2-1.9c-.1-.1-.1-.3.1-.4s.3-.1.4.1l.9 1.3 3.5-3.5c.1-.1.3-.1.4 0 .1.1.1.3 0 .4l-4.1 4z"/></g><path fill="#EF4D4D" d="M-751.9 564.2c.3 0 .7-.3.7-.5v-4.9c0-.3-.3-.5-.7-.5-.3 0-.7.3-.7.5v4.9c0 .2.3.5.7.5z"/><path fill="#EF4D4D" d="M-750.2 564.2c.3 0 .7-.3.7-.5v-4.9c0-.3-.3-.5-.7-.5-.3 0-.7.3-.7.5v4.9c0 .2.4.5.7.5z"/><path fill="#EF4D4D" d="M-753.6 564.3c.3 0 .7-.3.7-.5v-4.9c0-.3-.3-.5-.7-.5-.3 0-.7.3-.7.5v4.9c0 .2.4.5.7.5z"/><path d="M-758.774 565.462c1.657 2.06 4.025 3.272 6.865 3.272 4.854 0 8.878-4.12 8.878-9.09s-4.024-8.97-8.877-8.97c-4.85 0-8.876 4.12-8.876 9.09 0 2.062.71 4 1.776 5.577" fill="#fff"/><g><path d="M-757.6 564.9c1.4 1.7 3.4 2.7 5.8 2.7 4.1 0 7.5-3.4 7.5-7.5s-3.4-7.4-7.5-7.4-7.5 3.4-7.5 7.5c0 1.7.6 3.3 1.5 4.6" fill="#EF4D4D"/><g fill="#fff"><path d="M-747.8 556.3c.5.5.5 1.4 0 2l-6 6c-.5.5-1.4.5-2 0-.5-.5-.5-1.4 0-2l6-6c.7-.5 1.5-.5 2 0z"/><path d="M-755.5 556.3c.5-.5 1.4-.5 2 0l6 6c.5.5.5 1.4 0 2-.5.5-1.4.5-2 0l-6-6c-.8-.6-.8-1.4 0-2z"/></g></g></svg><svg width="40" height="40" viewBox="-776.5 535.6 32 32" enable-background="new -776.5 535.6 32 32" id="tasks-edit" x="2000"><g fill="#6F8388"><path d="M-750.2 538.2h-5c0-.6-.5-1.1-1.1-1.1h-2.7c0-.9-.7-1.6-1.6-1.6-.9 0-1.6.7-1.6 1.6h-2.7c-.6 0-1.1.5-1.1 1.1h-5c-.8 0-1.5.6-1.5 1.5v26.4c0 .8.6 1.5 1.5 1.5h18.6c.8 0 3.4-.6 3.4-1.5v-26.4c.3-.8-.3-1.5-1.2-1.5zm-10.2-2.1c.6 0 1.1.5 1.1 1.1h-2.1c0-.6.4-1.1 1-1.1zm10.1 29.8h-20.2v-26.1h4.8v.5c0 .6.5 1.1 1.1 1.1h8.5c.6 0 1.1-.5 1.1-1.1v-.5h4.8v26.1z"/><path d="M-761.4 546.2h-6.4c-.2 0-.3-.1-.3-.3s.1-.3.3-.3h6.4c.2 0 .3.1.3.3s-.2.3-.3.3z"/><path d="M-752.9 546.2h-6.4c-.2 0-.3-.1-.3-.3s.1-.3.3-.3h6.4c.2 0 .3.1.3.3s-.2.3-.3.3z"/><path d="M-761.4 548.4h-6.4c-.2 0-.3-.1-.3-.3s.1-.3.3-.3h6.4c.2 0 .3.1.3.3s-.2.3-.3.3z"/><path d="M-752.9 548.4h-6.4c-.2 0-.3-.1-.3-.3s.1-.3.3-.3h6.4c.2 0 .3.1.3.3s-.2.3-.3.3z"/><path d="M-761.4 550.5h-6.4c-.2 0-.3-.1-.3-.3s.1-.3.3-.3h6.4c.2 0 .3.1.3.3s-.2.3-.3.3z"/><path d="M-752.9 550.5h-6.4c-.2 0-.3-.1-.3-.3s.1-.3.3-.3h6.4c.2 0 .3.1.3.3s-.2.3-.3.3z"/><path d="M-761.4 553.7v6.9h-6.9v-6.9h6.9m.5-.5h-8v8h8v-8z"/><path d="M-766.3 559.4l-1.2-1.9c-.1-.1-.1-.3.1-.4s.3-.1.4.1l.9 1.3 3.5-3.5c.1-.1.3-.1.4 0 .1.1.1.3 0 .4l-4.1 4z"/></g><path d="M-758.774 565.462c1.657 2.06 4.025 3.272 6.865 3.272 4.854 0 8.878-4.12 8.878-9.09s-4.024-8.97-8.877-8.97c-4.85 0-8.876 4.12-8.876 9.09 0 2.062.71 4 1.776 5.577" fill="#fff"/><g><path d="M-757.6 564.9c1.4 1.7 3.4 2.7 5.8 2.7 4.1 0 7.5-3.4 7.5-7.5s-3.4-7.4-7.5-7.4-7.5 3.4-7.5 7.5c0 1.7.6 3.3 1.5 4.6" fill="#469FCC"/><g fill="#fff"><path d="M-747.5 557.6l-1.8-1.7c-.5-.5-1.3-.5-1.7 0l-4.8 4.8 3.4 3.4 4.8-4.8c.6-.3.6-1.2.1-1.7z"/><path d="M-756 564.6h3.4l-3.4-3.4z"/></g></g></svg><svg width="40" height="40" viewBox="-776.9 535.5 32 32" enable-background="new -776.9 535.5 32 32" id="tasks-restore" x="2040"><g fill="#6F8388"><path d="M-750.6 538.1h-5c0-.6-.5-1.1-1.1-1.1h-2.7c0-.9-.7-1.6-1.6-1.6-.9 0-1.6.7-1.6 1.6h-2.7c-.6 0-1.1.5-1.1 1.1h-5c-.8 0-1.5.6-1.5 1.5V566c0 .8.6 1.5 1.5 1.5h19c.8 0 3-.6 3-1.5v-26.4c.3-.8-.3-1.5-1.2-1.5zm-10.2-2.1c.6 0 1.1.5 1.1 1.1h-2.1c0-.6.4-1.1 1-1.1zm10.1 29.8h-20.2v-26.1h4.8v.5c0 .6.5 1.1 1.1 1.1h8.5c.6 0 1.1-.5 1.1-1.1v-.5h4.8v26.1z"/><path d="M-761.8 546.1h-6.4c-.2 0-.3-.1-.3-.3s.1-.3.3-.3h6.4c.2 0 .3.1.3.3s-.2.3-.3.3z"/><path d="M-753.3 546.1h-6.4c-.2 0-.3-.1-.3-.3s.1-.3.3-.3h6.4c.2 0 .3.1.3.3s-.2.3-.3.3z"/><path d="M-761.8 548.3h-6.4c-.2 0-.3-.1-.3-.3s.1-.3.3-.3h6.4c.2 0 .3.1.3.3s-.2.3-.3.3z"/><path d="M-753.3 548.3h-6.4c-.2 0-.3-.1-.3-.3s.1-.3.3-.3h6.4c.2 0 .3.1.3.3s-.2.3-.3.3z"/><path d="M-761.8 550.4h-6.4c-.2 0-.3-.1-.3-.3s.1-.3.3-.3h6.4c.2 0 .3.1.3.3s-.2.3-.3.3z"/><path d="M-753.3 550.4h-6.4c-.2 0-.3-.1-.3-.3s.1-.3.3-.3h6.4c.2 0 .3.1.3.3s-.2.3-.3.3z"/><path d="M-761.8 553.6v6.9h-6.9v-6.9h6.9m.5-.5h-8v8h8v-8z"/><path d="M-766.7 559.3l-1.2-1.9c-.1-.1-.1-.3.1-.4s.3-.1.4.1l.9 1.3 3.5-3.5c.1-.1.3-.1.4 0 .1.1.1.3 0 .4l-4.1 4z"/></g><path d="M-759.174 565.362c1.657 2.06 4.025 3.272 6.865 3.272 4.854 0 8.878-4.12 8.878-9.09s-4.024-8.97-8.877-8.97c-4.85 0-8.876 4.12-8.876 9.09 0 2.062.71 4 1.776 5.577" fill="#fff"/><g><path d="M-758 564.8c1.4 1.7 3.4 2.7 5.8 2.7 4.1 0 7.5-3.4 7.5-7.5s-3.4-7.4-7.5-7.4-7.5 3.4-7.5 7.5c0 1.7.6 3.3 1.5 4.6" fill="#3AAD73"/><path d="M-751.705 562.69l.985-1.774v.59h2.068c.393-.097.69-.196.886-.49-.788 1.574-.985 2.657-2.462 2.657h-.492v.788l-.985-1.77zm-2.363 1.082c-1.083-.296-1.575-1.674-2.067-2.66.196.198.59.494.886.494h2.955v2.166h-1.773zm-2.166-3.25l.69-1.476-.69-.394h2.068l.984 1.772-.59-.394c-.197.493-.394.886-.59 1.38h-.79c-.49-.1-.885-.494-1.082-.887zm6.794.887l-.886-1.675 1.772-1.083.886 1.772c0 .394-.59.985-1.083.985h-.69zm-5.317-3.94l.886-1.477c.885-.295 1.378.394 1.77.887l-.885 1.673c0 .1-1.772-1.083-1.772-1.083zm3.545.788c-.197-.394-.394-.985-.788-1.477-.295-.393-.59-.787-.886-.885h2.363c.394.098.59.295.886.59l.295.59.493-.294-.984 1.773h-2.068l.69-.295z" fill="#fff"/></g></svg></svg>