<?xml version="1.0" encoding="utf-8"?>
<!-- Generator: Adobe Illustrator 16.0.0, SVG Export Plug-In . SVG Version: 6.00 Build 0)  -->
<!DOCTYPE svg PUBLIC "-//W3C//DTD SVG 1.0//EN" "http://www.w3.org/TR/2001/REC-SVG-20010904/DTD/svg10.dtd">
<svg version="1.0" id="Layer_1" xmlns="http://www.w3.org/2000/svg" xmlns:xlink="http://www.w3.org/1999/xlink" x="0px" y="0px"
	 width="32px" height="32px" viewBox="0 0 32 32" enable-background="new 0 0 32 32" xml:space="preserve">
<g>
	<path fill="#EAEAEA" d="M22,0H6C4.896,0,4,0.896,4,2v10h18c1.104,0,2,0.896,2,2v13c0,1.104-0.896,2-2,2H4v1c0,1.104,0.896,2,2,2h24
		c1.104,0,2-0.896,2-2V10L22,0z"/>
	<path fill="#434854" d="M22,0v8c0,1.104,0.896,2,2,2h8L22,0z"/>
	<polygon opacity="0.1" points="24,10 32,18 32,10 	"/>
	<path fill="#EF4D4D" d="M22,26c0,0.553-0.447,1-1,1H1c-0.553,0-1-0.447-1-1V15c0-0.553,0.447-1,1-1h20c0.553,0,1,0.447,1,1V26z"/>
	<g>
		<path fill="#FFFFFF" d="M14.5,17.005c-0.276,0-0.5,0.224-0.5,0.5v6c0,0.276,0.224,0.5,0.5,0.5s0.5-0.224,0.5-0.5v-6
			C15,17.229,14.776,17.005,14.5,17.005z"/>
		<path fill="#FFFFFF" d="M10.426,17.448c-0.02-0.178-0.126-0.34-0.304-0.412c-0.127-0.051-0.263-0.046-0.379,0.003
			c-0.007,0.003-0.014,0.001-0.021,0.004c-0.168,0.068-0.271,0.22-0.299,0.387l-2.387,5.91c-0.104,0.257,0.02,0.548,0.275,0.651
			c0.257,0.104,0.548-0.021,0.651-0.277l0.489-1.209h2.938l0.49,1.216c0.104,0.256,0.396,0.38,0.651,0.276
			c0.257-0.104,0.38-0.395,0.276-0.651L10.426,17.448z M8.856,21.505l1.064-2.635l1.065,2.635H8.856z"/>
	</g>
</g>
<g>
</g>
<g>
</g>
<g>
</g>
<g>
</g>
<g>
</g>
<g>
</g>
</svg>
