<?xml version="1.0" encoding="utf-8"?>
<!-- Generator: Adobe Illustrator 16.0.0, SVG Export Plug-In . SVG Version: 6.00 Build 0)  -->
<!DOCTYPE svg PUBLIC "-//W3C//DTD SVG 1.0//EN" "http://www.w3.org/TR/2001/REC-SVG-20010904/DTD/svg10.dtd">
<svg version="1.0" id="Layer_1" xmlns="http://www.w3.org/2000/svg" xmlns:xlink="http://www.w3.org/1999/xlink" x="0px" y="0px"
	 width="32px" height="32px" viewBox="0 0 32 32" enable-background="new 0 0 32 32" xml:space="preserve">
<g>
	<path fill="#84BF56" d="M20,0H4C2.896,0,2,0.896,2,2v28c0,1.104,0.896,2,2,2h24c1.104,0,2-0.896,2-2V10L20,0z"/>
	<path fill="#434854" d="M20,0v8c0,1.104,0.896,2,2,2h8L20,0z"/>
	<path fill="#FFFFFF" d="M14,13v8.184C13.686,21.072,13.353,21,13,21c-1.657,0-3,1.343-3,3s1.343,3,3,3s3-1.343,3-3v-6l6,1L14,13z"
		/>
	<polygon opacity="0.15" points="22,10 30,18 30,10 	"/>
</g>
<g>
</g>
<g>
</g>
<g>
</g>
<g>
</g>
<g>
</g>
<g>
</g>
</svg>
