<?xml version="1.0" encoding="utf-8"?>
<!-- Generator: Adobe Illustrator 16.0.0, SVG Export Plug-In . SVG Version: 6.00 Build 0)  -->
<!DOCTYPE svg PUBLIC "-//W3C//DTD SVG 1.0//EN" "http://www.w3.org/TR/2001/REC-SVG-20010904/DTD/svg10.dtd">
<svg version="1.0" id="Layer_1" xmlns="http://www.w3.org/2000/svg" xmlns:xlink="http://www.w3.org/1999/xlink" x="0px" y="0px"
	 width="32px" height="32px" viewBox="0 0 32 32" enable-background="new 0 0 32 32" xml:space="preserve">
<g>
	<path fill="#EAEAEA" d="M22,0H6C4.896,0,4,0.896,4,2v10h18c1.104,0,2,0.896,2,2v13c0,1.104-0.896,2-2,2H4v1c0,1.104,0.896,2,2,2h24
		c1.104,0,2-0.896,2-2V10L22,0z"/>
	<path fill="#434854" d="M22,0v8c0,1.104,0.896,2,2,2h8L22,0z"/>
	<polygon opacity="0.1" points="24,10 32,18 32,10 	"/>
	<path fill="#469FCC" d="M22,26c0,0.553-0.447,1-1,1H1c-0.553,0-1-0.447-1-1V15c0-0.553,0.447-1,1-1h20c0.553,0,1,0.447,1,1V26z"/>
	<g>
		<path fill="#FFFFFF" d="M6,17H4.5C4.224,17,4,17.224,4,17.5v6C4,23.776,4.224,24,4.5,24H6c1.104,0,2-0.896,2-2v-3
			C8,17.896,7.104,17,6,17z M6,23H5v-5h1c0.553,0,1,0.447,1,1v3C7,22.553,6.553,23,6,23z"/>
		<path fill="#FFFFFF" d="M11,17L11,17c-1.104,0-2,0.896-2,2v3c0,1.104,0.896,2,2,2l0,0c1.104,0,2-0.896,2-2v-3
			C13,17.896,12.104,17,11,17z M12,22c0,0.553-0.447,1-1,1l0,0c-0.553,0-1-0.447-1-1v-3c0-0.553,0.447-1,1-1l0,0
			c0.553,0,1,0.447,1,1V22z"/>
		<path fill="#FFFFFF" d="M16,23L16,23c-0.553,0-1-0.447-1-1v-3c0-0.553,0.447-1,1-1l0,0c0.553,0,1,0.447,1,1h1c0-1.104-0.896-2-2-2
			l0,0c-1.104,0-2,0.896-2,2v3c0,1.104,0.896,2,2,2l0,0c1.104,0,2-0.896,2-2h-1C17,22.553,16.553,23,16,23z"/>
	</g>
</g>
<g>
</g>
<g>
</g>
<g>
</g>
<g>
</g>
<g>
</g>
<g>
</g>
</svg>
