<?xml version="1.0" encoding="UTF-8" standalone="no"?>
<svg
   xmlns:dc="http://purl.org/dc/elements/1.1/"
   xmlns:cc="http://creativecommons.org/ns#"
   xmlns:rdf="http://www.w3.org/1999/02/22-rdf-syntax-ns#"
   xmlns:svg="http://www.w3.org/2000/svg"
   xmlns="http://www.w3.org/2000/svg"
   xmlns:sodipodi="http://sodipodi.sourceforge.net/DTD/sodipodi-0.dtd"
   xmlns:inkscape="http://www.inkscape.org/namespaces/inkscape"
   version="1.1"
   x="0px"
   y="0px"
   viewBox="0 0 32 32"
   enable-background="new 0 0 60 60"
   xml:space="preserve"
   width="32"
   height="32"
   id="svg2"
   inkscape:version="0.48.3.1 r9886"
   sodipodi:docname="event.svg"><metadata
     id="metadata130"><rdf:RDF><cc:Work
         rdf:about=""><dc:format>image/svg+xml</dc:format><dc:type
           rdf:resource="http://purl.org/dc/dcmitype/StillImage" /></cc:Work></rdf:RDF></metadata><defs
     id="defs128" /><sodipodi:namedview
     pagecolor="#ffffff"
     bordercolor="#666666"
     borderopacity="1"
     objecttolerance="10"
     gridtolerance="10"
     guidetolerance="10"
     inkscape:pageopacity="0"
     inkscape:pageshadow="2"
     inkscape:window-width="1366"
     inkscape:window-height="679"
     id="namedview126"
     showgrid="false"
     inkscape:zoom="7.8666667"
     inkscape:cx="27.046903"
     inkscape:cy="19.33553"
     inkscape:window-x="0"
     inkscape:window-y="27"
     inkscape:window-maximized="1"
     inkscape:current-layer="svg2" /><g
     id="Layer_1"
     display="none"
     style="display:none"
     transform="translate(0,-28)"><g
       id="prod_7_"
       display="inline"
       style="display:inline"><polygon
         points="16,2.414 8.414,10 16,10 "
         id="polygon6"
         style="fill:none" /><polygon
         points="37,29.414 29.414,37 37,37 "
         id="polygon8"
         style="fill:none" /><polygon
         points="26,15.414 18.414,23 26,23 "
         id="polygon10"
         style="fill:none" /><polygon
         points="8,31 16,31 16,23 26,13 31,13 31,2 17,2 17,11 8,11 "
         id="polygon12"
         style="fill:none" /><path
         d="M 53,27 H 43 V 14 c 0,-0.552 -0.448,-1 -1,-1 H 33 V 1 C 33,0.448 32.552,0 32,0 H 16 L 6,10 v 22 c 0,0.552 0.448,1 1,1 h 9 v 12 c 0,0.552 0.448,1 1,1 h 10 v 13 c 0,0.552 0.448,1 1,1 h 25 c 0.552,0 1,-0.448 1,-1 V 28 c 0,-0.552 -0.448,-1 -1,-1 z M 16,2.414 V 10 H 8.414 L 16,2.414 z M 16,23 v 8 H 8 V 11 h 9 V 2 H 31 V 13 H 26 L 16,23 z M 26,15.414 V 23 H 18.414 L 26,15.414 z M 27,37 v 7 H 18 V 24 h 9 V 15 H 41 V 27 H 37 L 27,37 z M 37,29.414 V 37 H 29.414 L 37,29.414 z M 52,58 H 29 V 38 h 9 v -9 h 14 v 29 z"
         id="path14"
         inkscape:connector-curvature="0"
         style="fill:#6f8388" /></g></g><g
     id="Layer_2"
     display="none"
     style="display:none"
     transform="translate(0,-28)"><path
       display="inline"
       d="M 49.25,5 H 40 C 40,3.895 39.105,3 38,3 H 33 C 33,1.343 31.657,0 30,0 28.343,0 27,1.343 27,3 H 22 C 20.895,3 20,3.895 20,5 H 10.75 C 9.231,5 8,6.231 8,7.75 v 49.5 C 8,58.769 9.231,60 10.75,60 h 38.5 C 50.769,60 52,58.769 52,57.25 V 7.75 C 52,6.231 50.769,5 49.25,5 z M 30,1 c 1.103,0 2,0.897 2,2 H 28 C 28,1.897 28.897,1 30,1 z M 49,57 H 11 V 8 h 9 v 1 c 0,1.105 0.895,2 2,2 h 16 c 1.105,0 2,-0.895 2,-2 V 8 h 9 v 49 z"
       id="path17"
       inkscape:connector-curvature="0"
       style="fill:#6f8388;display:inline" /><path
       display="inline"
       d="M 28,20 H 16 c -0.276,0 -0.5,-0.224 -0.5,-0.5 0,-0.276 0.224,-0.5 0.5,-0.5 h 12 c 0.276,0 0.5,0.224 0.5,0.5 0,0.276 -0.224,0.5 -0.5,0.5 z"
       id="path19"
       inkscape:connector-curvature="0"
       style="fill:#6f8388;display:inline" /><path
       display="inline"
       d="M 44,20 H 32 c -0.276,0 -0.5,-0.224 -0.5,-0.5 0,-0.276 0.224,-0.5 0.5,-0.5 h 12 c 0.276,0 0.5,0.224 0.5,0.5 0,0.276 -0.224,0.5 -0.5,0.5 z"
       id="path21"
       inkscape:connector-curvature="0"
       style="fill:#6f8388;display:inline" /><path
       display="inline"
       d="M 28,24 H 16 c -0.276,0 -0.5,-0.224 -0.5,-0.5 0,-0.276 0.224,-0.5 0.5,-0.5 h 12 c 0.276,0 0.5,0.224 0.5,0.5 0,0.276 -0.224,0.5 -0.5,0.5 z"
       id="path23"
       inkscape:connector-curvature="0"
       style="fill:#6f8388;display:inline" /><path
       display="inline"
       d="M 44,24 H 32 c -0.276,0 -0.5,-0.224 -0.5,-0.5 0,-0.276 0.224,-0.5 0.5,-0.5 h 12 c 0.276,0 0.5,0.224 0.5,0.5 0,0.276 -0.224,0.5 -0.5,0.5 z"
       id="path25"
       inkscape:connector-curvature="0"
       style="fill:#6f8388;display:inline" /><path
       display="inline"
       d="M 28,28 H 16 c -0.276,0 -0.5,-0.224 -0.5,-0.5 0,-0.276 0.224,-0.5 0.5,-0.5 h 12 c 0.276,0 0.5,0.224 0.5,0.5 0,0.276 -0.224,0.5 -0.5,0.5 z"
       id="path27"
       inkscape:connector-curvature="0"
       style="fill:#6f8388;display:inline" /><path
       display="inline"
       d="M 44,28 H 32 c -0.276,0 -0.5,-0.224 -0.5,-0.5 0,-0.276 0.224,-0.5 0.5,-0.5 h 12 c 0.276,0 0.5,0.224 0.5,0.5 0,0.276 -0.224,0.5 -0.5,0.5 z"
       id="path29"
       inkscape:connector-curvature="0"
       style="fill:#6f8388;display:inline" /><path
       display="inline"
       d="M 28,34 V 47 H 15 V 34 h 13 m 1,-1 H 14 V 48 H 29 V 33 l 0,0 z"
       id="path31"
       inkscape:connector-curvature="0"
       style="fill:#6f8388;display:inline" /><path
       display="inline"
       d="M 45,34 V 47 H 32 V 34 h 13 m 1,-1 H 31 V 48 H 46 V 33 l 0,0 z"
       id="path33"
       inkscape:connector-curvature="0"
       style="fill:#6f8388;display:inline" /><path
       display="inline"
       d="m 18.922,44.785 -2.338,-3.507 c -0.153,-0.23 -0.091,-0.54 0.139,-0.693 0.229,-0.154 0.54,-0.091 0.693,0.139 l 1.662,2.493 6.569,-6.569 c 0.195,-0.195 0.512,-0.195 0.707,0 0.195,0.195 0.195,0.512 0,0.707 l -7.432,7.43 z"
       id="path35"
       inkscape:connector-curvature="0"
       style="fill:#6f8388;display:inline" /><path
       display="inline"
       d="m 35.922,44.785 -2.338,-3.507 c -0.153,-0.23 -0.091,-0.54 0.139,-0.693 0.228,-0.153 0.538,-0.092 0.693,0.139 l 1.662,2.493 6.568,-6.569 c 0.195,-0.195 0.512,-0.195 0.707,0 0.195,0.195 0.195,0.512 0,0.707 l -7.431,7.43 z"
       id="path37"
       inkscape:connector-curvature="0"
       style="fill:#6f8388;display:inline" /></g><g
     id="Layer_3"
     display="none"
     style="display:none"
     transform="translate(0,-28)"><g
       display="inline"
       id="g40"
       style="display:inline"><path
         d="m 16,30 c 0,0.552 0.448,1 1,1 h 27 c 0.552,0 1,-0.448 1,-1 0,-0.552 -0.448,-1 -1,-1 H 17 c -0.552,0 -1,0.448 -1,1 z"
         id="path42"
         inkscape:connector-curvature="0"
         style="fill:#6f8388" /><path
         d="m 17,36 h 21 c 0.552,0 1,-0.448 1,-1 0,-0.552 -0.448,-1 -1,-1 H 17 c -0.552,0 -1,0.448 -1,1 0,0.552 0.448,1 1,1 z"
         id="path44"
         inkscape:connector-curvature="0"
         style="fill:#6f8388" /><path
         d="m 16,25 c 0,0.552 0.448,1 1,1 h 21 c 0.552,0 1,-0.448 1,-1 0,-0.552 -0.448,-1 -1,-1 H 17 c -0.552,0 -1,0.448 -1,1 z"
         id="path46"
         inkscape:connector-curvature="0"
         style="fill:#6f8388" /><path
         d="M 44,39 H 17 c -0.552,0 -1,0.448 -1,1 0,0.552 0.448,1 1,1 h 27 c 0.552,0 1,-0.448 1,-1 0,-0.552 -0.448,-1 -1,-1 z"
         id="path48"
         inkscape:connector-curvature="0"
         style="fill:#6f8388" /><path
         d="M 44,49 H 17 c -0.552,0 -1,0.448 -1,1 0,0.552 0.448,1 1,1 h 27 c 0.552,0 1,-0.448 1,-1 0,-0.552 -0.448,-1 -1,-1 z"
         id="path50"
         inkscape:connector-curvature="0"
         style="fill:#6f8388" /><path
         d="m 17,46 h 21 c 0.552,0 1,-0.448 1,-1 0,-0.552 -0.448,-1 -1,-1 H 17 c -0.552,0 -1,0.448 -1,1 0,0.552 0.448,1 1,1 z"
         id="path52"
         inkscape:connector-curvature="0"
         style="fill:#6f8388" /><path
         d="M 37,0 H 9 C 7.343,0 6,1.343 6,3 v 54 c 0,1.657 1.343,3 3,3 h 43 c 1.657,0 3,-1.343 3,-3 V 18 L 37,0 z M 37,3.986 51.001,18 H 37 V 3.986 z M 52,57 H 8.997 V 2.985 H 36 V 19 h 16 v 38 z"
         id="path54"
         inkscape:connector-curvature="0"
         style="fill:#6f8388" /></g></g><g
     id="Layer_4"
     display="none"
     style="display:none"
     transform="translate(0,-28)"><g
       display="inline"
       id="g57"
       style="display:inline"><path
         d="m 17.194,52.053 c 0.883,0.515 1.807,0.98 2.748,1.384 l 0.395,-0.918 C 19.434,52.13 18.545,51.683 17.697,51.19 l -0.503,0.863 z"
         id="path59"
         inkscape:connector-curvature="0"
         style="fill:#6f8388" /><path
         d="M 15.235,49.553 C 15.227,49.547 15.22,49.54 15.212,49.534 l -2.89,-7.513 -1.742,2.904 C 10.113,44.319 9.665,43.695 9.258,43.051 l -0.846,0.533 c 0.464,0.736 0.978,1.448 1.517,2.135 l -3.264,1.958 9.192,3.536 -0.633,-1.646 0.011,-0.014 z"
         id="path61"
         inkscape:connector-curvature="0"
         style="fill:#6f8388" /><path
         d="m 22.835,54.479 c 0.983,0.288 1.993,0.519 3.001,0.684 l 0.162,-0.986 c -0.969,-0.159 -1.938,-0.38 -2.882,-0.656 l -0.281,0.958 z"
         id="path63"
         inkscape:connector-curvature="0"
         style="fill:#6f8388" /><path
         d="M 7.836,40.458 C 7.416,39.565 7.046,38.642 6.738,37.71 L 5.79,38.024 c 0.32,0.969 0.705,1.932 1.143,2.859 l 0.903,-0.425 z"
         id="path65"
         inkscape:connector-curvature="0"
         style="fill:#6f8388" /><path
         d="M 24.928,5.007 C 24.872,5.018 24.816,5.035 24.759,5.046 22.191,1.964 18.326,0 14,0 6.268,0 0,6.268 0,14 0,21.732 6.268,28 14,28 21.732,28 28,21.732 28,14 28,10.734 26.873,7.737 24.998,5.356 L 24.928,5.007 z M 14,25 c -3.937,0 -7.387,-2.086 -9.331,-5.203 1.393,-1.786 4.688,-1.592 7.049,-2.606 0.081,-0.426 0.163,-1.013 0.149,-1.582 -0.497,-0.584 -0.883,-1.343 -1.1,-2.208 -0.282,-0.56 -0.484,-1.202 -0.628,-1.889 -0.052,-0.245 0.12,-0.313 0.455,-0.296 0.006,-0.071 0.012,-0.142 0.021,-0.213 V 9.362 c 0,0 -0.12,-1.529 1.02,-2.339 1.139,-0.81 2.069,-1.11 2.728,-1.11 0.659,0 1.679,0.269 2.339,0.989 0.66,0.72 1.139,1.56 1.139,1.949 0,0.326 0,1.829 0,2.309 0.385,-0.022 0.583,0.057 0.521,0.35 -0.159,0.752 -0.398,1.451 -0.741,2.048 -0.221,0.834 -0.594,1.563 -1.073,2.121 0.006,0.553 0.092,1.138 0.169,1.556 2.351,0.969 5.352,0.782 6.642,2.514 C 21.421,22.894 17.956,25 14,25 z"
         id="path67"
         inkscape:connector-curvature="0"
         style="fill:#6f8388" /><path
         d="M 5.58,31.979 5.575,31.914 4.582,32.049 c 0.082,1.009 0.223,2.018 0.42,2.999 l 0.98,-0.197 C 5.793,33.908 5.658,32.938 5.58,31.979 z"
         id="path69"
         inkscape:connector-curvature="0"
         style="fill:#6f8388" /><path
         d="M 5.82,26.023 4.833,25.861 c -0.165,1.008 -0.27,2.038 -0.312,3.062 L 5.52,28.964 C 5.561,27.98 5.661,26.99 5.82,26.023 z"
         id="path71"
         inkscape:connector-curvature="0"
         style="fill:#6f8388" /><path
         d="m 54.42,28.029 0.007,0.096 0.499,-0.039 0.491,-0.135 C 55.334,26.929 55.19,25.904 54.988,24.904 l -0.98,0.199 c 0.194,0.96 0.333,1.946 0.412,2.926 z"
         id="path73"
         inkscape:connector-curvature="0"
         style="fill:#6f8388" /><path
         d="m 31.012,5.519 0.041,-1 c -0.319,-0.013 -0.64,-0.02 -0.961,-0.02 -0.685,0.003 -1.414,0.025 -2.116,0.082 l 0.079,0.996 c 0.655,-0.052 1.319,-0.078 1.975,-0.078 0.33,0.001 0.656,0.006 0.982,0.02 z"
         id="path75"
         inkscape:connector-curvature="0"
         style="fill:#6f8388" /><path
         d="m 44.728,10.42 c 0.021,0.016 0.041,0.034 0.062,0.049 l 2.888,7.51 1.742,-2.904 c 0.456,0.592 0.896,1.201 1.296,1.834 l 0.845,-0.535 c -0.458,-0.723 -0.963,-1.42 -1.491,-2.093 l 3.265,-1.959 -9.192,-3.536 0.614,1.596 -0.029,0.038 z"
         id="path77"
         inkscape:connector-curvature="0"
         style="fill:#6f8388" /><path
         d="m 54.173,34.023 0.986,0.164 c 0.167,-1.009 0.274,-2.039 0.318,-3.062 l -0.999,-0.043 c -0.041,0.983 -0.145,1.974 -0.305,2.941 z"
         id="path79"
         inkscape:connector-curvature="0"
         style="fill:#6f8388" /><path
         d="m 52.145,19.502 c 0.42,0.885 0.791,1.809 1.102,2.744 l 0.949,-0.316 c -0.324,-0.974 -0.71,-1.935 -1.148,-2.857 l -0.903,0.429 z"
         id="path81"
         inkscape:connector-curvature="0"
         style="fill:#6f8388" /><path
         d="M 37.118,5.506 C 36.138,5.221 35.127,4.993 34.116,4.828 l -0.161,0.986 c 0.972,0.159 1.942,0.378 2.884,0.652 l 0.279,-0.96 z"
         id="path83"
         inkscape:connector-curvature="0"
         style="fill:#6f8388" /><path
         d="m 28.94,54.479 -0.042,1 c 0.356,0.015 0.714,0.022 1.074,0.022 0.66,0 1.334,-0.026 2.004,-0.078 l -0.077,-0.996 c -0.994,0.076 -1.987,0.094 -2.959,0.052 z"
         id="path85"
         inkscape:connector-curvature="0"
         style="fill:#6f8388" /><path
         d="M 42.763,7.922 C 41.875,7.407 40.95,6.943 40.013,6.543 l -0.393,0.92 c 0.9,0.385 1.789,0.83 2.642,1.324 l 0.501,-0.865 z"
         id="path87"
         inkscape:connector-curvature="0"
         style="fill:#6f8388" /><path
         d="m 46,32 c -7.732,0 -14,6.268 -14,14 0,3.225 1.102,6.187 2.934,8.554 l 0.09,0.448 c 0.072,-0.014 0.143,-0.035 0.216,-0.05 C 37.807,58.035 41.674,60 46,60 53.732,60 60,53.732 60,46 60,38.268 53.732,32 46,32 z m 0,25 c -3.937,0 -7.387,-2.086 -9.331,-5.203 1.393,-1.786 4.688,-1.592 7.049,-2.606 0.081,-0.426 0.163,-1.013 0.149,-1.582 -0.497,-0.584 -0.883,-1.343 -1.1,-2.208 -0.282,-0.56 -0.484,-1.202 -0.628,-1.889 -0.052,-0.245 0.12,-0.313 0.455,-0.296 0.006,-0.071 0.012,-0.142 0.021,-0.213 v -1.641 c 0,0 -0.12,-1.529 1.02,-2.339 1.139,-0.81 2.069,-1.11 2.728,-1.11 0.659,0 1.679,0.269 2.339,0.989 0.66,0.72 1.139,1.56 1.139,1.949 0,0.326 0,1.829 0,2.309 0.385,-0.022 0.583,0.057 0.521,0.35 -0.159,0.752 -0.398,1.451 -0.741,2.048 -0.221,0.834 -0.594,1.563 -1.073,2.121 0.006,0.553 0.092,1.138 0.169,1.556 2.351,0.969 5.352,0.782 6.642,2.514 C 53.421,54.894 49.956,57 46,57 z"
         id="path89"
         inkscape:connector-curvature="0"
         style="fill:#6f8388" /></g></g><g
     id="Layer_5"
     display="none"
     style="display:none"
     transform="translate(0,-28)"><path
       display="inline"
       d="m 27,14 v 4 h -5 v -4 h 5 m 1,-1 h -7 v 6 h 7 v -6 l 0,0 z"
       id="path92"
       inkscape:connector-curvature="0"
       style="fill:#6f8388;display:inline" /><path
       display="inline"
       d="m 38,14 v 4 h -5 v -4 h 5 m 1,-1 h -7 v 6 h 7 v -6 l 0,0 z"
       id="path94"
       inkscape:connector-curvature="0"
       style="fill:#6f8388;display:inline" /><path
       display="inline"
       d="m 27,23 v 4 h -5 v -4 h 5 m 1,-1 h -7 v 6 h 7 v -6 l 0,0 z"
       id="path96"
       inkscape:connector-curvature="0"
       style="fill:#6f8388;display:inline" /><path
       display="inline"
       d="m 38,23 v 4 h -5 v -4 h 5 m 1,-1 h -7 v 6 h 7 v -6 l 0,0 z"
       id="path98"
       inkscape:connector-curvature="0"
       style="fill:#6f8388;display:inline" /><path
       display="inline"
       d="m 27,32 v 4 h -5 v -4 h 5 m 1,-1 h -7 v 6 h 7 v -6 l 0,0 z"
       id="path100"
       inkscape:connector-curvature="0"
       style="fill:#6f8388;display:inline" /><path
       display="inline"
       d="m 38,32 v 4 h -5 v -4 h 5 m 1,-1 h -7 v 6 h 7 v -6 l 0,0 z"
       id="path102"
       inkscape:connector-curvature="0"
       style="fill:#6f8388;display:inline" /><g
       display="inline"
       id="g104"
       style="display:inline"><path
         d="M 47,5 V 3 H 13 v 2 h 2 v 53 h -2 v 2 H 47 V 58 H 45 V 5 h 2 z M 33,58 H 27 V 48 h 6 v 10 z m 10,0 H 34 V 48 h 2 c 0.276,0 0.5,-0.224 0.5,-0.5 C 36.5,47.224 36.276,47 36,47 h -2 -2.793 l 3.389,-3.389 c 0.195,-0.195 0.195,-0.512 0,-0.707 -0.195,-0.195 -0.512,-0.195 -0.707,0 L 30.5,46.293 V 41.5 C 30.5,41.224 30.276,41 30,41 c -0.276,0 -0.5,0.224 -0.5,0.5 v 4.793 l -3.389,-3.389 c -0.195,-0.195 -0.512,-0.195 -0.707,0 -0.195,0.195 -0.195,0.512 0,0.707 L 28.793,47 H 26 24 c -0.276,0 -0.5,0.224 -0.5,0.5 0,0.276 0.224,0.5 0.5,0.5 h 2 V 58 H 17 V 5 h 26 v 53 z"
         id="path106"
         inkscape:connector-curvature="0"
         style="fill:#6f8388" /><rect
         x="15"
         width="30"
         height="2"
         id="rect108"
         y="0"
         style="fill:#6f8388" /></g></g><g
     id="Layer_6"
     display="none"
     style="display:none"
     transform="translate(0,-28)"><path
       display="inline"
       d="M 30,0 C 13.431,0 0,13.431 0,30 0,46.569 13.431,60 30,60 46.569,60 60,46.569 60,30 60,13.431 46.569,0 30,0 z m 0,55 C 21.294,55 13.617,50.524 9.139,43.756 c 2.186,-5.457 10.286,-4.699 15.921,-7.12 0.173,-0.913 0.35,-2.171 0.32,-3.39 -1.065,-1.251 -1.891,-2.878 -2.358,-4.731 -0.604,-1.2 -1.037,-2.576 -1.347,-4.049 -0.11,-0.525 0.257,-0.67 0.974,-0.633 0.013,-0.153 0.027,-0.305 0.044,-0.456 V 19.86 c 0,0 -0.257,-3.278 2.185,-5.012 2.442,-1.735 4.433,-2.378 5.847,-2.378 1.414,0 3.598,0.577 5.012,2.12 1.414,1.543 2.441,3.342 2.441,4.177 0,0.699 0,3.919 0,4.949 0.825,-0.047 1.248,0.123 1.116,0.749 -0.34,1.611 -0.853,3.109 -1.587,4.388 -0.474,1.787 -1.273,3.35 -2.299,4.545 0.013,1.186 0.198,2.439 0.363,3.335 5.624,2.317 13.076,1.586 15.156,6.916 C 46.461,50.477 38.751,55 30,55 z"
       id="path111"
       inkscape:connector-curvature="0"
       style="fill:#6f8388;display:inline" /></g><g
     id="Layer_7"
     transform="matrix(0.53333333,0,0,0.53333333,0.14406779,0.55508474)"><g
       id="g114"><path
         d="m 17,32 h 27 c 0.552,0 1,-0.448 1,-1 0,-0.552 -0.448,-1 -1,-1 H 17 c -0.552,0 -1,0.448 -1,1 0,0.552 0.448,1 1,1 z"
         id="path116"
         inkscape:connector-curvature="0"
         style="fill:#6f8388" /><path
         d="m 17,37 h 21 c 0.552,0 1,-0.448 1,-1 0,-0.552 -0.448,-1 -1,-1 H 17 c -0.552,0 -1,0.448 -1,1 0,0.552 0.448,1 1,1 z"
         id="path118"
         inkscape:connector-curvature="0"
         style="fill:#6f8388" /><path
         d="m 17,42 h 27 c 0.552,0 1,-0.448 1,-1 0,-0.552 -0.448,-1 -1,-1 H 17 c -0.552,0 -1,0.448 -1,1 0,0.552 0.448,1 1,1 z"
         id="path120"
         inkscape:connector-curvature="0"
         style="fill:#6f8388" /><path
         d="m 17,47 h 21 c 0.552,0 1,-0.448 1,-1 0,-0.552 -0.448,-1 -1,-1 H 17 c -0.552,0 -1,0.448 -1,1 0,0.552 0.448,1 1,1 z"
         id="path122"
         inkscape:connector-curvature="0"
         style="fill:#6f8388" /></g><path
       d="M 57,5 H 46 V 3.001 C 46,3 46,3 46,3 46,1.895 45.104,1 44,1 42.896,1 42,1.895 42,3 V 5 H 18 V 3.001 C 18,3 18,3 18,3 18,1.895 17.105,1 16,1 14.896,1 14,1.895 14,3 h 0 V 5 H 3 C 1.343,5 0,6.343 0,8 v 48 c 0,1.657 1.343,3 3,3 h 54 c 1.657,0 3,-1.343 3,-3 V 8 C 60,6.343 58.657,5 57,5 z M 42,8.422 V 13 c 0,0 0,0 0,0 0,1.105 0.896,2 2,2 1.104,0 2,-0.895 2,-2 0,0 0,0 0,-10e-4 V 8.422 c 1.764,0.772 3,2.529 3,4.578 0,2.761 -2.239,5 -5,5 -2.761,0 -5,-2.239 -5,-5 0,-2.049 1.236,-3.806 3,-4.578 z m -28,0 V 13 h 0 c 0,0 0,0 0,0 0,1.105 0.895,2 2,2 1.105,0 2,-0.895 2,-2 0,0 0,0 0,-10e-4 V 8.422 c 1.764,0.772 3,2.529 3,4.578 0,2.761 -2.239,5 -5,5 -2.761,0 -5,-2.239 -5,-5 0,-2.049 1.236,-3.806 3,-4.578 z M 56,55 H 4 V 21 h 52 v 34 z"
       id="path124"
       inkscape:connector-curvature="0"
       style="fill:#6f8388" /></g></svg>