<?xml version="1.0" encoding="utf-8"?>
<!-- Generator: Adobe Illustrator 18.1.1, SVG Export Plug-In . SVG Version: 6.00 Build 0)  -->
<!DOCTYPE svg PUBLIC "-//W3C//DTD SVG 1.1//EN" "http://www.w3.org/Graphics/SVG/1.1/DTD/svg11.dtd">
<svg version="1.1" id="Layer_1" xmlns="http://www.w3.org/2000/svg" xmlns:xlink="http://www.w3.org/1999/xlink" x="0px" y="0px"
	 width="32px" height="32px" viewBox="-404 282.3 32 32" enable-background="new -404 282.3 32 32" xml:space="preserve">
<g>
	<path fill="#EAEAEA" d="M-382,282.3h-16c-1.1,0-2,0.9-2,2v10h18c1.1,0,2,0.9,2,2v13c0,1.1-0.9,2-2,2h-18v1c0,1.1,0.9,2,2,2h24
		c1.1,0,2-0.9,2-2v-20L-382,282.3z"/>
	<path fill="#6F8388" d="M-382,282.3v8c0,1.1,0.9,2,2,2h8L-382,282.3z"/>
	<path fill="#84BF56" d="M-382,308.3c0,0.6-0.4,1-1,1h-20c-0.6,0-1-0.4-1-1v-11c0-0.6,0.4-1,1-1h20c0.6,0,1,0.4,1,1V308.3z"/>
	<g>
		<path fill="#FFFFFF" d="M-388,302.3c-0.6,0-1-0.4-1-1s0.4-1,1-1h1.5c0.3,0,0.5-0.2,0.5-0.5s-0.2-0.5-0.5-0.5h-1.5
			c-1.1,0-2,0.9-2,2s0.9,2,2,2c0.6,0,1,0.4,1,1s-0.4,1-1,1h-1.5c-0.3,0-0.5,0.2-0.5,0.5s0.2,0.5,0.5,0.5h1.5c1.1,0,2-0.9,2-2
			S-386.9,302.3-388,302.3z"/>
		<path fill="#FFFFFF" d="M-391.5,305.3h-2.5v-5.5c0-0.3-0.2-0.5-0.5-0.5s-0.5,0.2-0.5,0.5v6c0,0.3,0.2,0.5,0.5,0.5h3
			c0.3,0,0.5-0.2,0.5-0.5S-391.2,305.3-391.5,305.3z"/>
		<path fill="#FFFFFF" d="M-396.1,305.5l-1.8-2.9l1.7-2.6c0.1-0.2,0.1-0.5-0.2-0.7c-0.3-0.1-0.6-0.1-0.7,0.2l-1.3,2.1l-1.3-2.1
			c-0.1-0.2-0.5-0.3-0.7-0.2c-0.3,0.1-0.3,0.4-0.2,0.7l1.7,2.6l-1.8,2.9c-0.1,0.2-0.1,0.5,0.2,0.7c0.3,0.1,0.6,0.1,0.7-0.2l1.5-2.4
			l1.5,2.4c0.1,0.2,0.5,0.3,0.7,0.2C-396,306.1-395.9,305.8-396.1,305.5z"/>
	</g>
</g>
</svg>
