<?xml version="1.0" encoding="utf-8"?>
<!-- Generator: Adobe Illustrator 18.1.1, SVG Export Plug-In . SVG Version: 6.00 Build 0)  -->
<!DOCTYPE svg PUBLIC "-//W3C//DTD SVG 1.1//EN" "http://www.w3.org/Graphics/SVG/1.1/DTD/svg11.dtd">
<svg version="1.1" id="Layer_1" xmlns="http://www.w3.org/2000/svg" xmlns:xlink="http://www.w3.org/1999/xlink" x="0px" y="0px"
	 width="32px" height="32px" viewBox="-404 282.3 32 32" enable-background="new -404 282.3 32 32" xml:space="preserve">
<g>
	<path fill="#EAEAEA" d="M-382,282.3h-16c-1.1,0-2,0.9-2,2v10h18c1.1,0,2,0.9,2,2v13c0,1.1-0.9,2-2,2h-18v1c0,1.1,0.9,2,2,2h24
		c1.1,0,2-0.9,2-2v-20L-382,282.3z"/>
	<path fill="#6F8388" d="M-382,282.3v8c0,1.1,0.9,2,2,2h8L-382,282.3z"/>
	<path fill="#469FCC" d="M-382,308.3c0,0.6-0.4,1-1,1h-20c-0.6,0-1-0.4-1-1v-11c0-0.6,0.4-1,1-1h20c0.6,0,1,0.4,1,1V308.3z"/>
	<g>
		<path fill="#FFFFFF" d="M-398,299.3h-1.5c-0.3,0-0.5,0.2-0.5,0.5v6c0,0.3,0.2,0.5,0.5,0.5h1.5c1.1,0,2-0.9,2-2v-3
			C-396,300.2-396.9,299.3-398,299.3z M-398,305.3h-1v-5h1c0.6,0,1,0.4,1,1v3C-397,304.8-397.4,305.3-398,305.3z"/>
		<path fill="#FFFFFF" d="M-393,299.3L-393,299.3c-1.1,0-2,0.9-2,2v3c0,1.1,0.9,2,2,2l0,0c1.1,0,2-0.9,2-2v-3
			C-391,300.2-391.9,299.3-393,299.3z M-392,304.3c0,0.6-0.4,1-1,1l0,0c-0.6,0-1-0.4-1-1v-3c0-0.6,0.4-1,1-1l0,0c0.6,0,1,0.4,1,1
			V304.3z"/>
		<path fill="#FFFFFF" d="M-388,305.3L-388,305.3c-0.6,0-1-0.4-1-1v-3c0-0.6,0.4-1,1-1l0,0c0.6,0,1,0.4,1,1h1c0-1.1-0.9-2-2-2l0,0
			c-1.1,0-2,0.9-2,2v3c0,1.1,0.9,2,2,2l0,0c1.1,0,2-0.9,2-2h-1C-387,304.8-387.4,305.3-388,305.3z"/>
	</g>
</g>
</svg>
