<?xml version="1.0" encoding="utf-8"?>
<!-- Generator: Adobe Illustrator 18.1.1, SVG Export Plug-In . SVG Version: 6.00 Build 0)  -->
<!DOCTYPE svg PUBLIC "-//W3C//DTD SVG 1.1//EN" "http://www.w3.org/Graphics/SVG/1.1/DTD/svg11.dtd">
<svg version="1.1" id="Layer_1" xmlns="http://www.w3.org/2000/svg" xmlns:xlink="http://www.w3.org/1999/xlink" x="0px" y="0px"
	 width="32px" height="32px" viewBox="-404 282.3 32 32" enable-background="new -404 282.3 32 32" xml:space="preserve">
<g>
	<path fill="#469FCC" d="M-384,282.3h-16c-1.1,0-2,0.9-2,2v28c0,1.1,0.9,2,2,2h24c1.1,0,2-0.9,2-2v-20L-384,282.3z"/>
	<path fill="#6F8388" d="M-384,282.3v8c0,1.1,0.9,2,2,2h8L-384,282.3z"/>
	<circle fill="#FFFFFF" cx="-386" cy="297.3" r="3"/>
	<g>
		<path fill="#FFFFFF" d="M-398,310.3h20l0-3.6l-2.8-2.8c-0.8-0.8-2-0.8-2.8,0l-2.9,2.9l-5.9-5.9c-0.8-0.8-2-0.8-2.8,0l-2.7,2.7
			L-398,310.3z"/>
	</g>
</g>
</svg>
