<?xml version="1.0" encoding="utf-8"?>
<!-- Generator: Adobe Illustrator 16.0.0, SVG Export Plug-In . SVG Version: 6.00 Build 0)  -->
<!DOCTYPE svg PUBLIC "-//W3C//DTD SVG 1.0//EN" "http://www.w3.org/TR/2001/REC-SVG-20010904/DTD/svg10.dtd">
<svg version="1.0" id="Layer_1" xmlns="http://www.w3.org/2000/svg" xmlns:xlink="http://www.w3.org/1999/xlink" x="0px" y="0px"
	 width="32px" height="32px" viewBox="0 0 32 32" enable-background="new 0 0 32 32" xml:space="preserve">
<g>
	<path fill="#EAEAEA" d="M20,0H4C2.896,0,2,0.896,2,2v28c0,1.104,0.896,2,2,2h24c1.104,0,2-0.896,2-2V10L20,0z"/>
	<path fill="#434854" d="M20,0v8c0,1.104,0.896,2,2,2h8L20,0z"/>
	<polygon opacity="0.1" points="22,10 30,18 30,10 	"/>
	<g opacity="0.1">
		<path d="M7,8h8c0.553,0,1-0.447,1-1s-0.447-1-1-1H7C6.447,6,6,6.447,6,7S6.447,8,7,8z"/>
		<path d="M7,12h8c0.553,0,1-0.447,1-1s-0.447-1-1-1H7c-0.553,0-1,0.447-1,1S6.447,12,7,12z"/>
		<path d="M7,16h18c0.553,0,1-0.447,1-1s-0.447-1-1-1H7c-0.553,0-1,0.447-1,1S6.447,16,7,16z"/>
		<path d="M25,18H7c-0.553,0-1,0.447-1,1s0.447,1,1,1h18c0.553,0,1-0.447,1-1S25.553,18,25,18z"/>
		<path d="M25,22H7c-0.553,0-1,0.447-1,1s0.447,1,1,1h18c0.553,0,1-0.447,1-1S25.553,22,25,22z"/>
		<path d="M25,26H7c-0.553,0-1,0.447-1,1s0.447,1,1,1h18c0.553,0,1-0.447,1-1S25.553,26,25,26z"/>
	</g>
</g>
<g>
</g>
<g>
</g>
<g>
</g>
<g>
</g>
<g>
</g>
<g>
</g>
</svg>
