<?xml version="1.0" encoding="utf-8"?>
<!-- Generator: Adobe Illustrator 18.1.1, SVG Export Plug-In . SVG Version: 6.00 Build 0)  -->
<!DOCTYPE svg PUBLIC "-//W3C//DTD SVG 1.1//EN" "http://www.w3.org/Graphics/SVG/1.1/DTD/svg11.dtd">
<svg version="1.1" id="Layer_1" xmlns="http://www.w3.org/2000/svg" xmlns:xlink="http://www.w3.org/1999/xlink" x="0px" y="0px"
	 width="32px" height="32px" viewBox="-404 282.3 32 32" enable-background="new -404 282.3 32 32" xml:space="preserve">
<g>
	<path fill="#EAEAEA" d="M-382,282.3h-16c-1.1,0-2,0.9-2,2v10h18c1.1,0,2,0.9,2,2v13c0,1.1-0.9,2-2,2h-18v1c0,1.1,0.9,2,2,2h24
		c1.1,0,2-0.9,2-2v-20L-382,282.3z"/>
	<path fill="#6F8388" d="M-382,282.3v8c0,1.1,0.9,2,2,2h8L-382,282.3z"/>
	<path fill="#3AAD73" d="M-382,308.3c0,0.6-0.4,1-1,1h-20c-0.6,0-1-0.4-1-1v-11c0-0.6,0.4-1,1-1h20c0.6,0,1,0.4,1,1V308.3z"/>
	<g>
		<path fill="#FFFFFF" d="M-394,299.3h-1.5c-0.3,0-0.5,0.2-0.5,0.5v6c0,0.3,0.2,0.5,0.5,0.5s0.5-0.2,0.5-0.5v-2.5h1c1.1,0,2-0.9,2-2
			S-392.9,299.3-394,299.3z M-394,302.3h-1v-2h1c0.6,0,1,0.4,1,1S-393.4,302.3-394,302.3z"/>
		<path fill="#FFFFFF" d="M-386,303.3h-2.5c-0.3,0-0.5,0.2-0.5,0.5s0.2,0.5,0.5,0.5h1.5l0,0c0,0.6-0.4,1-1,1h-1c-0.6,0-1-0.4-1-1v-3
			c0-0.6,0.4-1,1-1h1c0.6,0,1,0.4,1,1c0,0.3,0.2,0.5,0.5,0.5s0.5-0.2,0.5-0.5c0-1.1-0.9-2-2-2h-1c-1.1,0-2,0.9-2,2v3
			c0,1.1,0.9,2,2,2h1c1.1,0,2-0.9,2-2l0,0c0.3,0,0.5-0.2,0.5-0.5S-385.7,303.3-386,303.3z"/>
		<path fill="#FFFFFF" d="M-397.5,299.3c-0.3,0-0.5,0.2-0.5,0.5v4.5c0,0.6-0.4,1-1,1s-1-0.4-1-1v-0.5c0-0.3-0.2-0.5-0.5-0.5
			s-0.5,0.2-0.5,0.5v0.5c0,1.1,0.9,2,2,2s2-0.9,2-2v-4.5C-397,299.5-397.2,299.3-397.5,299.3z"/>
	</g>
</g>
</svg>
