<?xml version="1.0" encoding="utf-8"?>
<!-- Generator: Adobe Illustrator 18.1.1, SVG Export Plug-In . SVG Version: 6.00 Build 0)  -->
<!DOCTYPE svg PUBLIC "-//W3C//DTD SVG 1.1//EN" "http://www.w3.org/Graphics/SVG/1.1/DTD/svg11.dtd">
<svg version="1.1" id="Layer_1" xmlns="http://www.w3.org/2000/svg" xmlns:xlink="http://www.w3.org/1999/xlink" x="0px" y="0px"
	 width="32px" height="32px" viewBox="-404 282.3 32 32" enable-background="new -404 282.3 32 32" xml:space="preserve">
<g>
	<path fill="#70C8E1" d="M-372,312.3c0,1.1-0.9,2-2,2h-28c-1.1,0-2-0.9-2-2v-20c0-1.1,0.9-2,2-2h28c1.1,0,2,0.9,2,2V312.3z"/>
	<path fill="#6F8388" d="M-374,286.3h-14v-2c0-1.1-0.9-2-2-2h-12c-1.1,0-2,0.9-2,2v8c0-1.1,0.9-2,2-2h28c1.1,0,2,0.9,2,2v-4
		C-372,287.2-372.9,286.3-374,286.3z"/>
	<path opacity="0.3" enable-background="new    " d="M-374,289.3h-28c-1.1,0-2,0.9-2,2v1c0-1.1,0.9-2,2-2h28c1.1,0,2,0.9,2,2v-1
		C-372,290.2-372.9,289.3-374,289.3z"/>
	<rect x="-400" y="288.3" fill="#EAEAEA" width="24" height="2"/>
</g>
</svg>
