<?xml version="1.0" encoding="utf-8"?>
<!-- Generator: Adobe Illustrator 16.0.0, SVG Export Plug-In . SVG Version: 6.00 Build 0)  -->
<!DOCTYPE svg PUBLIC "-//W3C//DTD SVG 1.0//EN" "http://www.w3.org/TR/2001/REC-SVG-20010904/DTD/svg10.dtd">
<svg version="1.0" id="Layer_1" xmlns="http://www.w3.org/2000/svg" xmlns:xlink="http://www.w3.org/1999/xlink" x="0px" y="0px"
	 width="32px" height="32px" viewBox="0 0 32 32" enable-background="new 0 0 32 32" xml:space="preserve">
<g>
	<path fill="#EAEAEA" d="M22,0H6C4.896,0,4,0.896,4,2v10h18c1.104,0,2,0.896,2,2v13c0,1.104-0.896,2-2,2H4v1c0,1.104,0.896,2,2,2h24
		c1.104,0,2-0.896,2-2V10L22,0z"/>
	<path fill="#434854" d="M22,0v8c0,1.104,0.896,2,2,2h8L22,0z"/>
	<polygon opacity="0.1" points="24,10 32,18 32,10 	"/>
	<path fill="#EF4D4D" d="M22,26c0,0.553-0.447,1-1,1H1c-0.553,0-1-0.447-1-1V15c0-0.553,0.447-1,1-1h20c0.553,0,1,0.447,1,1V26z"/>
	<g>
		<path fill="#FFFFFF" d="M9,21H6.5C6.224,21,6,21.224,6,21.5S6.224,22,6.5,22H8l0,0c0,0.553-0.447,1-1,1H6c-0.553,0-1-0.447-1-1v-3
			c0-0.553,0.447-1,1-1h1c0.553,0,1,0.447,1,1c0,0.276,0.224,0.5,0.5,0.5S9,19.276,9,19c0-1.104-0.896-2-2-2H6c-1.104,0-2,0.896-2,2
			v3c0,1.104,0.896,2,2,2h1c1.104,0,2-0.896,2-2l0,0c0.276,0,0.5-0.224,0.5-0.5S9.276,21,9,21z"/>
		<path fill="#FFFFFF" d="M12,23.5c0,0.276-0.224,0.5-0.5,0.5l0,0c-0.276,0-0.5-0.224-0.5-0.5v-6c0-0.276,0.224-0.5,0.5-0.5l0,0
			c0.276,0,0.5,0.224,0.5,0.5V23.5z"/>
		<path fill="#FFFFFF" d="M17.5,17h-3c-0.276,0-0.5,0.224-0.5,0.5v6c0,0.276,0.224,0.5,0.5,0.5s0.5-0.224,0.5-0.5V21h1.5
			c0.276,0,0.5-0.224,0.5-0.5S16.776,20,16.5,20H15v-2h2.5c0.276,0,0.5-0.224,0.5-0.5S17.776,17,17.5,17z"/>
	</g>
</g>
<g>
</g>
<g>
</g>
<g>
</g>
<g>
</g>
<g>
</g>
<g>
</g>
</svg>
