<?xml version="1.0" encoding="UTF-8" standalone="no"?>
<!-- Generator: Adobe Illustrator 16.0.0, SVG Export Plug-In . SVG Version: 6.00 Build 0)  -->

<svg
   xmlns:dc="http://purl.org/dc/elements/1.1/"
   xmlns:cc="http://creativecommons.org/ns#"
   xmlns:rdf="http://www.w3.org/1999/02/22-rdf-syntax-ns#"
   xmlns:svg="http://www.w3.org/2000/svg"
   xmlns="http://www.w3.org/2000/svg"
   xmlns:sodipodi="http://sodipodi.sourceforge.net/DTD/sodipodi-0.dtd"
   xmlns:inkscape="http://www.inkscape.org/namespaces/inkscape"
   version="1.0"
   id="Layer_1"
   x="0px"
   y="0px"
   width="32px"
   height="32px"
   viewBox="0 0 32 32"
   enable-background="new 0 0 32 32"
   xml:space="preserve"
   inkscape:version="0.48.3.1 r9886"
   sodipodi:docname="glink.svg"><metadata
   id="metadata49"><rdf:RDF><cc:Work
       rdf:about=""><dc:format>image/svg+xml</dc:format><dc:type
         rdf:resource="http://purl.org/dc/dcmitype/StillImage" /></cc:Work></rdf:RDF></metadata><defs
   id="defs47" /><sodipodi:namedview
   pagecolor="#ffffff"
   bordercolor="#666666"
   borderopacity="1"
   objecttolerance="10"
   gridtolerance="10"
   guidetolerance="10"
   inkscape:pageopacity="0"
   inkscape:pageshadow="2"
   inkscape:window-width="1366"
   inkscape:window-height="679"
   id="namedview45"
   showgrid="false"
   inkscape:zoom="7.375"
   inkscape:cx="16"
   inkscape:cy="16"
   inkscape:window-x="0"
   inkscape:window-y="27"
   inkscape:window-maximized="1"
   inkscape:current-layer="g3" />
<g
   id="g3">
	<path
   fill="#EF4D4D"
   d="M20,0H4C2.896,0,2,0.896,2,2v28c0,1.104,0.896,2,2,2h24c1.104,0,2-0.896,2-2V10L20,0z"
   id="path5" />
	<path
   fill="#434854"
   d="M20,0v8c0,1.104,0.896,2,2,2h8L20,0z"
   id="path7" />
	<polygon
   opacity="0.15"
   points="22,10 30,18 30,10  "
   id="polygon9" />
	
<g
   id="g2986"
   transform="matrix(0.04761905,0,0,0.04761905,4.2163025,8.4462828)"><path
     d="m 296,95.983998 c 0,0 -73.472,0 -98.624,0 -45.12,0 -87.6,31.664002 -87.6,71.248002 0,40.448 30.752,71.904 76.656,71.904 3.2,0 6.304,-0.72 9.344,-0.944 -3.008,5.68 -5.088,11.792 -5.088,18.464 0,11.248 6.032,20.224 13.664,27.664 -5.728,0 -11.344,0.08 -17.44,0.08 C 131.024,284.416 88,319.984 88,356.896 c 0,36.352 47.168,59.12 103.056,59.12 63.728,0 98.928,-36.192 98.928,-72.544 0,-29.136 -8.608,-46.608 -35.184,-65.456 -9.104,-6.416 -26.496,-22.08 -26.496,-31.296 0,-10.784 3.072,-16.096 19.328,-28.8 16.624,-12.992 28.416,-28.496 28.416,-49.776 0,-25.296 -10.88,-56.16 -32.048,-56.16 h 36 L 296,95.983998 z M 262.896,337.168 c 0.768,3.392 1.232,6.864 1.232,10.384 0,29.376 -18.96,52.336 -73.28,52.336 -38.64,0 -66.528,-24.448 -66.528,-53.824 0,-28.784 34.608,-52.768 73.264,-52.336 8.992,0.096 17.408,1.552 25.024,3.984 20.976,14.608 36.016,22.848 40.288,39.456 z M 201.008,227.584 c -25.936,-0.752 -50.592,-29.008 -55.056,-63.04 -4.464,-34.08 12.928,-60.144 38.848,-59.376 25.92,0.8 50.592,28.128 55.056,62.176 4.48,34.048 -12.912,61.008 -38.848,60.24 z"
     id="path3197"
     style="fill:#ffffff"
     inkscape:connector-curvature="0" /><polygon
     id="polygon3199"
     points="24,18.993 24,15.993 27,15.993 27,13.993 24,13.993 24,10.993 22,10.993 22,13.993 19,13.993 19,15.993 22,15.993 22,18.993 "
     style="fill:#ffffff"
     transform="matrix(16,0,0,16,-8,-0.016)" /></g></g>
<g
   id="g33">
</g>
<g
   id="g35">
</g>
<g
   id="g37">
</g>
<g
   id="g39">
</g>
<g
   id="g41">
</g>
<g
   id="g43">
</g>
</svg>