<?xml version="1.0" encoding="UTF-8" standalone="no"?>
<!-- Generator: Adobe Illustrator 16.0.0, SVG Export Plug-In . SVG Version: 6.00 Build 0)  -->

<svg
   xmlns:dc="http://purl.org/dc/elements/1.1/"
   xmlns:cc="http://creativecommons.org/ns#"
   xmlns:rdf="http://www.w3.org/1999/02/22-rdf-syntax-ns#"
   xmlns:svg="http://www.w3.org/2000/svg"
   xmlns="http://www.w3.org/2000/svg"
   xmlns:sodipodi="http://sodipodi.sourceforge.net/DTD/sodipodi-0.dtd"
   xmlns:inkscape="http://www.inkscape.org/namespaces/inkscape"
   version="1.0"
   id="Layer_1"
   x="0px"
   y="0px"
   width="32px"
   height="32px"
   viewBox="0 0 32 32"
   enable-background="new 0 0 32 32"
   xml:space="preserve"
   inkscape:version="0.48.3.1 r9886"
   sodipodi:docname="odp.svg"><metadata
   id="metadata37"><rdf:RDF><cc:Work
       rdf:about=""><dc:format>image/svg+xml</dc:format><dc:type
         rdf:resource="http://purl.org/dc/dcmitype/StillImage" /></cc:Work></rdf:RDF></metadata><defs
   id="defs35" /><sodipodi:namedview
   pagecolor="#ffffff"
   bordercolor="#666666"
   borderopacity="1"
   objecttolerance="10"
   gridtolerance="10"
   guidetolerance="10"
   inkscape:pageopacity="0"
   inkscape:pageshadow="2"
   inkscape:window-width="1366"
   inkscape:window-height="679"
   id="namedview33"
   showgrid="false"
   showguides="true"
   inkscape:guide-bbox="true"
   inkscape:zoom="5.2149125"
   inkscape:cx="57.212938"
   inkscape:cy="15.049882"
   inkscape:window-x="0"
   inkscape:window-y="27"
   inkscape:window-maximized="1"
   inkscape:current-layer="g13"><sodipodi:guide
     orientation="0,1"
     position="11.841042,8.005887"
     id="guide3014" /></sodipodi:namedview>
<g
   id="g3">
	<path
   fill="#EAEAEA"
   d="M22,0H6C4.896,0,4,0.896,4,2v10h18c1.104,0,2,0.896,2,2v13c0,1.104-0.896,2-2,2H4v1c0,1.104,0.896,2,2,2h24   c1.104,0,2-0.896,2-2V10L22,0z"
   id="path5" />
	<path
   fill="#434854"
   d="M22,0v8c0,1.104,0.896,2,2,2h8L22,0z"
   id="path7" />
	<polygon
   opacity="0.1"
   points="24,10 32,18 32,10  "
   id="polygon9" />
	<path
   fill="#EF4D4D"
   d="M22,26c0,0.553-0.447,1-1,1H1c-0.553,0-1-0.447-1-1V15c0-0.553,0.447-1,1-1h20c0.553,0,1,0.447,1,1V26z"
   id="path11" />
	<g
   id="g13">
		
		<path
   d="m 16.429142,16.994113 h -1.5 c -0.276,0 -0.5,0.224 -0.5,0.5 v 6 c 0,0.276 0.224,0.5 0.5,0.5 0.276,0 0.5,-0.224 0.5,-0.5 v -2.5 h 1 c 1.104,0 2,-0.896 2,-2 0,-1.104 -0.896,-2 -2,-2 z m 0,3 h -1 v -2 h 1 c 0.553,0 1,0.447 1,1 0,0.553 -0.447,1 -1,1 z"
   id="path17"
   inkscape:connector-curvature="0"
   style="fill:#ffffff" />
		
	</g>
</g>
<g
   id="g21">
</g>
<g
   id="g23">
</g>
<g
   id="g25">
</g>
<g
   id="g27">
</g>
<g
   id="g29">
</g>
<g
   id="g31">
</g>
<path
   d="M 11.199804,16.994113 H 9.6998043 c -0.276,0 -0.5,0.224 -0.5,0.5 v 6 c 0,0.276 0.224,0.5 0.5,0.5 h 1.4999997 c 1.104,0 2,-0.896 2,-2 v -3 c 0,-1.104 -0.896,-2 -2,-2 z m 0,6 h -1 v -5 h 1 c 0.553,0 1,0.447 1,1 v 3 c 0,0.553 -0.447,1 -1,1 z"
   id="path15-4"
   inkscape:connector-curvature="0"
   style="fill:#ffffff" /><path
   d="m 5.9625163,16.994113 0,0 c -1.104,0 -2,0.896 -2,2 v 3 c 0,1.104 0.896,2 2,2 l 0,0 c 1.104,0 2,-0.896 2,-2 v -3 c 0,-1.104 -0.896,-2 -2,-2 z m 1,5 c 0,0.553 -0.447,1 -1,1 l 0,0 c -0.553,0 -1,-0.447 -1,-1 v -3 c 0,-0.553 0.447,-1 1,-1 l 0,0 c 0.553,0 1,0.447 1,1 v 3 z"
   id="path17-5"
   inkscape:connector-curvature="0"
   style="fill:#ffffff" /></svg>