<?xml version="1.0" encoding="utf-8"?>
<!-- Generator: Adobe Illustrator 16.0.0, SVG Export Plug-In . SVG Version: 6.00 Build 0)  -->
<!DOCTYPE svg PUBLIC "-//W3C//DTD SVG 1.0//EN" "http://www.w3.org/TR/2001/REC-SVG-20010904/DTD/svg10.dtd">
<svg version="1.0" id="Layer_1" xmlns="http://www.w3.org/2000/svg" xmlns:xlink="http://www.w3.org/1999/xlink" x="0px" y="0px"
	 width="32px" height="32px" viewBox="0 0 32 32" enable-background="new 0 0 32 32" xml:space="preserve">
<g>
	<path fill="#EAEAEA" d="M22,0H6C4.896,0,4,0.896,4,2v10h18c1.104,0,2,0.896,2,2v13c0,1.104-0.896,2-2,2H4v1c0,1.104,0.896,2,2,2h24
		c1.104,0,2-0.896,2-2V10L22,0z"/>
	<path fill="#434854" d="M22,0v8c0,1.104,0.896,2,2,2h8L22,0z"/>
	<polygon opacity="0.1" points="24,10 32,18 32,10 	"/>
	<path fill="#EACA44" d="M22,26c0,0.553-0.447,1-1,1H1c-0.553,0-1-0.447-1-1V15c0-0.553,0.447-1,1-1h20c0.553,0,1,0.447,1,1V26z"/>
	<g>
		<path fill="#FFFFFF" d="M5,17H3.5C3.224,17,3,17.224,3,17.5v6C3,23.776,3.224,24,3.5,24S4,23.776,4,23.5V21h1c1.104,0,2-0.896,2-2
			S6.104,17,5,17z M5,20H4v-2h1c0.553,0,1,0.447,1,1S5.553,20,5,20z"/>
		<path fill="#FFFFFF" d="M19,21h-2.5c-0.276,0-0.5,0.224-0.5,0.5s0.224,0.5,0.5,0.5H18l0,0c0,0.553-0.447,1-1,1h-1
			c-0.553,0-1-0.447-1-1v-3c0-0.553,0.447-1,1-1h1c0.553,0,1,0.447,1,1c0,0.276,0.224,0.5,0.5,0.5S19,19.276,19,19
			c0-1.104-0.896-2-2-2h-1c-1.104,0-2,0.896-2,2v3c0,1.104,0.896,2,2,2h1c1.104,0,2-0.896,2-2l0,0c0.276,0,0.5-0.224,0.5-0.5
			S19.276,21,19,21z"/>
		<path fill="#FFFFFF" d="M12.5,17c-0.276,0-0.5,0.224-0.5,0.5v4.295l-3.086-4.574c-0.008-0.014-0.021-0.02-0.031-0.031
			c-0.023-0.028-0.047-0.052-0.074-0.074c-0.025-0.02-0.049-0.036-0.076-0.051c-0.028-0.015-0.057-0.025-0.087-0.035
			c-0.034-0.01-0.065-0.018-0.101-0.021C8.529,17.008,8.516,17,8.5,17s-0.029,0.008-0.045,0.009c-0.033,0.003-0.066,0.011-0.1,0.021
			s-0.062,0.021-0.093,0.039c-0.014,0.007-0.028,0.008-0.042,0.018c-0.014,0.008-0.02,0.021-0.031,0.031
			c-0.028,0.023-0.052,0.047-0.074,0.074c-0.02,0.025-0.036,0.049-0.051,0.076c-0.015,0.028-0.025,0.057-0.035,0.087
			c-0.01,0.034-0.018,0.065-0.021,0.101C8.008,17.471,8,17.484,8,17.5v6C8,23.776,8.224,24,8.5,24S9,23.776,9,23.5v-4.364l3,4.447
			c0.006,0.009,0.015,0.013,0.021,0.021C12.07,23.828,12.26,24,12.5,24c0.276,0,0.5-0.224,0.5-0.5v-6C13,17.224,12.776,17,12.5,17z"
			/>
	</g>
</g>
<g>
</g>
<g>
</g>
<g>
</g>
<g>
</g>
<g>
</g>
<g>
</g>
</svg>
