<?xml version="1.0" encoding="utf-8"?>
<!-- Generator: Adobe Illustrator 16.0.0, SVG Export Plug-In . SVG Version: 6.00 Build 0)  -->
<!DOCTYPE svg PUBLIC "-//W3C//DTD SVG 1.0//EN" "http://www.w3.org/TR/2001/REC-SVG-20010904/DTD/svg10.dtd">
<svg version="1.0" id="Layer_1" xmlns="http://www.w3.org/2000/svg" xmlns:xlink="http://www.w3.org/1999/xlink" x="0px" y="0px"
	 width="32px" height="32px" viewBox="0 0 32 32" enable-background="new 0 0 32 32" xml:space="preserve">
<g>
	<path fill="#EAEAEA" d="M22,0H6C4.896,0,4,0.896,4,2v10h18c1.104,0,2,0.896,2,2v13c0,1.104-0.896,2-2,2H4v1c0,1.104,0.896,2,2,2h24
		c1.104,0,2-0.896,2-2V10L22,0z"/>
	<path fill="#434854" d="M22,0v8c0,1.104,0.896,2,2,2h8L22,0z"/>
	<polygon opacity="0.1" points="24,10 32,18 32,10 	"/>
	<path fill="#469FCC" d="M22,26c0,0.553-0.447,1-1,1H1c-0.553,0-1-0.447-1-1V15c0-0.553,0.447-1,1-1h20c0.553,0,1,0.447,1,1V26z"/>
	<g>
		<path fill="#FFFFFF" d="M6,17H4.5C4.224,17,4,17.224,4,17.5v6C4,23.776,4.224,24,4.5,24S5,23.776,5,23.5V21h1c1.104,0,2-0.896,2-2
			S7.104,17,6,17z M6,20H5v-2h1c0.553,0,1,0.447,1,1S6.553,20,6,20z"/>
		<path fill="#FFFFFF" d="M11,20c-0.553,0-1-0.447-1-1s0.447-1,1-1h1.5c0.276,0,0.5-0.224,0.5-0.5S12.776,17,12.5,17H11
			c-1.104,0-2,0.896-2,2s0.896,2,2,2c0.553,0,1,0.447,1,1s-0.447,1-1,1H9.5C9.224,23,9,23.224,9,23.5S9.224,24,9.5,24H11
			c1.104,0,2-0.896,2-2S12.104,20,11,20z"/>
		<path fill="#FFFFFF" d="M16,17h-1.5c-0.276,0-0.5,0.224-0.5,0.5v6c0,0.276,0.224,0.5,0.5,0.5H16c1.104,0,2-0.896,2-2v-3
			C18,17.896,17.104,17,16,17z M17,22c0,0.553-0.447,1-1,1h-1v-5h1c0.553,0,1,0.447,1,1V22z"/>
	</g>
</g>
<g>
</g>
<g>
</g>
<g>
</g>
<g>
</g>
<g>
</g>
<g>
</g>
</svg>
