<?xml version="1.0" encoding="utf-8"?>
<!-- Generator: Adobe Illustrator 16.0.0, SVG Export Plug-In . SVG Version: 6.00 Build 0)  -->
<!DOCTYPE svg PUBLIC "-//W3C//DTD SVG 1.0//EN" "http://www.w3.org/TR/2001/REC-SVG-20010904/DTD/svg10.dtd">
<svg version="1.0" id="Layer_1" xmlns="http://www.w3.org/2000/svg" xmlns:xlink="http://www.w3.org/1999/xlink" x="0px" y="0px"
	 width="32px" height="32px" viewBox="0 0 32 32" enable-background="new 0 0 32 32" xml:space="preserve">
<g>
	<path fill="#EAEAEA" d="M22,0H6C4.896,0,4,0.896,4,2v10h18c1.104,0,2,0.896,2,2v13c0,1.104-0.896,2-2,2H4v1c0,1.104,0.896,2,2,2h24
		c1.104,0,2-0.896,2-2V10L22,0z"/>
	<path fill="#434854" d="M22,0v8c0,1.104,0.896,2,2,2h8L22,0z"/>
	<polygon opacity="0.1" points="24,10 32,18 32,10 	"/>
	<path fill="#E29460" d="M22,26c0,0.553-0.447,1-1,1H1c-0.553,0-1-0.447-1-1V15c0-0.553,0.447-1,1-1h20c0.553,0,1,0.447,1,1V26z"/>
	<g>
		<path fill="#FFFFFF" d="M5,20c-0.553,0-1-0.447-1-1s0.447-1,1-1h1.5C6.776,18,7,17.776,7,17.5S6.776,17,6.5,17H5
			c-1.104,0-2,0.896-2,2s0.896,2,2,2c0.553,0,1,0.447,1,1s-0.447,1-1,1H3.5C3.224,23,3,23.224,3,23.5S3.224,24,3.5,24H5
			c1.104,0,2-0.896,2-2S6.104,20,5,20z"/>
		<path fill="#FFFFFF" d="M12.688,17.01c-0.257-0.104-0.548,0.02-0.651,0.276l-1.972,4.878l-1.971-4.878
			c-0.104-0.257-0.395-0.38-0.65-0.276c-0.257,0.104-0.381,0.395-0.277,0.65l2.436,6.027l0.002,0.002
			c0.022,0.057,0.057,0.105,0.099,0.15c0.003,0.004,0.005,0.01,0.009,0.014s0.01,0.006,0.014,0.01
			c0.045,0.041,0.095,0.076,0.15,0.099l0.002,0.001c0.016,0.006,0.03,0.004,0.045,0.009c0.047,0.015,0.094,0.027,0.145,0.026
			c0.037,0,0.072-0.012,0.107-0.02c0.027-0.006,0.053-0.004,0.078-0.015c0.002-0.001,0.003-0.002,0.005-0.003
			c0.039-0.016,0.072-0.045,0.106-0.07c0.071-0.055,0.131-0.121,0.164-0.201c0-0.001,0-0.002,0-0.002l2.436-6.027
			C13.066,17.404,12.943,17.113,12.688,17.01z"/>
		<path fill="#FFFFFF" d="M18,21h-2.5c-0.276,0-0.5,0.224-0.5,0.5s0.224,0.5,0.5,0.5H17l0,0c0,0.553-0.447,1-1,1h-1
			c-0.553,0-1-0.447-1-1v-3c0-0.553,0.447-1,1-1h1c0.553,0,1,0.447,1,1c0,0.276,0.224,0.5,0.5,0.5S18,19.276,18,19
			c0-1.104-0.896-2-2-2h-1c-1.104,0-2,0.896-2,2v3c0,1.104,0.896,2,2,2h1c1.104,0,2-0.896,2-2l0,0c0.276,0,0.5-0.224,0.5-0.5
			S18.276,21,18,21z"/>
	</g>
</g>
<g>
</g>
<g>
</g>
<g>
</g>
<g>
</g>
<g>
</g>
<g>
</g>
</svg>
