<?xml version="1.0" encoding="UTF-8" standalone="no"?>
<svg
   xmlns:dc="http://purl.org/dc/elements/1.1/"
   xmlns:cc="http://creativecommons.org/ns#"
   xmlns:rdf="http://www.w3.org/1999/02/22-rdf-syntax-ns#"
   xmlns:svg="http://www.w3.org/2000/svg"
   xmlns="http://www.w3.org/2000/svg"
   xmlns:sodipodi="http://sodipodi.sourceforge.net/DTD/sodipodi-0.dtd"
   xmlns:inkscape="http://www.inkscape.org/namespaces/inkscape"
   version="1.1"
   x="0px"
   y="0px"
   viewBox="0 0 32 32"
   enable-background="new 0 0 60 60"
   xml:space="preserve"
   height="32"
   width="32"
   id="svg2"
   inkscape:version="0.48.3.1 r9886"
   sodipodi:docname="task.svg"><metadata
     id="metadata43"><rdf:RDF><cc:Work
         rdf:about=""><dc:format>image/svg+xml</dc:format><dc:type
           rdf:resource="http://purl.org/dc/dcmitype/StillImage" /></cc:Work></rdf:RDF></metadata><defs
     id="defs41" /><sodipodi:namedview
     pagecolor="#ffffff"
     bordercolor="#666666"
     borderopacity="1"
     objecttolerance="10"
     gridtolerance="10"
     guidetolerance="10"
     inkscape:pageopacity="0"
     inkscape:pageshadow="2"
     inkscape:window-width="1366"
     inkscape:window-height="679"
     id="namedview39"
     showgrid="false"
     inkscape:zoom="5.5625733"
     inkscape:cx="-18.572074"
     inkscape:cy="54.529377"
     inkscape:window-x="0"
     inkscape:window-y="27"
     inkscape:window-maximized="1"
     inkscape:current-layer="svg2" /><g
     id="Layer_1"
     display="none"
     style="display:none"
     transform="translate(0,-28)"><g
       id="prod_7_"
       display="inline"
       style="display:inline"><polygon
         points="16,2.414 8.414,10 16,10 "
         id="polygon6"
         style="fill:none" /><polygon
         points="37,29.414 29.414,37 37,37 "
         id="polygon8"
         style="fill:none" /><polygon
         points="26,15.414 18.414,23 26,23 "
         id="polygon10"
         style="fill:none" /><polygon
         points="8,31 16,31 16,23 26,13 31,13 31,2 17,2 17,11 8,11 "
         id="polygon12"
         style="fill:none" /><path
         d="M 53,27 H 43 V 14 c 0,-0.552 -0.448,-1 -1,-1 H 33 V 1 C 33,0.448 32.552,0 32,0 H 16 L 6,10 v 22 c 0,0.552 0.448,1 1,1 h 9 v 12 c 0,0.552 0.448,1 1,1 h 10 v 13 c 0,0.552 0.448,1 1,1 h 25 c 0.552,0 1,-0.448 1,-1 V 28 c 0,-0.552 -0.448,-1 -1,-1 z M 16,2.414 V 10 H 8.414 L 16,2.414 z M 16,23 v 8 H 8 V 11 h 9 V 2 H 31 V 13 H 26 L 16,23 z M 26,15.414 V 23 H 18.414 L 26,15.414 z M 27,37 v 7 H 18 V 24 h 9 V 15 H 41 V 27 H 37 L 27,37 z M 37,29.414 V 37 H 29.414 L 37,29.414 z M 52,58 H 29 V 38 h 9 v -9 h 14 v 29 z"
         id="path14"
         inkscape:connector-curvature="0"
         style="fill:#6f8388" /></g></g><g
     id="Layer_2"
     transform="matrix(0.72727273,0,0,0.53333333,-5.7941832,0.03504362)"><path
       d="M 49.25,5 H 40 C 40,3.895 39.105,3 38,3 H 33 C 33,1.343 31.657,0 30,0 28.343,0 27,1.343 27,3 H 22 C 20.895,3 20,3.895 20,5 H 10.75 C 9.231,5 8,6.231 8,7.75 v 49.5 C 8,58.769 9.231,60 10.75,60 h 38.5 C 50.769,60 52,58.769 52,57.25 V 7.75 C 52,6.231 50.769,5 49.25,5 z M 30,1 c 1.103,0 2,0.897 2,2 H 28 C 28,1.897 28.897,1 30,1 z M 49,57 H 11 V 8 h 9 v 1 c 0,1.105 0.895,2 2,2 h 16 c 1.105,0 2,-0.895 2,-2 V 8 h 9 v 49 z"
       id="path17"
       inkscape:connector-curvature="0"
       style="fill:#6f8388" /><path
       d="M 28,20 H 16 c -0.276,0 -0.5,-0.224 -0.5,-0.5 0,-0.276 0.224,-0.5 0.5,-0.5 h 12 c 0.276,0 0.5,0.224 0.5,0.5 0,0.276 -0.224,0.5 -0.5,0.5 z"
       id="path19"
       inkscape:connector-curvature="0"
       style="fill:#6f8388" /><path
       d="M 44,20 H 32 c -0.276,0 -0.5,-0.224 -0.5,-0.5 0,-0.276 0.224,-0.5 0.5,-0.5 h 12 c 0.276,0 0.5,0.224 0.5,0.5 0,0.276 -0.224,0.5 -0.5,0.5 z"
       id="path21"
       inkscape:connector-curvature="0"
       style="fill:#6f8388" /><path
       d="M 28,24 H 16 c -0.276,0 -0.5,-0.224 -0.5,-0.5 0,-0.276 0.224,-0.5 0.5,-0.5 h 12 c 0.276,0 0.5,0.224 0.5,0.5 0,0.276 -0.224,0.5 -0.5,0.5 z"
       id="path23"
       inkscape:connector-curvature="0"
       style="fill:#6f8388" /><path
       d="M 44,24 H 32 c -0.276,0 -0.5,-0.224 -0.5,-0.5 0,-0.276 0.224,-0.5 0.5,-0.5 h 12 c 0.276,0 0.5,0.224 0.5,0.5 0,0.276 -0.224,0.5 -0.5,0.5 z"
       id="path25"
       inkscape:connector-curvature="0"
       style="fill:#6f8388" /><path
       d="M 28,28 H 16 c -0.276,0 -0.5,-0.224 -0.5,-0.5 0,-0.276 0.224,-0.5 0.5,-0.5 h 12 c 0.276,0 0.5,0.224 0.5,0.5 0,0.276 -0.224,0.5 -0.5,0.5 z"
       id="path27"
       inkscape:connector-curvature="0"
       style="fill:#6f8388" /><path
       d="M 44,28 H 32 c -0.276,0 -0.5,-0.224 -0.5,-0.5 0,-0.276 0.224,-0.5 0.5,-0.5 h 12 c 0.276,0 0.5,0.224 0.5,0.5 0,0.276 -0.224,0.5 -0.5,0.5 z"
       id="path29"
       inkscape:connector-curvature="0"
       style="fill:#6f8388" /><path
       d="M 28,34 V 47 H 15 V 34 h 13 m 1,-1 H 14 V 48 H 29 V 33 l 0,0 z"
       id="path31"
       inkscape:connector-curvature="0"
       style="fill:#6f8388" /><path
       d="M 45,34 V 47 H 32 V 34 h 13 m 1,-1 H 31 V 48 H 46 V 33 l 0,0 z"
       id="path33"
       inkscape:connector-curvature="0"
       style="fill:#6f8388" /><path
       d="m 18.922,44.785 -2.338,-3.507 c -0.153,-0.23 -0.091,-0.54 0.139,-0.693 0.229,-0.154 0.54,-0.091 0.693,0.139 l 1.662,2.493 6.569,-6.569 c 0.195,-0.195 0.512,-0.195 0.707,0 0.195,0.195 0.195,0.512 0,0.707 l -7.432,7.43 z"
       id="path35"
       inkscape:connector-curvature="0"
       style="fill:#6f8388" /><path
       d="m 35.922,44.785 -2.338,-3.507 c -0.153,-0.23 -0.091,-0.54 0.139,-0.693 0.228,-0.153 0.538,-0.092 0.693,0.139 l 1.662,2.493 6.568,-6.569 c 0.195,-0.195 0.512,-0.195 0.707,0 0.195,0.195 0.195,0.512 0,0.707 l -7.431,7.43 z"
       id="path37"
       inkscape:connector-curvature="0"
       style="fill:#6f8388" /></g></svg>