<?xml version="1.0" encoding="utf-8"?>
<!-- Generator: Adobe Illustrator 16.0.0, SVG Export Plug-In . SVG Version: 6.00 Build 0)  -->
<!DOCTYPE svg PUBLIC "-//W3C//DTD SVG 1.0//EN" "http://www.w3.org/TR/2001/REC-SVG-20010904/DTD/svg10.dtd">
<svg version="1.0" id="Layer_1" xmlns="http://www.w3.org/2000/svg" xmlns:xlink="http://www.w3.org/1999/xlink" x="0px" y="0px"
	 width="32px" height="32px" viewBox="0 0 32 32" enable-background="new 0 0 32 32" xml:space="preserve">
<g>
	<path fill="#EF4D4D" d="M20,0H4C2.896,0,2,0.896,2,2v28c0,1.104,0.896,2,2,2h24c1.104,0,2-0.896,2-2V10L20,0z"/>
	<path fill="#434854" d="M20,0v8c0,1.104,0.896,2,2,2h8L20,0z"/>
	<polygon opacity="0.15" points="22,10 30,18 30,10 	"/>
	<g>
		<rect x="20" y="25" fill="#FFFFFF" width="2" height="2"/>
		<rect x="20" y="22" fill="#FFFFFF" width="2" height="2"/>
		<rect x="20" y="19" fill="#FFFFFF" width="2" height="2"/>
		<rect x="20" y="16" fill="#FFFFFF" width="2" height="2"/>
		<rect x="10" y="25" fill="#FFFFFF" width="2" height="2"/>
		<rect x="10" y="22" fill="#FFFFFF" width="2" height="2"/>
		<rect x="10" y="19" fill="#FFFFFF" width="2" height="2"/>
		<rect x="10" y="16" fill="#FFFFFF" width="2" height="2"/>
		<rect x="13" y="22" fill="#FFFFFF" width="6" height="5"/>
		<rect x="13" y="16" fill="#FFFFFF" width="6" height="5"/>
	</g>
</g>
<g>
</g>
<g>
</g>
<g>
</g>
<g>
</g>
<g>
</g>
<g>
</g>
</svg>
