<?xml version="1.0" encoding="utf-8"?>
<!-- Generator: Adobe Illustrator 16.0.0, SVG Export Plug-In . SVG Version: 6.00 Build 0)  -->
<!DOCTYPE svg PUBLIC "-//W3C//DTD SVG 1.0//EN" "http://www.w3.org/TR/2001/REC-SVG-20010904/DTD/svg10.dtd">
<svg version="1.0" id="Layer_1" xmlns="http://www.w3.org/2000/svg" xmlns:xlink="http://www.w3.org/1999/xlink" x="0px" y="0px"
	 width="32px" height="32px" viewBox="0 0 32 32" enable-background="new 0 0 32 32" xml:space="preserve">
<g>
	<path fill="#EAEAEA" d="M22,0H6C4.896,0,4,0.896,4,2v10h18c1.104,0,2,0.896,2,2v13c0,1.104-0.896,2-2,2H4v1c0,1.104,0.896,2,2,2h24
		c1.104,0,2-0.896,2-2V10L22,0z"/>
	<path fill="#434854" d="M22,0v8c0,1.104,0.896,2,2,2h8L22,0z"/>
	<polygon opacity="0.1" points="24,10 32,18 32,10 	"/>
	<path fill="#84BF56" d="M22,26c0,0.553-0.447,1-1,1H1c-0.553,0-1-0.447-1-1V15c0-0.553,0.447-1,1-1h20c0.553,0,1,0.447,1,1V26z"/>
	<g>
		<path fill="#FFFFFF" d="M16,20c-0.553,0-1-0.447-1-1s0.447-1,1-1h1.5c0.276,0,0.5-0.224,0.5-0.5S17.776,17,17.5,17H16
			c-1.104,0-2,0.896-2,2s0.896,2,2,2c0.553,0,1,0.447,1,1s-0.447,1-1,1h-1.5c-0.276,0-0.5,0.224-0.5,0.5s0.224,0.5,0.5,0.5H16
			c1.104,0,2-0.896,2-2S17.104,20,16,20z"/>
		<path fill="#FFFFFF" d="M12.5,23H10v-5.5c0-0.276-0.224-0.5-0.5-0.5S9,17.224,9,17.5v6C9,23.776,9.224,24,9.5,24h3
			c0.276,0,0.5-0.224,0.5-0.5S12.776,23,12.5,23z"/>
		<path fill="#FFFFFF" d="M7.906,23.259l-1.797-2.866l1.653-2.636c0.147-0.235,0.06-0.538-0.196-0.675
			c-0.258-0.136-0.586-0.055-0.734,0.181l-1.343,2.142l-1.343-2.142c-0.148-0.235-0.478-0.316-0.734-0.181
			c-0.257,0.137-0.345,0.439-0.197,0.675l1.653,2.637l-1.796,2.865c-0.148,0.236-0.061,0.538,0.197,0.676
			c0.256,0.136,0.585,0.055,0.733-0.182l1.486-2.37l1.485,2.37c0.149,0.236,0.478,0.317,0.734,0.182
			C7.966,23.797,8.054,23.495,7.906,23.259z"/>
	</g>
</g>
<g>
</g>
<g>
</g>
<g>
</g>
<g>
</g>
<g>
</g>
<g>
</g>
</svg>
