<?xml version="1.0" encoding="utf-8"?>
<!-- Generator: Adobe Illustrator 16.0.0, SVG Export Plug-In . SVG Version: 6.00 Build 0)  -->
<!DOCTYPE svg PUBLIC "-//W3C//DTD SVG 1.0//EN" "http://www.w3.org/TR/2001/REC-SVG-20010904/DTD/svg10.dtd">
<svg version="1.0" id="Layer_1" xmlns="http://www.w3.org/2000/svg" xmlns:xlink="http://www.w3.org/1999/xlink" x="0px" y="0px"
	 width="32px" height="32px" viewBox="0 0 32 32" enable-background="new 0 0 32 32" xml:space="preserve">
<g>
	<path fill="#EDD87E" d="M30,30c0,1.104-0.896,2-2,2H4c-1.104,0-2-0.896-2-2V2c0-1.104,0.896-2,2-2h24c1.104,0,2,0.896,2,2V30z"/>
	<g opacity="0.15">
		<polygon points="18,7 16,9 18,9 		"/>
		<rect x="14" y="9" width="2" height="2"/>
		<rect x="16" y="11" width="2" height="2"/>
		<rect x="14" y="13" width="2" height="2"/>
	</g>
	<path fill="#FFFFFF" d="M19,15h-6c-0.553,0-1,0.447-1,1v11c0,0.553,0.447,1,1,1h6c0.553,0,1-0.447,1-1V16
		C20,15.447,19.553,15,19,15z M18,26h-4v-4h4V26z"/>
	<g opacity="0.2">
		<rect x="14" y="22" width="4" height="1"/>
		<path d="M19,28h-6c-0.553,0-1-0.447-1-1v1c0,0.553,0.447,1,1,1h6c0.553,0,1-0.447,1-1v-1C20,27.553,19.553,28,19,28z"/>
	</g>
	<polygon fill="#434854" points="25,0 16,9 7,0 	"/>
</g>
<g>
</g>
<g>
</g>
<g>
</g>
<g>
</g>
<g>
</g>
<g>
</g>
</svg>
