<svg version="1.1" xmlns="http://www.w3.org/2000/svg" xmlns:xlink="http://www.w3.org/1999/xlink" x="0px" y="0px" viewBox="0 0 60 60" enable-background="new 0 0 60 60" xml:space="preserve" width="60" height="60"><g id="Layer_1" display="none"><g id="prod_7_" display="inline"><polygon fill="none" points="16,2.414 8.414,10 16,10"/><polygon fill="none" points="37,29.414 29.414,37 37,37"/><polygon fill="none" points="26,15.414 18.414,23 26,23"/><polygon fill="none" points="26,13 31,13 31,2 17,2 17,11 8,11 8,31 16,31 16,23"/><path fill="#6F8388" d="M53,27H43V14c0-0.552-0.448-1-1-1h-9V1c0-0.552-0.448-1-1-1H16L6,10v22c0,0.552,0.448,1,1,1h9v12 c0,0.552,0.448,1,1,1h10v13c0,0.552,0.448,1,1,1h25c0.552,0,1-0.448,1-1V28C54,27.448,53.552,27,53,27z M16,2.414V10H8.414 L16,2.414z M16,23v8H8V11h9V2h14v11h-5L16,23z M26,15.414V23h-7.586L26,15.414z M27,37v7h-9V24h9v-9h14v12h-4L27,37z M37,29.414 V37h-7.586L37,29.414z M52,58H29V38h9v-9h14V58z"/></g></g><g id="Layer_2" display="none"><path display="inline" fill="#6F8388" d="M49.25,5H40c0-1.105-0.895-2-2-2h-5c0-1.657-1.343-3-3-3s-3,1.343-3,3h-5 c-1.105,0-2,0.895-2,2h-9.25C9.231,5,8,6.231,8,7.75v49.5C8,58.769,9.231,60,10.75,60h38.5c1.519,0,2.75-1.231,2.75-2.75V7.75 C52,6.231,50.769,5,49.25,5z M30,1c1.103,0,2,0.897,2,2h-4C28,1.897,28.897,1,30,1z M49,57H11V8h9v1c0,1.105,0.895,2,2,2h16 c1.105,0,2-0.895,2-2V8h9V57z"/><path display="inline" fill="#6F8388" d="M28,20H16c-0.276,0-0.5-0.224-0.5-0.5S15.724,19,16,19h12c0.276,0,0.5,0.224,0.5,0.5 S28.276,20,28,20z"/><path display="inline" fill="#6F8388" d="M44,20H32c-0.276,0-0.5-0.224-0.5-0.5S31.724,19,32,19h12c0.276,0,0.5,0.224,0.5,0.5 S44.276,20,44,20z"/><path display="inline" fill="#6F8388" d="M28,24H16c-0.276,0-0.5-0.224-0.5-0.5S15.724,23,16,23h12c0.276,0,0.5,0.224,0.5,0.5 S28.276,24,28,24z"/><path display="inline" fill="#6F8388" d="M44,24H32c-0.276,0-0.5-0.224-0.5-0.5S31.724,23,32,23h12c0.276,0,0.5,0.224,0.5,0.5 S44.276,24,44,24z"/><path display="inline" fill="#6F8388" d="M28,28H16c-0.276,0-0.5-0.224-0.5-0.5S15.724,27,16,27h12c0.276,0,0.5,0.224,0.5,0.5 S28.276,28,28,28z"/><path display="inline" fill="#6F8388" d="M44,28H32c-0.276,0-0.5-0.224-0.5-0.5S31.724,27,32,27h12c0.276,0,0.5,0.224,0.5,0.5 S44.276,28,44,28z"/><path display="inline" fill="#6F8388" d="M28,34v13H15V34H28 M29,33H14v15h15V33L29,33z"/><path display="inline" fill="#6F8388" d="M45,34v13H32V34H45 M46,33H31v15h15V33L46,33z"/><path display="inline" fill="#6F8388" d="M18.922,44.785l-2.338-3.507c-0.153-0.23-0.091-0.54,0.139-0.693 c0.229-0.154,0.54-0.091,0.693,0.139l1.662,2.493l6.569-6.569c0.195-0.195,0.512-0.195,0.707,0s0.195,0.512,0,0.707L18.922,44.785z"/><path display="inline" fill="#6F8388" d="M35.922,44.785l-2.338-3.507c-0.153-0.23-0.091-0.54,0.139-0.693 c0.228-0.153,0.538-0.092,0.693,0.139l1.662,2.493l6.568-6.569c0.195-0.195,0.512-0.195,0.707,0s0.195,0.512,0,0.707L35.922,44.785 z"/></g><g id="Layer_3" display="none"><g display="inline"><path fill="#6F8388" d="M16,30c0,0.552,0.448,1,1,1h27c0.552,0,1-0.448,1-1c0-0.552-0.448-1-1-1H17C16.448,29,16,29.448,16,30z"/><path fill="#6F8388" d="M17,36h21c0.552,0,1-0.448,1-1c0-0.552-0.448-1-1-1H17c-0.552,0-1,0.448-1,1C16,35.552,16.448,36,17,36z" /><path fill="#6F8388" d="M16,25c0,0.552,0.448,1,1,1h21c0.552,0,1-0.448,1-1c0-0.552-0.448-1-1-1H17C16.448,24,16,24.448,16,25z"/><path fill="#6F8388" d="M44,39H17c-0.552,0-1,0.448-1,1c0,0.552,0.448,1,1,1h27c0.552,0,1-0.448,1-1C45,39.448,44.552,39,44,39z" /><path fill="#6F8388" d="M44,49H17c-0.552,0-1,0.448-1,1c0,0.552,0.448,1,1,1h27c0.552,0,1-0.448,1-1C45,49.448,44.552,49,44,49z" /><path fill="#6F8388" d="M17,46h21c0.552,0,1-0.448,1-1c0-0.552-0.448-1-1-1H17c-0.552,0-1,0.448-1,1C16,45.552,16.448,46,17,46z" /><path fill="#6F8388" d="M37,0H9C7.343,0,6,1.343,6,3v54c0,1.657,1.343,3,3,3h43c1.657,0,3-1.343,3-3V18L37,0z M37,3.986L51.001,18 H37V3.986z M52,57H8.997V2.985H36V19h16V57z"/></g></g><g id="Layer_4"><g><path fill="#6F8388" d="M17.194,52.053c0.883,0.515,1.807,0.98,2.748,1.384l0.395-0.918c-0.903-0.389-1.792-0.836-2.64-1.329 L17.194,52.053z"/><path fill="#6F8388" d="M15.235,49.553c-0.008-0.006-0.015-0.013-0.023-0.019l-2.89-7.513l-1.742,2.904 c-0.467-0.606-0.915-1.23-1.322-1.874l-0.846,0.533c0.464,0.736,0.978,1.448,1.517,2.135l-3.264,1.958l9.192,3.536l-0.633-1.646 L15.235,49.553z"/><path fill="#6F8388" d="M22.835,54.479c0.983,0.288,1.993,0.519,3.001,0.684l0.162-0.986c-0.969-0.159-1.938-0.38-2.882-0.656 L22.835,54.479z"/><path fill="#6F8388" d="M7.836,40.458c-0.42-0.893-0.79-1.816-1.098-2.748L5.79,38.024c0.32,0.969,0.705,1.932,1.143,2.859 L7.836,40.458z"/><path fill="#6F8388" d="M24.928,5.007c-0.056,0.011-0.112,0.028-0.169,0.039C22.191,1.964,18.326,0,14,0C6.268,0,0,6.268,0,14 s6.268,14,14,14s14-6.268,14-14c0-3.266-1.127-6.263-3.002-8.644L24.928,5.007z M14,25c-3.937,0-7.387-2.086-9.331-5.203 c1.393-1.786,4.688-1.592,7.049-2.606c0.081-0.426,0.163-1.013,0.149-1.582c-0.497-0.584-0.883-1.343-1.1-2.208 c-0.282-0.56-0.484-1.202-0.628-1.889c-0.052-0.245,0.12-0.313,0.455-0.296c0.006-0.071,0.012-0.142,0.021-0.213V9.362 c0,0-0.12-1.529,1.02-2.339c1.139-0.81,2.069-1.11,2.728-1.11s1.679,0.269,2.339,0.989c0.66,0.72,1.139,1.56,1.139,1.949 c0,0.326,0,1.829,0,2.309c0.385-0.022,0.583,0.057,0.521,0.35c-0.159,0.752-0.398,1.451-0.741,2.048 c-0.221,0.834-0.594,1.563-1.073,2.121c0.006,0.553,0.092,1.138,0.169,1.556c2.351,0.969,5.352,0.782,6.642,2.514 C21.421,22.894,17.956,25,14,25z"/><path fill="#6F8388" d="M5.58,31.979l-0.005-0.065l-0.993,0.135c0.082,1.009,0.223,2.018,0.42,2.999l0.98-0.197 C5.793,33.908,5.658,32.938,5.58,31.979z"/><path fill="#6F8388" d="M5.82,26.023l-0.987-0.162c-0.165,1.008-0.27,2.038-0.312,3.062l0.999,0.041 C5.561,27.98,5.661,26.99,5.82,26.023z"/><path fill="#6F8388" d="M54.42,28.029l0.007,0.096l0.499-0.039l0.491-0.135c-0.083-1.022-0.227-2.047-0.429-3.047l-0.98,0.199 C54.202,26.063,54.341,27.049,54.42,28.029z"/><path fill="#6F8388" d="M31.012,5.519l0.041-1c-0.319-0.013-0.64-0.02-0.961-0.02c-0.685,0.003-1.414,0.025-2.116,0.082 l0.079,0.996c0.655-0.052,1.319-0.078,1.975-0.078C30.36,5.5,30.686,5.505,31.012,5.519z"/><path fill="#6F8388" d="M44.728,10.42c0.021,0.016,0.041,0.034,0.062,0.049l2.888,7.51l1.742-2.904 c0.456,0.592,0.896,1.201,1.296,1.834l0.845-0.535c-0.458-0.723-0.963-1.42-1.491-2.093l3.265-1.959l-9.192-3.536l0.614,1.596 L44.728,10.42z"/><path fill="#6F8388" d="M54.173,34.023l0.986,0.164c0.167-1.009,0.274-2.039,0.318-3.062l-0.999-0.043 C54.437,32.065,54.333,33.056,54.173,34.023z"/><path fill="#6F8388" d="M52.145,19.502c0.42,0.885,0.791,1.809,1.102,2.744l0.949-0.316c-0.324-0.974-0.71-1.935-1.148-2.857 L52.145,19.502z"/><path fill="#6F8388" d="M37.118,5.506c-0.98-0.285-1.991-0.513-3.002-0.678l-0.161,0.986c0.972,0.159,1.942,0.378,2.884,0.652 L37.118,5.506z"/><path fill="#6F8388" d="M28.94,54.479l-0.042,1c0.356,0.015,0.714,0.022,1.074,0.022c0.66,0,1.334-0.026,2.004-0.078l-0.077-0.996 C30.905,54.503,29.912,54.521,28.94,54.479z"/><path fill="#6F8388" d="M42.763,7.922c-0.888-0.515-1.813-0.979-2.75-1.379l-0.393,0.92c0.9,0.385,1.789,0.83,2.642,1.324 L42.763,7.922z"/><path fill="#6F8388" d="M46,32c-7.732,0-14,6.268-14,14c0,3.225,1.102,6.187,2.934,8.554l0.09,0.448 c0.072-0.014,0.143-0.035,0.216-0.05C37.807,58.035,41.674,60,46,60c7.732,0,14-6.268,14-14S53.732,32,46,32z M46,57 c-3.937,0-7.387-2.086-9.331-5.203c1.393-1.786,4.688-1.592,7.049-2.606c0.081-0.426,0.163-1.013,0.149-1.582 c-0.497-0.584-0.883-1.343-1.1-2.208c-0.282-0.56-0.484-1.202-0.628-1.889c-0.052-0.245,0.12-0.313,0.455-0.296 c0.006-0.071,0.012-0.142,0.021-0.213v-1.641c0,0-0.12-1.529,1.02-2.339c1.139-0.81,2.069-1.11,2.728-1.11 s1.679,0.269,2.339,0.989c0.66,0.72,1.139,1.56,1.139,1.949c0,0.326,0,1.829,0,2.309c0.385-0.022,0.583,0.057,0.521,0.35 c-0.159,0.752-0.398,1.451-0.741,2.048c-0.221,0.834-0.594,1.563-1.073,2.121c0.006,0.553,0.092,1.138,0.169,1.556 c2.351,0.969,5.352,0.782,6.642,2.514C53.421,54.894,49.956,57,46,57z"/></g></g></svg>