<svg version="1.1" id="Layer_1" xmlns="http://www.w3.org/2000/svg" xmlns:xlink="http://www.w3.org/1999/xlink" x="0px" y="0px"
	 viewBox="0 0 60 60" enable-background="new 0 0 60 60" xml:space="preserve" height="60" width="60"><g id="prod_7_"><polygon fill="none" points="16,2.414 8.414,10 16,10 	"/><polygon fill="none" points="37,29.414 29.414,37 37,37 	"/><polygon fill="none" points="26,15.414 18.414,23 26,23 	"/><polygon fill="none" points="26,13 31,13 31,2 17,2 17,11 8,11 8,31 16,31 16,23 	"/><path fill="#6F8388" d="M53,27H43V14c0-0.552-0.448-1-1-1h-9V1c0-0.552-0.448-1-1-1H16L6,10v22c0,0.552,0.448,1,1,1h9v12
		c0,0.552,0.448,1,1,1h10v13c0,0.552,0.448,1,1,1h25c0.552,0,1-0.448,1-1V28C54,27.448,53.552,27,53,27z M16,2.414V10H8.414
		L16,2.414z M16,23v8H8V11h9V2h14v11h-5L16,23z M26,15.414V23h-7.586L26,15.414z M27,37v7h-9V24h9v-9h14v12h-4L27,37z M37,29.414V37
		h-7.586L37,29.414z M52,58H29V38h9v-9h14V58z"/></g></svg>