<svg version="1.1" xmlns="http://www.w3.org/2000/svg" xmlns:xlink="http://www.w3.org/1999/xlink" x="0px" y="0px" viewBox="0 0 60 60" enable-background="new 0 0 60 60" xml:space="preserve" height="60" width="60"><g id="Layer_1" display="none"><g id="prod_7_" display="inline"><polygon fill="none" points="16,2.414 8.414,10 16,10"/><polygon fill="none" points="37,29.414 29.414,37 37,37"/><polygon fill="none" points="26,15.414 18.414,23 26,23"/><polygon fill="none" points="26,13 31,13 31,2 17,2 17,11 8,11 8,31 16,31 16,23"/><path fill="#FFFFFF" d="M53,27H43V14c0-0.552-0.448-1-1-1h-9V1c0-0.552-0.448-1-1-1H16L6,10v22c0,0.552,0.448,1,1,1h9v12 c0,0.552,0.448,1,1,1h10v13c0,0.552,0.448,1,1,1h25c0.552,0,1-0.448,1-1V28C54,27.448,53.552,27,53,27z M16,2.414V10H8.414 L16,2.414z M16,23v8H8V11h9V2h14v11h-5L16,23z M26,15.414V23h-7.586L26,15.414z M27,37v7h-9V24h9v-9h14v12h-4L27,37z M37,29.414 V37h-7.586L37,29.414z M52,58H29V38h9v-9h14V58z"/></g></g><g id="Layer_2"><path fill="#FFFFFF" d="M49.25,5H40c0-1.105-0.895-2-2-2h-5c0-1.657-1.343-3-3-3s-3,1.343-3,3h-5c-1.105,0-2,0.895-2,2h-9.25 C9.231,5,8,6.231,8,7.75v49.5C8,58.769,9.231,60,10.75,60h38.5c1.519,0,2.75-1.231,2.75-2.75V7.75C52,6.231,50.769,5,49.25,5z M30,1c1.103,0,2,0.897,2,2h-4C28,1.897,28.897,1,30,1z M49,57H11V8h9v1c0,1.105,0.895,2,2,2h16c1.105,0,2-0.895,2-2V8h9V57z"/><path fill="#FFFFFF" d="M28,20H16c-0.276,0-0.5-0.224-0.5-0.5S15.724,19,16,19h12c0.276,0,0.5,0.224,0.5,0.5S28.276,20,28,20z"/><path fill="#FFFFFF" d="M44,20H32c-0.276,0-0.5-0.224-0.5-0.5S31.724,19,32,19h12c0.276,0,0.5,0.224,0.5,0.5S44.276,20,44,20z"/><path fill="#FFFFFF" d="M28,24H16c-0.276,0-0.5-0.224-0.5-0.5S15.724,23,16,23h12c0.276,0,0.5,0.224,0.5,0.5S28.276,24,28,24z"/><path fill="#FFFFFF" d="M44,24H32c-0.276,0-0.5-0.224-0.5-0.5S31.724,23,32,23h12c0.276,0,0.5,0.224,0.5,0.5S44.276,24,44,24z"/><path fill="#FFFFFF" d="M28,28H16c-0.276,0-0.5-0.224-0.5-0.5S15.724,27,16,27h12c0.276,0,0.5,0.224,0.5,0.5S28.276,28,28,28z"/><path fill="#FFFFFF" d="M44,28H32c-0.276,0-0.5-0.224-0.5-0.5S31.724,27,32,27h12c0.276,0,0.5,0.224,0.5,0.5S44.276,28,44,28z"/><path fill="#FFFFFF" d="M28,34v13H15V34H28 M29,33H14v15h15V33L29,33z"/><path fill="#FFFFFF" d="M45,34v13H32V34H45 M46,33H31v15h15V33L46,33z"/><path fill="#FFFFFF" d="M18.922,44.785l-2.338-3.507c-0.153-0.23-0.091-0.54,0.139-0.693c0.229-0.154,0.54-0.091,0.693,0.139 l1.662,2.493l6.569-6.569c0.195-0.195,0.512-0.195,0.707,0s0.195,0.512,0,0.707L18.922,44.785z"/><path fill="#FFFFFF" d="M35.922,44.785l-2.338-3.507c-0.153-0.23-0.091-0.54,0.139-0.693c0.228-0.153,0.538-0.092,0.693,0.139 l1.662,2.493l6.568-6.569c0.195-0.195,0.512-0.195,0.707,0s0.195,0.512,0,0.707L35.922,44.785z"/></g></svg>